SplineFontDB: 3.0
FontName: ObliquayRegular
FullName: Obliquay Regular
FamilyName: Obliquay
Weight: Regular
Copyright: (c) Frank Sikernitsky, 2014-2018
Version: Version 2018.02.0001
ItalicAngle: 0
UnderlinePosition: -100
UnderlineWidth: 50
Ascent: 1050
Descent: 235
InvalidEm: 0
sfntRevision: 0x00010000
LayerCount: 2
Layer: 0 0 "Back" 1
Layer: 1 0 "Fore" 0
XUID: [1021 668 1240808111 12795035]
StyleMap: 0x0040
FSType: 0
OS2Version: 4
OS2_WeightWidthSlopeOnly: 0
OS2_UseTypoMetrics: 1
CreationTime: -2082844800
ModificationTime: 1519276561
PfmFamily: 81
TTFWeight: 400
TTFWidth: 5
LineGap: 0
VLineGap: 0
Panose: 0 0 0 0 0 0 0 0 0 0
OS2TypoAscent: 1050
OS2TypoAOffset: 0
OS2TypoDescent: -235
OS2TypoDOffset: 0
OS2TypoLinegap: 0
OS2WinAscent: 1174
OS2WinAOffset: 0
OS2WinDescent: 294
OS2WinDOffset: 0
HheadAscent: 1174
HheadAOffset: 0
HheadDescent: -294
HheadDOffset: 0
OS2SubXSize: 650
OS2SubYSize: 699
OS2SubXOff: 0
OS2SubYOff: 140
OS2SupXSize: 650
OS2SupYSize: 699
OS2SupXOff: 0
OS2SupYOff: 479
OS2StrikeYSize: 49
OS2StrikeYPos: 258
OS2CapHeight: 927
OS2XHeight: 701
OS2Vendor: 'XXXX'
OS2CodePages: 00000001.00000000
OS2UnicodeRanges: a000003f.5000004f.00000000.00000000
Lookup: 258 0 0 "'kern' Horizontal Kerning in Latin lookup 0" { "'kern' Horizontal Kerning in Latin lookup 0 subtable"  } ['kern' ('latn' <'dflt' > ) ]
MarkAttachClasses: 1
DEI: 91125
LangName: 1033 "" "" "" "FontForge 2.0 : Obliquay Regular : 28-1-2018" "" "Version 1.4.067" "" " " " " "Frank Sikernitsky" "A very mildly retro poster font." " " "http://frank.sikernitsky.com" "Licensed under the Apache License, Version 2.0" " " "" "Obliquay" "Regular"
Encoding: UnicodeBmp
UnicodeInterp: none
NameList: AGL For New Fonts
DisplaySize: -48
AntiAlias: 1
FitToEm: 0
WinInfo: 0 23 9
BeginPrivate: 8
BlueValues 23 [-23 0 706 723 927 943]
OtherBlues 11 [-252 -206]
BlueScale 9 0.0208333
BlueShift 1 0
StdHW 4 [97]
StdVW 5 [118]
StemSnapH 19 [87 97 101 111 119]
StemSnapV 16 [99 110 118 127]
EndPrivate
BeginChars: 65536 364

StartChar: .notdef
Encoding: 0 -1 0
AltUni2: 000000.ffffffff.0
Width: 630
Flags: W
LayerCount: 2
Fore
SplineSet
91 700 m 1
 560.080078125 700 l 1
 560.080078125 0 l 1
 91 0 l 1
 91 700 l 1
141 50 m 1
 510.080078125 50 l 1
 510.080078125 650 l 1
 141 650 l 1
 141 50 l 1
EndSplineSet
EndChar

StartChar: exclam
Encoding: 33 33 2
Width: 287
Flags: W
LayerCount: 2
Fore
SplineSet
91 931 m 1
 211 943 l 1
 219 539 l 1
 194 206 l 1
 111 210 l 1
 91 553 l 1
 91 931 l 1
96 -6 m 1
 92 117 l 1
 215 113 l 1
 215 -6 l 1
 96 -6 l 1
EndSplineSet
EndChar

StartChar: quotedbl
Encoding: 34 34 3
Width: 443
Flags: W
LayerCount: 2
Fore
SplineSet
85.7998046875 927 m 1
 186.799804688 921 l 1
 194.799804688 813 l 1
 166.799804688 715 l 1
 113.799804688 709 l 1
 93.7998046875 813 l 1
 85.7998046875 927 l 1
263.799804688 919 m 1
 373.799804688 927 l 1
 373.799804688 813 l 1
 344.799804688 709 l 1
 290.799804688 719 l 1
 263.799804688 813 l 1
 263.799804688 919 l 1
EndSplineSet
EndChar

StartChar: numbersign
Encoding: 35 35 4
Width: 865
Flags: W
LayerCount: 2
Fore
SplineSet
374 657 m 1
 326.799804688 273 l 1
 503.5 273 l 1
 553.5 656 l 1
 374 657 l 1
588.5 927 m 1
 670.5 927 l 1
 651.5 740 l 1
 813.5 742 l 1
 800.5 652 l 1
 643.5 654 l 1
 605.5 272 l 1
 740.5 271 l 1
 729.5 189 l 1
 597.5 188 l 1
 578.5 0 l 1
 468.5 0 l 1
 492.5 187 l 1
 312.5 187 l 1
 281.299804688 0 l 1
 199.299804688 0 l 1
 217.299804688 186 l 1
 66.2998046875 185 l 1
 78.2998046875 275 l 1
 226.299804688 274 l 1
 264.299804688 659 l 1
 139.299804688 662 l 1
 149.299804688 733 l 1
 272.299804688 735 l 1
 294.299804688 927 l 1
 410 929 l 1
 384 739 l 1
 564.5 738 l 1
 588.5 927 l 1
EndSplineSet
EndChar

StartChar: dollar
Encoding: 36 36 5
Width: 748
Flags: HW
LayerCount: 2
Fore
SplineSet
133.787109375 234.849609375 m 5
 268.102539062 189.849609375 302.033203125 184.450195312 445.943359375 181.75 c 5
 548.90234375 183.549804688 554.752929688 201.549804688 554.752929688 314.049804688 c 4
 554.752929688 414.849609375 545.393554688 422.950195312 353.513671875 453.549804688 c 5
 115.786132812 497.650390625 104.986328125 508.450195312 104.986328125 709.150390625 c 4
 104.986328125 891.849609375 139.186523438 930.549804688 310.1328125 935.049804688 c 5
 312.47265625 965.650390625 318.197265625 1057.45019531 318.197265625 1057.45019531 c 5
 431.596679688 1060.15039062 l 5
 433.432617188 933.25 l 5
 482.572265625 929.650390625 577.83984375 925 666.83984375 897 c 1
 592.552734375 800.950195312 l 5
 514.97265625 823.450195312 491.572265625 836.049804688 348.833007812 836.049804688 c 4
 221.986328125 836.049804688 205.786132812 812.650390625 205.786132812 665.049804688 c 4
 205.786132812 577.75 215.686523438 571.450195312 454.1328125 531.849609375 c 4
 651.953125 495.849609375 660.953125 485.950195312 660.953125 323.049804688 c 4
 660.953125 140.349609375 633.916992188 97.150390625 447.796875 88.150390625 c 5
 446.626953125 59.349609375 461.296875 -14.4501953125 461.296875 -14.4501953125 c 5
 334.396484375 -17.150390625 l 5
 332.6328125 91.75 l 5
 167.086914062 101.650390625 112.186523438 140.349609375 112.186523438 140.349609375 c 5
 133.787109375 234.849609375 l 5
EndSplineSet
EndChar

StartChar: percent
Encoding: 37 37 6
Width: 841
Flags: HW
LayerCount: 2
Fore
SplineSet
88.400390625 78 m 5
 646 1002 l 5
 724.299804688 949 l 5
 217.400390625 60 l 5
 88.400390625 78 l 5
195.400390625 1001 m 6
 211.400390625 1001 l 6
 326.400390625 1001 332.400390625 979 332.400390625 851 c 6
 332.400390625 809 l 6
 332.400390625 705 326.400390625 646 217.400390625 645 c 4
 95.400390625 646 75.400390625 722 75.400390625 851 c 4
 75.400390625 979 81.400390625 1001 195.400390625 1001 c 6
151.400390625 854 m 6
 151.400390625 816 l 6
 151.400390625 753 153.400390625 730 211.400390625 730 c 4
 264.400390625 730 268.400390625 757 268.400390625 809 c 6
 268.400390625 883 l 6
 268.400390625 928 264.400390625 934 211.400390625 934 c 4
 153.400390625 934 151.400390625 917 151.400390625 854 c 6
635.200195312 45 m 4
 496.400390625 45 490.400390625 71 490.400390625 201 c 4
 490.400390625 331 492.400390625 393 630 393 c 4
 774.299804688 393 784.299804688 325 784.299804688 195 c 4
 784.299804688 65 778.299804688 45 635.200195312 45 c 4
624.799804688 108 m 4
 706.700195312 108 722.299804688 122 722.299804688 192 c 6
 722.299804688 202 l 6
 722.299804688 276 721 321 640.400390625 321 c 4
 565 321 562.400390625 284 562.400390625 219 c 6
 562.400390625 199 l 5
 562.400390625 189 l 6
 562.400390625 171 560.400390625 155 560.400390625 143 c 4
 560.400390625 121 568.900390625 108 624.799804688 108 c 4
EndSplineSet
EndChar

StartChar: ampersand
Encoding: 38 38 7
Width: 635
Flags: W
LayerCount: 2
Fore
SplineSet
281.200195312 87 m 1
 117.400390625 98 75.400390625 169 75.400390625 278 c 0
 75.400390625 288 75.400390625 299 76.400390625 309 c 0
 81.400390625 409 81.400390625 474 209.299804688 504 c 1
 118.400390625 526 107.400390625 549 102.400390625 668 c 1
 102.400390625 685 l 2
 102.400390625 817 181.400390625 858 286.900390625 870 c 1
 281.700195312 910 270 994 270 994 c 1
 399 997 l 1
 392.599609375 872 l 1
 470.740234375 868 509.740234375 849 569.740234375 801 c 1
 513.740234375 733 l 1
 480.740234375 774 447.740234375 788 392.599609375 788 c 0
 380.900390625 788 367.900390625 787 353.599609375 786 c 0
 239.200195312 778 204.099609375 761 201.5 661 c 1
 205.400390625 582 239.200195312 547 353.599609375 547 c 1
 442.740234375 555 l 1
 447.740234375 499 l 1
 441.740234375 436 l 1
 351 444 l 1
 201.5 444 188.5 407 180.700195312 313 c 0
 179.400390625 303 179.400390625 294 179.400390625 285 c 0
 179.400390625 206 218.400390625 176 332.799804688 176 c 0
 449.740234375 176 475.740234375 185 530.740234375 259 c 1
 590.740234375 184 l 1
 535.740234375 135 515.740234375 97 394.700195312 87 c 1
 397.299804688 49 405 -29 405 -29 c 1
 279 -32 l 1
 281.200195312 87 l 1
EndSplineSet
EndChar

StartChar: quotesingle
Encoding: 39 39 8
Width: 269
Flags: W
LayerCount: 2
Fore
SplineSet
97.7001953125 921 m 1
 202.700195312 913 l 1
 192.700195312 807 l 1
 178.700195312 703 l 1
 89.7001953125 705 l 1
 95.7001953125 807 l 1
 97.7001953125 921 l 1
EndSplineSet
EndChar

StartChar: parenleft
Encoding: 40 40 9
Width: 381
Flags: W
LayerCount: 2
Fore
SplineSet
263.099609375 935 m 1
 318.099609375 859 l 1
 209.099609375 791 181.099609375 817 181.099609375 441 c 0
 181.099609375 93 215.099609375 37 342.099609375 -34 c 1
 289.099609375 -95 l 1
 96.099609375 13 87.099609375 19 87.099609375 417 c 2
 87.099609375 572 l 2
 87.099609375 834 98.099609375 835 263.099609375 935 c 1
EndSplineSet
EndChar

StartChar: parenright
Encoding: 41 41 10
Width: 377
Flags: W
LayerCount: 2
Fore
SplineSet
129.799804688 -119 m 1
 59.7998046875 -41 l 1
 191.799804688 46 198.799804688 70 198.799804688 447 c 1
 186.799804688 795 180.799804688 817 64.7998046875 899 c 1
 129.799804688 972 l 1
 286.799804688 861 294.799804688 835 307.799804688 447 c 1
 307.799804688 21 298.799804688 -7 129.799804688 -119 c 1
EndSplineSet
EndChar

StartChar: asterisk
Encoding: 42 42 11
Width: 601
Flags: W
LayerCount: 2
Fore
SplineSet
510.080078125 735 m 1
 547.080078125 621 l 1
 400.080078125 569 l 1
 521.080078125 427 l 1
 427.080078125 358 l 1
 320.33984375 539 l 1
 219.200195312 375 l 1
 126.200195312 446 l 1
 221 570 l 1
 70.2001953125 599 l 1
 117.200195312 748 l 1
 248.83984375 673 l 1
 228.040039062 817 l 1
 377.540039062 817 l 1
 351.540039062 634 l 1
 510.080078125 735 l 1
EndSplineSet
EndChar

StartChar: plus
Encoding: 43 43 12
Width: 885
Flags: W
LayerCount: 2
Fore
SplineSet
403.540039062 409 m 1
 68.900390625 419 l 1
 68.900390625 486 l 1
 400.940429688 496 l 1
 391.83984375 777 l 1
 503.139648438 777 l 1
 495.33984375 500 l 1
 827.379882812 504 l 1
 827.379882812 395 l 1
 491.440429688 406 l 1
 483.639648438 126 l 1
 412.639648438 126 l 1
 403.540039062 409 l 1
EndSplineSet
EndChar

StartChar: comma
Encoding: 44 44 13
Width: 272
Flags: W
LayerCount: 2
Fore
SplineSet
96.400390625 109 m 1
 195.400390625 117 l 1
 207.400390625 0 l 1
 201.400390625 0 l 1
 130.400390625 -96 137.400390625 -99 111.400390625 -99 c 2
 104.400390625 -99 l 1
 92.400390625 -42 l 1
 93.400390625 -42 l 2
 98.400390625 -42 100.400390625 -40 129.400390625 0 c 1
 88.400390625 0 l 1
 96.400390625 109 l 1
EndSplineSet
EndChar

StartChar: hyphen
Encoding: 45 45 14
Width: 425
Flags: W
LayerCount: 2
Fore
SplineSet
89.7998046875 398 m 1
 85.7998046875 516 l 1
 357.799804688 502 l 1
 357.799804688 403 l 1
 89.7998046875 398 l 1
EndSplineSet
EndChar

StartChar: period
Encoding: 46 46 15
Width: 276
Flags: W
LayerCount: 2
Fore
SplineSet
89.7001953125 -8 m 1
 89.7001953125 119 l 1
 200.700195312 111 l 1
 208.700195312 0 l 1
 89.7001953125 -8 l 1
EndSplineSet
EndChar

StartChar: slash
Encoding: 47 47 16
Width: 452
Flags: W
LayerCount: 2
Fore
SplineSet
63.7001953125 0 m 1
 325.700195312 939 l 1
 404.700195312 916 l 1
 155.700195312 -30 l 1
 63.7001953125 0 l 1
EndSplineSet
EndChar

StartChar: zero
Encoding: 48 48 17
Width: 883
Flags: HW
LayerCount: 2
Fore
SplineSet
113.099609375 463 m 0
 113.099609375 897 140.099609375 941 464.900390625 941 c 0
 790 941 817 897 817 463 c 0
 817 8 803 -15 464.900390625 -15 c 0
 128.099609375 -15 113.099609375 8 113.099609375 463 c 0
464.900390625 87 m 0
 683.299804688 87 695 105 695 463 c 0
 695 805 674.200195312 840 464.900390625 840 c 0
 256.900390625 840 236.099609375 805 236.099609375 463 c 0
 236.099609375 105 247.799804688 87 464.900390625 87 c 0
EndSplineSet
EndChar

StartChar: one
Encoding: 49 49 18
Width: 448
Flags: HW
LayerCount: 2
Fore
SplineSet
305.299804688 -6 m 1
 227.299804688 4 l 1
 227.299804688 770 l 1
 66.2998046875 746 l 1
 70.2998046875 841 l 1
 253.299804688 929 l 1
 344.299804688 927 l 1
 344.299804688 -6 l 2
 345.299804688 -6 345.299804688 -6 344.299804688 -9 c 0
 345.299804688 -11 345.299804688 -11 344.299804688 -11 c 2
 286.299804688 -11 l 1
 286.299804688 -6 l 1
 305.299804688 -6 l 1
EndSplineSet
EndChar

StartChar: two
Encoding: 50 50 19
Width: 655
Flags: HW
LayerCount: 2
Fore
SplineSet
188 647 m 1
 50 706 l 1
 50 706 49.8056640625 718.001953125 50 728 c 0
 53 882 110.068359375 946.717773438 322.540039062 946 c 0
 509.655273438 945.368164062 654.356445312 897.556640625 628 647 c 0
 614.557617188 519.211914062 533.291015625 482.5 397 372.999023438 c 0
 314.349609375 306.594726562 214.735351562 260.8359375 196 111.999023438 c 1
 655 120.999023438 l 1
 622 -0.0009765625 l 1
 63.7001953125 -0.0009765625 l 1
 63.7001953125 60.9990234375 l 2
 63.7001953125 313.999023438 157.689453125 336.4296875 235 405.999023438 c 0
 429.430664062 580.9609375 492.377929688 563.180664062 508 657.999023438 c 0
 535.771484375 826.559570312 439.046875 827.58984375 295.139648438 824 c 0
 212.311523438 821.93359375 179.19921875 789.5859375 188 647 c 1
EndSplineSet
EndChar

StartChar: three
Encoding: 51 51 20
Width: 772
Flags: HW
LayerCount: 2
Fore
SplineSet
322.799804688 940 m 0
 525.7578125 948.96484375 647.7578125 926.497070312 684.297851562 743.001953125 c 0
 687.227539062 728.291015625 683.241210938 712.008789062 681.297851562 695.001953125 c 0
 665.297851562 555.001953125 682.397460938 520.001953125 564.998046875 493.001953125 c 1
 699.370117188 465.13671875 712.852539062 430.483398438 713.298828125 257.001953125 c 0
 713.853515625 41.353515625 639.385742188 -21.5732421875 395.599609375 -14.998046875 c 0
 139.891601562 -8.1015625 95.248046875 27.275390625 75.400390625 237.000976562 c 1
 208.400390625 230.000976562 l 1
 206.96875 107.826171875 292 91.0009765625 395.599609375 96.0009765625 c 0
 546.161132812 103.267578125 568.578125 132.967773438 576.299804688 262.000976562 c 0
 585.259765625 411.733398438 546.400390625 434.000976562 360.5 434.000976562 c 2
 276 434.000976562 l 1
 276 489.000976562 l 1
 272.099609375 545.000976562 l 1
 370.900390625 545.000976562 l 2
 513.900390625 545.000976562 538.599609375 554.000976562 559.400390625 686.000976562 c 0
 560.700195312 697.000976562 563.952148438 708.193359375 562 718.000976562 c 0
 546.146484375 797.645507812 478.317382812 839.553710938 369.599609375 838 c 0
 359.201171875 837.8515625 348.685546875 840.537109375 338.400390625 839 c 0
 272.77734375 829.192382812 218.075195312 785.76953125 205 727 c 1
 76 736 l 1
 95.5830078125 877.5 168.841796875 933.19921875 322.799804688 940 c 0
EndSplineSet
EndChar

StartChar: four
Encoding: 52 52 21
Width: 729
Flags: HW
LayerCount: 2
Fore
SplineSet
192.5 369 m 1
 446.440429688 362 l 1
 445.139648438 683 l 1
 447.440429688 703 l 1
 192.5 369 l 1
471.440429688 937 m 1
 563.440429688 927 l 1
 563.440429688 901 l 1
 567.440429688 900 l 1
 563.440429688 893 l 1
 563.440429688 359 l 1
 675.440429688 355 l 1
 675.440429688 244 l 1
 563.440429688 248 l 1
 563.440429688 6 l 1
 447.440429688 -17 l 1
 446.440429688 252 l 1
 161.5 260 l 1
 71.5 258 l 1
 71.5 355 l 1
 470.440429688 925 l 1
 471.440429688 937 l 1
EndSplineSet
EndChar

StartChar: five
Encoding: 53 53 22
Width: 712
Flags: HW
LayerCount: 2
Fore
SplineSet
106.299804688 494 m 1
 138.299804688 927 l 1
 619.139648438 927 l 1
 610.139648438 813 l 1
 269.639648438 820 l 1
 243.639648438 592 l 1
 398.33984375 592 l 2
 620.139648438 592 650.139648438 551 650.139648438 290 c 0
 650.139648438 26 615.139648438 -15 354.139648438 -15 c 0
 171.299804688 -15 136.299804688 14 66.2998046875 203 c 1
 180.299804688 250 l 1
 231.940429688 117 257.940429688 96 354.139648438 96 c 0
 499.740234375 96 523.139648438 122 523.139648438 290 c 0
 523.139648438 467 501.040039062 495 368.440429688 495 c 2
 231.940429688 495 l 1
 231.940429688 490 l 1
 106.299804688 494 l 1
EndSplineSet
EndChar

StartChar: six
Encoding: 54 54 23
Width: 757
Flags: HW
LayerCount: 2
Fore
SplineSet
669.139648438 784 m 1
 577.139648438 724 l 1
 497.139648438 829 472.440429688 845 402.240234375 845 c 0
 207.099609375 845 205.099609375 770 205.099609375 510 c 1
 208.099609375 510 241.099609375 529 384.040039062 529 c 2
 403.540039062 529 l 2
 665.139648438 526 663.139648438 514 693.139648438 303 c 0
 699.139648438 258 702.139648438 220 702.139648438 186 c 0
 702.139648438 17 620.139648438 -15 386.639648438 -15 c 0
 100.099609375 -15 87.099609375 9 87.099609375 490 c 0
 87.099609375 879 100.099609375 941 402.240234375 941 c 0
 551.740234375 941 588.139648438 920 669.139648438 784 c 1
373.639648438 428 m 1
 232.099609375 424 196.099609375 392 196.099609375 327 c 2
 196.099609375 324 l 1
 204.099609375 126 234.099609375 87 386.639648438 87 c 0
 510.139648438 87 575.139648438 101 575.139648438 207 c 0
 575.139648438 233 571.240234375 265 563.440429688 303 c 0
 541.33984375 412 537.440429688 428 416.540039062 428 c 2
 373.639648438 428 l 1
EndSplineSet
EndChar

StartChar: seven
Encoding: 55 55 24
Width: 635
Flags: HW
LayerCount: 2
Fore
SplineSet
61 944 m 1
 585 938 l 1
 562.83984375 834 l 1
 361 308 356.700195312 176.249023438 356.700195312 36 c 2
 356.700195312 -8 l 1
 224.700195312 -8 l 1
 224.700195312 40 l 2
 224.700195312 218 221.900390625 231 409 812 c 1
 36 821 l 1
 61 944 l 1
EndSplineSet
EndChar

StartChar: eight
Encoding: 56 56 25
Width: 753
Flags: HW
LayerCount: 2
Fore
SplineSet
388.900390625 87 m 0
 529.299804688 87 567 88 567 200 c 0
 567 218 565.700195312 238 564.400390625 262 c 0
 554 415 551.400390625 439 388.900390625 439 c 0
 219.900390625 439 193.900390625 438 193.900390625 206 c 0
 193.900390625 103 193.900390625 87 388.900390625 87 c 0
108.900390625 698 m 0
 127.900390625 929 157.900390625 941 388.900390625 941 c 0
 645 941 656 909 656 706 c 0
 656 578 647 521 604 496 c 1
 680 469 684 403 691 251 c 0
 693 220 694 193 694 168 c 0
 694 -14 640 -15 388.900390625 -15 c 0
 83.900390625 -15 81.900390625 23 81.900390625 269 c 0
 81.900390625 413 94.900390625 472 152.900390625 496 c 1
 113.900390625 513 102.900390625 545 102.900390625 600 c 0
 102.900390625 626 105.900390625 659 108.900390625 698 c 0
388.900390625 550 m 0
 529.299804688 550 551.400390625 551 551.400390625 664 c 0
 551.400390625 820 541 845 346 845 c 0
 256.299804688 845 240.700195312 838 225.099609375 688 c 0
 222.5 662 219.900390625 641 219.900390625 624 c 0
 219.900390625 562 251.099609375 550 388.900390625 550 c 0
EndSplineSet
EndChar

StartChar: nine
Encoding: 57 57 26
Width: 740
Flags: HW
LayerCount: 2
Fore
SplineSet
370.099609375 417 m 2
 389.599609375 417 410.400390625 415 431.200195312 415 c 0
 494.900390625 415 556 431 556 558 c 0
 556 576 554.700195312 595 552.099609375 618 c 0
 527.400390625 827 514.400390625 840 410.400390625 840 c 2
 366.200195312 840 l 2
 228.400390625 840 205 815 205 656 c 0
 205 449 247.900390625 417 364.900390625 417 c 2
 370.099609375 417 l 2
560 335 m 1
 560 335 414.299804688 311 314.200195312 311 c 0
 150 311 78 374 78 656 c 0
 78 900 111 941 355.799804688 941 c 2
 366.200195312 941 l 1
 380.5 941 l 2
 660 941 673 905 673 342 c 0
 673 34 660 -14 346.700195312 -15 c 0
 198 -14 168 7 87 143 c 1
 179 203 l 1
 250.5 98 275.200195312 82 346.700195312 82 c 0
 539.099609375 82 560 128 560 335 c 1
EndSplineSet
EndChar

StartChar: colon
Encoding: 58 58 27
Width: 272
Flags: W
LayerCount: 2
Fore
SplineSet
87.7998046875 0 m 1
 87.7998046875 119 l 1
 200.799804688 135 l 1
 206.799804688 0 l 1
 87.7998046875 0 l 1
85.7998046875 584 m 1
 87.7998046875 697 l 1
 206.799804688 697 l 1
 206.799804688 578 l 1
 85.7998046875 584 l 1
EndSplineSet
EndChar

StartChar: semicolon
Encoding: 59 59 28
Width: 270
Flags: W
LayerCount: 2
Fore
SplineSet
99.7998046875 127 m 1
 204.799804688 119 l 1
 204.799804688 0 l 1
 204.799804688 -25 l 2
 204.799804688 -117 200.799804688 -119 97.7998046875 -119 c 2
 85.7998046875 -119 l 1
 85.7998046875 -60 l 1
 93.7998046875 -60 l 2
 131.799804688 -60 132.799804688 -59 132.799804688 -13 c 2
 132.799804688 0 l 1
 85.7998046875 0 l 1
 99.7998046875 127 l 1
85.7998046875 578 m 1
 85.7998046875 697 l 1
 204.799804688 697 l 1
 192.799804688 574 l 1
 85.7998046875 578 l 1
EndSplineSet
EndChar

StartChar: less
Encoding: 60 60 29
Width: 679
Flags: W
LayerCount: 2
Fore
SplineSet
600.6796875 673 m 1
 627.6796875 568 l 1
 199 349 l 1
 610.6796875 150 l 1
 571.6796875 50 l 1
 78 308 l 1
 78 389 l 1
 600.6796875 673 l 1
EndSplineSet
EndChar

StartChar: equal
Encoding: 61 61 30
Width: 753
Flags: W
LayerCount: 2
Fore
SplineSet
87.099609375 540 m 1
 679.48046875 534 l 1
 694.48046875 449 l 1
 112.099609375 446 l 1
 87.099609375 540 l 1
96.099609375 290 m 1
 681.48046875 272 l 1
 700.48046875 186 l 1
 88.099609375 200 l 1
 96.099609375 290 l 1
EndSplineSet
EndChar

StartChar: greater
Encoding: 62 62 31
Width: 676
Flags: W
LayerCount: 2
Fore
SplineSet
521.280273438 359 m 1
 76.7001953125 563 l 1
 109.700195312 667 l 1
 615.280273438 406 l 1
 617.280273438 306 l 1
 103.700195312 43 l 1
 78.7001953125 130 l 1
 521.280273438 359 l 1
EndSplineSet
EndChar

StartChar: question
Encoding: 63 63 32
Width: 606
Flags: W
LayerCount: 2
Fore
SplineSet
426.780273438 683 m 0
 435.780273438 710 440.780273438 734 440.780273438 753 c 0
 440.780273438 815 395.780273438 839 332.639648438 839 c 0
 261.639648438 839 168.400390625 796 142.400390625 741 c 1
 62.400390625 777 l 1
 125.400390625 912 187.400390625 941 291.639648438 941 c 2
 307.639648438 941 l 1
 558.780273438 934 536.780273438 841 544.780273438 687 c 0
 545.780273438 675 545.780273438 664 545.780273438 656 c 0
 545.780273438 588 523.780273438 608 410.780273438 439 c 1
 359.33984375 373 347.639648438 364 347.639648438 335 c 0
 347.639648438 311 355.440429688 275 355.440429688 184 c 1
 254.639648438 178 l 1
 254.639648438 290 243.639648438 331 243.639648438 361 c 0
 243.639648438 396 258.639648438 414 318.639648438 506 c 1
 402.780273438 619 401.780273438 612 426.780273438 683 c 0
247.639648438 0 m 1
 257.639648438 99 l 1
 372.33984375 119 l 1
 372.33984375 0 l 1
 247.639648438 0 l 1
EndSplineSet
EndChar

StartChar: at
Encoding: 64 64 33
Width: 1333
Flags: HW
LayerCount: 2
Fore
SplineSet
799.869140625 413.25 m 5
 799.869140625 413.25 712.9296875 422.25 639.219726562 422.25 c 4
 562 422.25 516.369140625 403.349609375 516.369140625 277.349609375 c 4
 516.369140625 217.049804688 536.259765625 197.25 604.119140625 197.25 c 4
 621.669921875 197.25 642.73046875 198.150390625 668.469726562 200.849609375 c 4
 756.219726562 209.849609375 762.069335938 206.25 797.169921875 254.849609375 c 5
 799.869140625 413.25 l 5
721.119140625 955.950195312 m 4
 378.849609375 955.950195312 232.599609375 913.650390625 232.599609375 453.75 c 4
 232.599609375 1.9501953125 328.540039062 -45.75 709.419921875 -45.75 c 6
 764.41015625 -45.75 l 6
 902.469726562 -45.75 1076.79980469 -42.150390625 1174 32.5498046875 c 5
 1213.59960938 -68.25 l 5
 1030 -133.049804688 880.869140625 -138.450195312 709.419921875 -138.450195312 c 4
 263.01953125 -138.450195312 139 -67.349609375 139 442.950195312 c 4
 139 954.150390625 252.490234375 1041.45019531 702.399414062 1041.45019531 c 4
 1114.24023438 1041.45019531 1212.70019531 973.049804688 1212.70019531 556.349609375 c 4
 1212.70019531 171.150390625 1176.70019531 96.4501953125 973.83984375 96.4501953125 c 4
 931.719726562 96.4501953125 852.069335938 110.849609375 848.469726562 127.950195312 c 5
 840.369140625 134.25 834.969726562 145.049804688 832.26953125 164.849609375 c 5
 806.169921875 122.549804688 741.009765625 125.25 598.26953125 112.650390625 c 4
 583.060546875 111.75 569.01953125 110.849609375 556.149414062 110.849609375 c 4
 438.969726562 110.849609375 420.969726562 179.25 420.969726562 237.75 c 4
 420.969726562 249.450195312 421.869140625 261.150390625 422.76953125 271.950195312 c 4
 432.669921875 401.549804688 446.169921875 498.75 593.58984375 506.849609375 c 4
 642.73046875 509.549804688 682.509765625 510.450195312 714.099609375 510.450195312 c 4
 794.830078125 510.450195312 815.169921875 504.150390625 815.169921875 504.150390625 c 5
 803.469726562 652.650390625 817.869140625 722.849609375 670.810546875 722.849609375 c 4
 573.700195312 722.849609375 535.08984375 667.950195312 519.879882812 575.25 c 5
 423.669921875 600.450195312 l 5
 441.669921875 750.75 535.08984375 819.150390625 673.149414062 819.150390625 c 4
 680.169921875 819.150390625 688.360351562 818.25 696.549804688 818.25 c 4
 862.869140625 807.450195312 897.069335938 754.349609375 912.369140625 559.950195312 c 5
 914.169921875 221.549804688 l 5
 922.360351562 194.549804688 994.899414062 183.75 1025.31933594 182.849609375 c 5
 1107.21972656 211.650390625 1123.59960938 307.049804688 1123.59960938 561.75 c 4
 1123.59960938 912.75 979.690429688 955.950195312 721.119140625 955.950195312 c 4
EndSplineSet
EndChar

StartChar: A
Encoding: 65 65 34
Width: 915
Flags: HW
LayerCount: 2
Fore
SplineSet
281.33984375 279 m 1
 681.740234375 280 l 1
 468.540039062 779 l 1
 281.33984375 279 l 1
59.7998046875 6 m 1
 382.740234375 928 l 1
 553.040039062 927 l 1
 870.780273438 5 l 1
 778.780273438 -26 l 1
 703.83984375 193 l 1
 231.940429688 184 l 1
 167.799804688 -22 l 1
 59.7998046875 6 l 1
EndSplineSet
EndChar

StartChar: B
Encoding: 66 66 35
Width: 877
Flags: HW
LayerCount: 2
Fore
SplineSet
210 97 m 1
 441.000976562 96.9990234375 l 1
 490.000976562 96.9990234375 l 2
 530.560546875 96.9990234375 563.344726562 95.9619140625 589.693359375 95.9619140625 c 0
 667.696289062 95.9619140625 689.302734375 105.048828125 689.302734375 177.021484375 c 0
 689.302734375 182.036132812 689.198242188 187.356445312 689 193 c 0
 688 217 688 247 685 286 c 0
 680 360 643 372 418 372 c 2
 205 372 l 1
 210 97 l 1
203.000976562 465.999023438 m 1
 339.000976562 460.999023438 l 1
 569.000976562 460.999023438 606.000976562 485.999023438 606.000976562 648.999023438 c 2
 606.000976562 684.999023438 l 2
 606.000976562 824.999023438 600.000976562 829.999023438 442.000976562 829.999023438 c 2
 400.000976562 829.999023438 l 2
 312.000976562 829.999023438 282.000976562 827.999023438 197.000976562 827.999023438 c 1
 203.000976562 465.999023438 l 1
644.000976562 437.999023438 m 1
 764.000976562 427.999023438 791.000976562 391.999023438 797.000976562 268.999023438 c 0
 800.000976562 211.999023438 796.000976562 163.999023438 797.000976562 128.999023438 c 0
 797.145507812 124.606445312 797.227539062 120.337890625 797.227539062 116.19140625 c 0
 797.227539062 34.4189453125 771.3828125 -0.0009765625 562.000976562 -0.0009765625 c 2
 487.000976562 -0.0009765625 l 1
 92.0009765625 -0.0009765625 l 1
 92.0009765625 4.9990234375 l 1
 97.0009765625 926.999023438 l 1
 394.000976562 926.999023438 l 1
 465.000976562 926.999023438 l 2
 714.000976562 926.999023438 722.000976562 919.999023438 722.000976562 737.999023438 c 2
 722.000976562 689.999023438 l 2
 722.000976562 541.999023438 707.000976562 470.999023438 644.000976562 437.999023438 c 1
EndSplineSet
EndChar

StartChar: C
Encoding: 67 67 36
Width: 792
Flags: HW
LayerCount: 2
Fore
SplineSet
625.83984375 839 m 0
 598.83984375 839 548.200195312 840 493.599609375 840 c 0
 250.5 840 210.200195312 754 203.700195312 465 c 1
 203.700195312 414 l 2
 203.700195312 166 254.400390625 93 506.599609375 93 c 0
 691.83984375 93 717.83984375 94 718.83984375 97 c 2
 738.83984375 -1 l 2
 737.83984375 -8 708.83984375 -9 506.599609375 -9 c 0
 134.700195312 -9 76.7001953125 86 76.7001953125 411 c 2
 76.7001953125 465 l 1
 82.7001953125 833 130.700195312 941 485.799804688 941 c 0
 682.83984375 941 739.83984375 937 739.83984375 937 c 1
 717.83984375 844 l 2
 717.83984375 842 702.83984375 839 625.83984375 839 c 0
EndSplineSet
EndChar

StartChar: D
Encoding: 68 68 37
Width: 903
Flags: HW
LayerCount: 2
Fore
SplineSet
401.700195312 0 m 2
 92.2998046875 0 l 1
 92.2998046875 5 l 1
 97.2998046875 927 l 1
 362.700195312 927 l 2
 786.099609375 927 838.099609375 908 838.099609375 589 c 0
 838.099609375 551 837.099609375 510 836.099609375 463 c 0
 827.099609375 10 819.099609375 0 401.700195312 0 c 2
209.299804688 97 m 1
 284.700195312 97 313.299804688 96 390 96 c 0
 692.900390625 96 699.400390625 104 708.5 463 c 0
 709.799804688 504 711.099609375 540 711.099609375 573 c 0
 711.099609375 816 663 830 369.200195312 830 c 2
 197.299804688 830 l 1
 209.299804688 97 l 1
EndSplineSet
EndChar

StartChar: E
Encoding: 69 69 38
Width: 742
Flags: HW
LayerCount: 2
Fore
SplineSet
665.139648438 108 m 1
 669.139648438 -6 l 1
 99.7998046875 -6 l 1
 99.7998046875 939 l 1
 654.139648438 939 l 1
 654.139648438 836 l 1
 485.299804688 836 408.599609375 842 218.799804688 843 c 1
 218.799804688 461 l 1
 630.139648438 469 l 1
 634.139648438 469 l 1
 634.139648438 370 l 1
 630.139648438 370 l 1
 218.799804688 377 l 1
 218.799804688 99 l 1
 429.400390625 99 502.200195312 108 665.139648438 108 c 1
EndSplineSet
EndChar

StartChar: F
Encoding: 70 70 39
Width: 674
Flags: HW
LayerCount: 2
Fore
SplineSet
204 804 m 1
 200.099609375 484 l 1
 200.099609375 484 599.33984375 480 599.33984375 476 c 2
 590.33984375 378 l 1
 570.33984375 378 l 2
 495.33984375 378 401.599609375 367 200.099609375 362 c 1
 209.200195312 -19 l 1
 87.099609375 -8 l 1
 104.099609375 915 l 2
 105.099609375 914 116.099609375 913 134.099609375 913 c 0
 246.900390625 913 628.33984375 926 628.33984375 926 c 1
 628.33984375 825 l 1
 204 804 l 1
EndSplineSet
EndChar

StartChar: G
Encoding: 71 71 40
Width: 874
Flags: HW
LayerCount: 2
Fore
SplineSet
413.5 366 m 1
 413.5 467 l 1
 803.700195312 467 l 1
 803.700195312 467 806.700195312 422 806.700195312 361 c 0
 806.700195312 292 802.700195312 204 787.700195312 135 c 0
 758.700195312 5 756.700195312 -15 472 -15 c 0
 148.099609375 -15 74.099609375 31 74.099609375 287 c 0
 74.099609375 337 77.099609375 396 82.099609375 463 c 0
 111.099609375 885 151.099609375 951 430.400390625 951 c 0
 707.700195312 951 749.700195312 919 798.700195312 712 c 1
 691.700195312 680 l 1
 646.200195312 826 611.099609375 849 430.400390625 849 c 0
 264 849 232.799804688 797 202.900390625 463 c 0
 197.700195312 404 195.099609375 354 195.099609375 311 c 0
 195.099609375 121 257.5 87 472 87 c 0
 646.200195312 87 659.200195312 100 681.299804688 180 c 0
 700.700195312 260 701.700195312 366 701.700195312 366 c 1
 413.5 366 l 1
EndSplineSet
EndChar

StartChar: H
Encoding: 72 72 41
Width: 864
Flags: HW
LayerCount: 2
Fore
SplineSet
682.799804688 381 m 1
 206 388 l 1
 200 -7 l 1
 96 2 l 1
 93 469 l 1
 92 471 l 1
 93 471 l 1
 91 929 l 1
 214 922 l 1
 207 473 l 1
 684.799804688 480 l 1
 691.799804688 927 l 1
 785.799804688 927 l 1
 790.799804688 1 l 1
 676.799804688 -3 l 1
 682.799804688 381 l 1
EndSplineSet
EndChar

StartChar: I
Encoding: 73 73 42
Width: 283
Flags: HW
LayerCount: 2
Fore
SplineSet
85.7998046875 919 m 1
 85.7998046875 930 l 1
 203.799804688 924 l 1
 209.799804688 6 l 1
 215.799804688 1 l 1
 156.799804688 1 l 1
 156.799804688 3 l 1
 97.7998046875 4 l 1
 85.7998046875 919 l 1
EndSplineSet
EndChar

StartChar: J
Encoding: 74 74 43
Width: 635
Flags: HW
LayerCount: 2
Fore
SplineSet
79.2998046875 280 m 1
 197.299804688 301 l 1
 197.299804688 247 l 2
 197.299804688 113 206 107 320.799804688 96 c 0
 333.740234375 94.759765625 344.200195312 98 344.200195312 98 c 2
 454.700195312 111 457.299804688 123 457.299804688 237 c 2
 457.299804688 250 l 1
 457.299804688 284 l 1
 463.299804688 920 l 1
 565.299804688 927 l 2
 566.299804688 927 566.299804688 927 565.299804688 924 c 0
 566.299804688 922 566.299804688 922 565.299804688 922 c 2
 555.299804688 285 l 1
 555.299804688 26 545.299804688 -14 320.799804688 -15 c 2
 290.900390625 -15 l 2
 141.299804688 -15 79.2998046875 -1 79.2998046875 217 c 2
 79.2998046875 280 l 1
EndSplineSet
EndChar

StartChar: K
Encoding: 75 75 44
Width: 794
Flags: HW
LayerCount: 2
Fore
SplineSet
96.2998046875 0 m 1
 92.2998046875 926 l 1
 210.299804688 941 l 1
 212.299804688 531 l 1
 578.299804688 944 l 1
 736.540039062 927 l 1
 460 599 l 1
 759.540039062 0 l 1
 632.540039062 12 l 1
 361.200195312 497 l 1
 214.299804688 343 l 1
 214.299804688 -9 l 1
 96.2998046875 0 l 1
EndSplineSet
EndChar

StartChar: L
Encoding: 76 76 45
Width: 658
Flags: HW
LayerCount: 2
Fore
SplineSet
238.900390625 918 m 1
 238.900390625 918 238.900390625 917 240.200195312 918 c 2
 238.900390625 918 l 1
96.400390625 2 m 1
 88.400390625 931 l 1
 206.400390625 923 l 1
 222.400390625 101 l 1
 539.139648438 101 595.139648438 101 595.139648438 99 c 2
 594.139648438 99 l 1
 615.139648438 0 l 1
 225.053710938 0 l 1
 225.053710938 -2 l 1
 96.400390625 2 l 1
EndSplineSet
EndChar

StartChar: M
Encoding: 77 77 46
Width: 1048
Flags: HW
LayerCount: 2
Fore
SplineSet
99.099609375 927 m 1
 264 923 l 1
 517.700195312 202 l 1
 798.299804688 929 l 1
 896.299804688 927 l 1
 975.299804688 925 l 1
 967.700195312 -2 l 1
 855.700195312 17 l 1
 889.299804688 799 l 1
 556.700195312 0 l 1
 470.700195312 0 l 1
 468.099609375 6 l 1
 460.299804688 6 l 1
 464.200195312 17 l 1
 196.099609375 769 l 1
 208.099609375 17 l 1
 87.099609375 -2 l 1
 99.099609375 927 l 1
EndSplineSet
EndChar

StartChar: N
Encoding: 78 78 47
Width: 871
Flags: HW
LayerCount: 2
Fore
SplineSet
681.700195312 934 m 1
 793.099609375 925 l 1
 797.099609375 -1 l 1
 611.5 -7 l 1
 204.599609375 697 l 1
 217.599609375 5 l 1
 217.599609375 0 l 1
 93.599609375 0 l 1
 93.599609375 5 l 1
 94.599609375 935 l 1
 228 914 l 1
 692.099609375 142 l 1
 681.700195312 934 l 1
EndSplineSet
EndChar

StartChar: O
Encoding: 79 79 48
Width: 916
Flags: HW
LayerCount: 2
Fore
SplineSet
203.700195312 463 m 0
 203.700195312 133 238.799804688 87 479.299804688 87 c 0
 669.099609375 87 722.400390625 127 722.400390625 334 c 0
 722.400390625 372 719.799804688 414 717.200195312 463 c 0
 697.700195312 773 652.200195312 840 459.799804688 840 c 0
 249.200195312 840 203.700195312 773 203.700195312 463 c 0
498.799804688 -15 m 0
 126.700195312 -15 76.7001953125 42 76.7001953125 463 c 0
 76.7001953125 856 134.700195312 941 459.799804688 941 c 0
 768.400390625 941 826.400390625 856 845.400390625 463 c 0
 847.400390625 410 849.400390625 363 849.400390625 321 c 0
 849.400390625 40 787.400390625 -15 498.799804688 -15 c 0
EndSplineSet
EndChar

StartChar: P
Encoding: 80 80 49
Width: 740
Flags: HW
LayerCount: 2
Fore
SplineSet
206.099609375 422 m 1
 402.400390625 422 l 2
 544.099609375 422 574 430 574 557 c 0
 574 583 572.700195312 613 571.400390625 649 c 0
 562.299804688 821 554.5 830 389.400390625 830 c 2
 193.099609375 830 l 1
 206.099609375 422 l 1
87.099609375 922 m 1
 87.099609375 927 l 1
 304.900390625 927 l 2
 598 927 662 918 672 653 c 0
 674 595 676 547 676 507 c 0
 676 338 641 325 395.900390625 325 c 2
 208.700195312 325 l 1
 219.099609375 -13 l 1
 95.099609375 -8 l 1
 89.099609375 922 l 1
 87.099609375 922 l 1
EndSplineSet
EndChar

StartChar: Q
Encoding: 81 81 50
Width: 917
Flags: HW
LayerCount: 2
Fore
SplineSet
542.799804688 90 m 1
 463.5 183 l 1
 590.900390625 207 l 1
 659.799804688 127 l 1
 701.400390625 160 744.299804688 212 744.299804688 314 c 0
 744.299804688 354 736.5 409 732.599609375 464 c 0
 710.5 774 642.900390625 840 460.900390625 840 c 0
 254.200195312 840 182.700195312 783 182.700195312 473 c 0
 182.700195312 148 243.799804688 87 460.900390625 87 c 0
 490.799804688 87 518.099609375 88 542.799804688 90 c 1
76.7001953125 463 m 0
 76.7001953125 856 133.700195312 941 460.900390625 941 c 0
 767.299804688 941 823.299804688 856 845.299804688 463 c 0
 848.299804688 403 850.299804688 351 850.299804688 304 c 0
 850.299804688 141 826.299804688 59 751.299804688 19 c 1
 789.299804688 -39 l 1
 696.200195312 -90 l 1
 627.299804688 -8 l 1
 579.200195312 -13 524.599609375 -15 460.900390625 -15 c 0
 118.700195312 -15 76.7001953125 50 76.7001953125 463 c 0
EndSplineSet
EndChar

StartChar: R
Encoding: 82 82 51
Width: 752
Flags: HW
LayerCount: 2
Fore
SplineSet
211.599609375 444 m 1
 393.599609375 444 l 2
 556.099609375 444 563.900390625 454 563.900390625 649 c 0
 563.900390625 835 558.700195312 845 454.700195312 845 c 0
 345.5 845 292.200195312 837 212.900390625 833 c 1
 211.599609375 444 l 1
706.900390625 5 m 1
 708.900390625 0 l 1
 573.900390625 -5 l 1
 391 347 l 1
 211.599609375 347 l 1
 211.599609375 -8 l 1
 93.599609375 3 l 1
 93.599609375 927 l 1
 388.400390625 927 l 2
 669.900390625 927 681.900390625 914 681.900390625 649 c 0
 681.900390625 411 673.900390625 360 523.599609375 350 c 1
 706.900390625 5 l 1
EndSplineSet
EndChar

StartChar: S
Encoding: 83 83 52
Width: 779
Flags: HW
LayerCount: 2
Fore
SplineSet
79.099609375 180 m 0
 77.099609375 190 76.099609375 200 74.099609375 210 c 1
 175.099609375 237 l 1
 199.799804688 119 224.5 102 336.299804688 102 c 0
 372.700195312 102 416.900390625 103 472.799804688 104 c 0
 587.200195312 106 582 126 593.700195312 251 c 0
 595 265 596.299804688 278 596.299804688 289 c 0
 596.299804688 365 556 376 370.099609375 406 c 0
 89.099609375 455 83.099609375 471 77.099609375 690 c 0
 77.099609375 703 76.099609375 716 76.099609375 728 c 0
 76.099609375 911 123.099609375 941 364.900390625 941 c 0
 415.599609375 941 457.200195312 942 492.299804688 942 c 0
 620.299804688 942 647.299804688 926 699.299804688 773 c 0
 701.299804688 768 702.299804688 763 704.299804688 758 c 1
 596.299804688 722 l 1
 553.400390625 822 532.599609375 831 445.5 831 c 2
 364.900390625 831 l 2
 231 831 192 810 192 686 c 0
 192 673 192 657 193.299804688 641 c 0
 198.5 544 207.599609375 537 481.900390625 493 c 0
 684.299804688 457 713.299804688 444 713.299804688 307 c 0
 713.299804688 293 712.299804688 278 712.299804688 261 c 0
 706.299804688 56 699.299804688 6 426 1 c 0
 359.700195312 0 306.400390625 -2 262.200195312 -2 c 0
 136.099609375 -2 107.099609375 20 79.099609375 180 c 0
EndSplineSet
EndChar

StartChar: T
Encoding: 84 84 53
Width: 743
Flags: HW
LayerCount: 2
Fore
SplineSet
379.33984375 0 m 1
 379.33984375 -4 l 1
 320.33984375 -4 l 1
 320.33984375 835 l 1
 59.7998046875 841 l 1
 59.7998046875 884 l 1
 61.7998046875 884 l 1
 63.7998046875 927 l 1
 693.6796875 927 l 1
 693.6796875 826 l 1
 688.6796875 826 l 1
 438.33984375 831 l 1
 438.33984375 4 l 1
 379.33984375 0 l 1
EndSplineSet
EndChar

StartChar: U
Encoding: 85 85 54
Width: 824
Flags: HW
LayerCount: 2
Fore
SplineSet
204.099609375 910 m 2
 205.099609375 908 204.099609375 908 204.099609375 908 c 1
 205.099609375 380 l 2
 205.099609375 115 215.5 101 420.900390625 101 c 0
 601.599609375 101 612 115 627.599609375 381 c 1
 617.200195312 921 l 1
 753.599609375 929 l 1
 751.599609375 359 l 1
 735.599609375 3 721.599609375 -15 420.900390625 -15 c 0
 101.099609375 -15 87.099609375 3 87.099609375 359 c 2
 88.099609375 932 l 1
 204.099609375 913 l 2
 205.099609375 913 204.099609375 910 204.099609375 910 c 2
EndSplineSet
EndChar

StartChar: V
Encoding: 86 86 55
Width: 767
Flags: HW
LayerCount: 2
Fore
SplineSet
54.599609375 909 m 1
 172.599609375 936 l 1
 389.240234375 217 l 1
 618.580078125 938 l 1
 722.580078125 909 l 1
 464.639648438 0 l 1
 458.139648438 0 l 1
 459.440429688 -6 l 1
 389.240234375 0 l 1
 315.139648438 0 l 1
 317.740234375 7 l 1
 54.599609375 909 l 1
EndSplineSet
EndChar

StartChar: W
Encoding: 87 87 56
Width: 1045
Flags: HW
LayerCount: 2
Fore
SplineSet
55.900390625 911 m 1
 162.900390625 938 l 1
 332.040039062 234 l 1
 472.440429688 929 l 1
 601.139648438 934 l 1
 807.83984375 211 l 1
 890.879882812 950 l 1
 996.879882812 911 l 1
 864.879882812 -16 l 1
 728.540039062 0 l 1
 554.33984375 652 l 1
 400.940429688 16 l 1
 397.040039062 0 l 1
 260.540039062 -10 l 1
 55.900390625 911 l 1
EndSplineSet
EndChar

StartChar: X
Encoding: 88 88 57
Width: 763
Flags: HW
LayerCount: 2
Fore
SplineSet
571.280273438 943 m 1
 704.280273438 927 l 1
 473.740234375 470 l 1
 721.280273438 -20 l 1
 602.280273438 0 l 1
 403.540039062 351 l 1
 193.200195312 -14 l 1
 125.200195312 -14 l 1
 127.200195312 -9 l 1
 144.200195312 -9 l 1
 57.2001953125 0 l 1
 311.240234375 505 l 1
 95.2001953125 927 l 1
 199.200195312 935 l 1
 382.740234375 623 l 1
 571.280273438 943 l 1
EndSplineSet
EndChar

StartChar: Y
Encoding: 89 89 58
Width: 753
Flags: HW
LayerCount: 2
Fore
SplineSet
588.280273438 951 m 1
 710.280273438 919 l 1
 440.639648438 439 l 1
 438.639648438 440 l 1
 440.639648438 -5 l 1
 321.639648438 3 l 1
 323.639648438 443 l 1
 321.639648438 442 l 1
 53.2998046875 921 l 1
 171.299804688 944 l 1
 378.639648438 559 l 1
 588.280273438 951 l 1
EndSplineSet
EndChar

StartChar: Z
Encoding: 90 90 59
Width: 805
Flags: HW
LayerCount: 2
Fore
SplineSet
189.799804688 106 m 1
 760.280273438 97 l 1
 732.280273438 0 l 1
 72.7998046875 8 l 1
 72.7998046875 109 l 1
 74.7998046875 109 l 1
 562.139648438 826 l 1
 98.7998046875 826 l 1
 87.7998046875 927 l 1
 732.280273438 927 l 1
 732.280273438 826 l 1
 728.280273438 826 l 1
 189.799804688 106 l 1
EndSplineSet
EndChar

StartChar: bracketleft
Encoding: 91 91 60
Width: 378
Flags: W
LayerCount: 2
Fore
SplineSet
183.599609375 920 m 1
 196.599609375 -29 l 1
 340.599609375 -36 l 1
 329.599609375 -115 l 1
 97.599609375 -115 l 1
 93.599609375 1012 l 1
 332.599609375 1012 l 1
 320.599609375 918 l 1
 183.599609375 920 l 1
EndSplineSet
EndChar

StartChar: backslash
Encoding: 92 92 61
Width: 450
Flags: W
LayerCount: 2
Fore
SplineSet
343.400390625 0 m 1
 62.400390625 927 l 1
 166.400390625 941 l 1
 436.400390625 65 l 1
 343.400390625 0 l 1
EndSplineSet
EndChar

StartChar: bracketright
Encoding: 93 93 62
Width: 378
Flags: W
LayerCount: 2
Fore
SplineSet
171.799804688 -15 m 1
 192.799804688 922 l 1
 67.7998046875 927 l 1
 59.7998046875 1012 l 1
 298.799804688 1012 l 1
 294.799804688 -115 l 1
 62.7998046875 -115 l 1
 71.7998046875 -16 l 1
 171.799804688 -15 l 1
EndSplineSet
EndChar

StartChar: asciicircum
Encoding: 94 94 63
Width: 820
Flags: W
LayerCount: 2
Fore
SplineSet
681.080078125 339 m 1
 421.740234375 697 l 1
 158.5 336 l 1
 71.5 361 l 1
 360.639648438 823 l 1
 465.940429688 824 l 1
 768.080078125 367 l 1
 681.080078125 339 l 1
EndSplineSet
EndChar

StartChar: underscore
Encoding: 95 95 64
Width: 876
Flags: W
LayerCount: 2
Fore
SplineSet
119.700195312 -132 m 1
 102.700195312 -68 l 1
 778.6796875 -68 l 1
 796.6796875 -132 l 1
 119.700195312 -132 l 1
EndSplineSet
EndChar

StartChar: grave
Encoding: 96 96 65
Width: 340
Flags: W
LayerCount: 2
Fore
SplineSet
75.400390625 955 m 1
 161.400390625 1016 l 1
 221.400390625 928 l 1
 276.400390625 839 l 1
 206.400390625 784 l 1
 146.400390625 866 l 1
 75.400390625 955 l 1
EndSplineSet
EndChar

StartChar: a
Encoding: 97 97 66
Width: 710
Flags: HW
LayerCount: 2
Fore
SplineSet
538.299804688 307 m 1
 538.299804688 307 353.700195312 325 282.200195312 325 c 0
 200.299804688 325 186 299 175.599609375 162 c 0
 175.599609375 155 174.299804688 148 174.299804688 141 c 0
 174.299804688 85 200.299804688 70 254.900390625 70 c 0
 283.5 70 314.700195312 73 355 77 c 0
 452.5 87 526.599609375 109 539.599609375 163 c 1
 538.299804688 307 l 1
88.2998046875 568 m 1
 105.299804688 663 128.299804688 714 295.200195312 714 c 0
 314.700195312 714 335.5 713 357.599609375 712 c 0
 589.599609375 699 610.599609375 699 627.599609375 483 c 0
 636.599609375 372 638.599609375 242 638.599609375 143 c 0
 638.599609375 49 636.599609375 -18 636.599609375 -18 c 1
 571.599609375 -10 564.599609375 -11 555.599609375 -7 c 0
 547.599609375 -3 551.599609375 9 546.599609375 44 c 1
 511 -3 434.299804688 0 275.700195312 -14 c 0
 254.900390625 -16 235.400390625 -17 217.200195312 -17 c 0
 122.299804688 -17 79.2998046875 18 79.2998046875 163 c 0
 79.2998046875 403 111.299804688 418 271.799804688 422 c 1
 469.400390625 417 537 413 537 413 c 1
 521.400390625 571 545.599609375 615 357.599609375 617 c 0
 329 619 308.200195312 620 290 620 c 0
 221.099609375 620 202.900390625 602 182.099609375 540 c 1
 88.2998046875 568 l 1
EndSplineSet
EndChar

StartChar: b
Encoding: 98 98 67
Width: 720
Flags: HW
LayerCount: 2
Fore
SplineSet
201.299804688 426 m 1
 201.299804688 282 l 2
 205.200195312 109 236.400390625 80 359.900390625 80 c 0
 506.799804688 80 566.599609375 102 566.599609375 334 c 1
 549.700195312 567 489.900390625 617 359.900390625 617 c 0
 239 617 207.799804688 589 201.299804688 426 c 1
657.599609375 348 m 1
 657.599609375 34 628.599609375 -15 410.599609375 -15 c 0
 306.599609375 -15 241.599609375 -6 200.299804688 31 c 1
 200.299804688 0 l 1
 193.299804688 0 l 1
 92.2998046875 -15 l 1
 92.2998046875 -5 l 1
 95.2998046875 942 l 1
 202.599609375 913 l 1
 202.599609375 903 l 1
 201.299804688 667 l 1
 242.900390625 702 307.900390625 711 410.599609375 711 c 0
 611.599609375 711 640.599609375 662 657.599609375 348 c 1
EndSplineSet
EndChar

StartChar: c
Encoding: 99 99 68
Width: 680
Flags: HW
LayerCount: 2
Fore
SplineSet
528 155 m 1
 619 138 l 1
 597 22 592 -10 359 -10 c 0
 110.700195312 -10 90.7001953125 -7 78.7001953125 355 c 0
 77.7001953125 389 76.7001953125 421 76.7001953125 449 c 0
 76.7001953125 683 121.700195312 708 296.599609375 708 c 0
 316.099609375 708 336.900390625 707 359 707 c 0
 617 700 598 630 621 570 c 1
 531 549 l 1
 513.700195312 583 531 616 359 617 c 0
 336.900390625 617 317.400390625 618 299.200195312 618 c 0
 209.5 618 175.700195312 597 175.700195312 377 c 0
 175.700195312 107 225.099609375 84 359 84 c 0
 483.799804688 84 517.599609375 86 528 155 c 1
EndSplineSet
EndChar

StartChar: d
Encoding: 100 100 69
Width: 711
Flags: HW
LayerCount: 2
Fore
SplineSet
75.400390625 348 m 1
 92.400390625 662 121.400390625 711 314 711 c 0
 416.700195312 711 481.700195312 702 523.299804688 667 c 1
 522 903 l 1
 522 913 l 1
 629.299804688 942 l 1
 632.299804688 -5 l 1
 632.299804688 -15 l 1
 531.299804688 0 l 1
 524.299804688 0 l 1
 524.299804688 31 l 1
 483 -6 418 -15 314 -15 c 0
 104.400390625 -15 75.400390625 34 75.400390625 348 c 1
523.299804688 426 m 1
 516.799804688 589 485.599609375 617 364.700195312 617 c 0
 234.700195312 617 211.299804688 581 194.400390625 348 c 1
 194.400390625 116 217.799804688 80 364.700195312 80 c 0
 488.200195312 80 519.400390625 109 523.299804688 282 c 2
 523.299804688 426 l 1
EndSplineSet
EndChar

StartChar: e
Encoding: 101 101 70
Width: 685
Flags: HW
LayerCount: 2
Fore
SplineSet
335.400390625 624 m 2
 325 624 l 2
 206.700195312 624 180.700195312 621 180.700195312 418 c 2
 180.700195312 403 l 1
 507 396 l 1
 507 413 508.299804688 429 508.299804688 443 c 0
 508.299804688 593 479.700195312 624 335.400390625 624 c 2
180.700195312 305 m 1
 187.200195312 74 211.900390625 72 356.200195312 72 c 2
 364 72 l 2
 468 72 491.400390625 88 529.099609375 178 c 1
 630.099609375 152 l 1
 584.099609375 12 552.099609375 -12 366.599609375 -12 c 0
 115.700195312 -12 83.7001953125 -12 77.7001953125 361 c 0
 77.7001953125 385 76.7001953125 406 76.7001953125 428 c 0
 76.7001953125 708 118.700195312 711 353.599609375 716 c 0
 377 716 397.799804688 717 417.299804688 717 c 0
 576.299804688 717 602.299804688 691 602.299804688 526 c 0
 602.299804688 474 600.299804688 407 597.299804688 323 c 1
 475.799804688 317 328.900390625 311 180.700195312 305 c 1
EndSplineSet
EndChar

StartChar: f
Encoding: 102 102 71
Width: 448
Flags: HW
LayerCount: 2
Fore
SplineSet
256.900390625 696 m 1
 381.900390625 688 l 1
 390.900390625 598 l 1
 256.900390625 606 l 1
 254.900390625 -19 l 1
 153.900390625 -8 l 1
 152.900390625 613 l 1
 55.900390625 618 l 1
 66.900390625 709 l 1
 152.900390625 703 l 1
 152.900390625 762 l 1
 158.900390625 922 154.900390625 927 252.900390625 927 c 2
 274.900390625 927 l 1
 381.900390625 927 l 1
 395.900390625 833 l 1
 315.900390625 837 l 2
 306.900390625 837 298.900390625 838 291.900390625 838 c 0
 258.900390625 838 259.900390625 825 256.900390625 726 c 2
 256.900390625 696 l 1
EndSplineSet
EndChar

StartChar: g
Encoding: 103 103 72
Width: 670
Flags: HW
LayerCount: 2
Fore
SplineSet
347.299804688 613 m 2
 320 613 l 2
 203 613 180.900390625 604 180.900390625 344 c 0
 180.900390625 106 190 95 296.599609375 95 c 2
 334.299804688 95 l 1
 365.5 95 l 2
 470.799804688 95 489.700195312 103 489.700195312 304 c 0
 489.700195312 537 479.900390625 613 347.299804688 613 c 2
310.900390625 -164 m 0
 473.400390625 -164 487.700195312 -110 487.700195312 -36 c 2
 487.700195312 0 l 1
 487.700195312 0 383.700195312 -6 283.599609375 -6 c 2
 270.599609375 -6 l 2
 82.900390625 -6 82.900390625 -3 82.900390625 340 c 2
 82.900390625 352 l 2
 82.900390625 680 109.900390625 701 251.099609375 701 c 2
 331.700195312 701 l 1
 347.299804688 701 l 2
 433.099609375 701 450 700 487.700195312 667 c 1
 487.700195312 697 l 1
 595.700195312 721 l 2
 596.700195312 721 597.700195312 692 596.700195312 692 c 2
 586.700195312 -7 l 1
 574.700195312 -218 573.700195312 -230 426.599609375 -256 c 0
 404.5 -259 379.799804688 -261 355.099609375 -261 c 0
 234.200195312 -261 110.900390625 -229 68.900390625 -220 c 1
 85.900390625 -174 80.900390625 -194 102.900390625 -125 c 1
 102.900390625 -125 193.900390625 -164 310.900390625 -164 c 0
EndSplineSet
EndChar

StartChar: h
Encoding: 104 104 73
Width: 628
Flags: HW
LayerCount: 2
Fore
SplineSet
459.799804688 1 m 1
 446.799804688 492 l 1
 446.799804688 510 l 2
 446.799804688 596 428.599609375 600 331.099609375 600 c 0
 211.5 600 192 586 192 499 c 2
 192 7 l 1
 79 0 l 1
 82 957 l 1
 192 927 l 1
 192 673 l 1
 228.400390625 698 288.200195312 705 388.299804688 705 c 0
 534.799804688 705 555.799804688 694 555.799804688 492 c 2
 558.799804688 -7 l 1
 459.799804688 1 l 1
EndSplineSet
EndChar

StartChar: i
Encoding: 105 105 74
Width: 281
Flags: HW
LayerCount: 2
Fore
SplineSet
91.5 4 m 1
 95.5 705 l 1
 203.5 706 l 1
 204.5 -3 l 1
 91.5 4 l 1
84.5 790 m 1
 84.5 909 l 1
 204.5 909 l 1
 212.5 782 l 1
 84.5 790 l 1
EndSplineSet
EndChar

StartChar: j
Encoding: 106 106 75
Width: 329
Flags: HW
LayerCount: 2
Fore
SplineSet
46.7998046875 -75 m 1
 94.7998046875 -89 l 1
 140.799804688 -72 144.799804688 -76 144.799804688 -34 c 2
 144.799804688 0 l 1
 128.799804688 697 l 1
 251.799804688 697 l 1
 235.799804688 0 l 1
 235.799804688 -72 l 2
 235.799804688 -155 226.799804688 -146 125.799804688 -184 c 1
 46.7998046875 -170 l 1
 46.7998046875 -75 l 1
123.799804688 790 m 1
 123.799804688 909 l 1
 242.799804688 909 l 1
 242.799804688 790 l 1
 123.799804688 790 l 1
EndSplineSet
EndChar

StartChar: k
Encoding: 107 107 76
Width: 603
Flags: HW
LayerCount: 2
Fore
SplineSet
81.900390625 -3 m 1
 108.900390625 907 l 1
 216.900390625 919 l 1
 202.900390625 415 l 1
 457.98046875 707 l 1
 550.98046875 660 l 1
 354.139648438 437 l 1
 563.98046875 8 l 1
 446.98046875 -20 l 1
 286.540039062 352 l 1
 197.900390625 257 l 1
 189.900390625 -20 l 1
 81.900390625 -3 l 1
EndSplineSet
EndChar

StartChar: l
Encoding: 108 108 77
Width: 279
Flags: HW
LayerCount: 2
Fore
SplineSet
211.099609375 915 m 1
 211.099609375 902 l 1
 197.099609375 -12 l 1
 87.099609375 -12 l 1
 87.099609375 -7 l 1
 101.099609375 918 l 1
 156.099609375 915 l 1
 211.099609375 915 l 1
EndSplineSet
EndChar

StartChar: m
Encoding: 109 109 78
Width: 979
Flags: HW
LayerCount: 2
Fore
SplineSet
796.299804688 6 m 1
 800.299804688 492 l 2
 800.299804688 595 785.900390625 600 688.400390625 600 c 0
 571.400390625 600 553.200195312 586 553.200195312 499 c 2
 553.200195312 492 l 1
 547.200195312 -8 l 1
 444.200195312 0 l 1
 444.200195312 492 l 2
 444.200195312 595 428.599609375 600 331.099609375 600 c 0
 216.700195312 600 198.5 586 198.5 499 c 2
 198.5 6 l 1
 96.5 -10 l 1
 84.5 717 l 1
 118.5 709 l 1
 198.5 695 l 1
 198.5 673 l 1
 233.599609375 698 266.099609375 714 363.599609375 714 c 0
 461.200195312 714 519.200195312 700 538.200195312 654 c 1
 563.599609375 695 605.200195312 698 724.799804688 698 c 0
 873.299804688 698 900.299804688 694 900.299804688 492 c 1
 910.299804688 -10 l 1
 796.299804688 6 l 1
EndSplineSet
EndChar

StartChar: n
Encoding: 110 110 79
Width: 658
Flags: HW
LayerCount: 2
Fore
SplineSet
475.599609375 2 m 1
 484.700195312 502 l 1
 484.700195312 517 l 2
 484.700195312 612 458.700195312 617 320.900390625 617 c 0
 254.599609375 617 218.200195312 613 200 595 c 1
 197 6 l 1
 91 -7 l 1
 92 728 l 1
 200 707 l 1
 200 691 l 1
 240.299804688 709 301.400390625 714 396.299804688 714 c 0
 560.700195312 714 582.700195312 704 583.700195312 502 c 2
 586.700195312 -11 l 1
 475.599609375 2 l 1
EndSplineSet
EndChar

StartChar: o
Encoding: 111 111 80
Width: 691
Flags: HW
LayerCount: 2
Fore
SplineSet
79.2998046875 348 m 0
 79.2998046875 709 111.299804688 711 351.700195312 711 c 0
 621.799804688 711 622.799804688 662 622.799804688 348 c 0
 622.799804688 -13 591.799804688 -15 351.700195312 -15 c 0
 80.2998046875 -15 79.2998046875 34 79.2998046875 348 c 0
351.700195312 71 m 0
 494.700195312 71 516.799804688 72 516.799804688 348 c 0
 516.799804688 589 515.5 626 351.700195312 626 c 0
 207.400390625 626 185.299804688 626 185.299804688 348 c 0
 185.299804688 108 186.599609375 71 351.700195312 71 c 0
EndSplineSet
EndChar

StartChar: p
Encoding: 112 112 81
Width: 721
Flags: HW
LayerCount: 2
Fore
SplineSet
89.7001953125 -201 m 1
 92.7001953125 733 l 1
 192.700195312 706 l 1
 192.700195312 658 l 1
 229.299804688 701 296.900390625 705 412.599609375 711 c 0
 430.799804688 712 449 713 464.599609375 713 c 0
 611.5 713 635.5 648 651.5 361 c 0
 654.5 309 656.5 264 656.5 225 c 0
 656.5 21 609.5 -15 412.599609375 -15 c 0
 303.400390625 -15 237.099609375 -15 198.700195312 25 c 1
 200.700195312 -206 l 1
 89.7001953125 -201 l 1
359.299804688 79 m 0
 506.200195312 79 546.5 101 546.5 231 c 0
 546.5 254 545.200195312 281 542.599609375 311 c 0
 524.400390625 565 502.299804688 618 387.900390625 618 c 0
 380.099609375 618 372.299804688 617 363.200195312 617 c 0
 222.799804688 609 200.700195312 607 200.700195312 348 c 0
 200.700195312 80 222.799804688 79 359.299804688 79 c 0
EndSplineSet
EndChar

StartChar: q
Encoding: 113 113 82
Width: 727
Flags: HW
LayerCount: 2
Fore
SplineSet
541.099609375 332 m 0
 541.099609375 568 520.299804688 618 396.799804688 618 c 0
 387.700195312 618 378.599609375 617 368.200195312 617 c 0
 243.400390625 610 191.400390625 584 191.400390625 441 c 0
 191.400390625 414 192.700195312 383 196.599609375 348 c 0
 218.700195312 123 242.099609375 88 321.400390625 88 c 0
 511.200195312 88 541.099609375 121 541.099609375 332 c 0
78.400390625 348 m 0
 76.400390625 383 75.400390625 415 75.400390625 444 c 0
 75.400390625 661 126.400390625 700 318.799804688 711 c 0
 340.900390625 712 361.700195312 713 379.900390625 713 c 0
 457.900390625 713 508.599609375 701 541.099609375 665 c 1
 541.099609375 697 l 1
 649.099609375 713 l 1
 649.099609375 -177 l 1
 541.099609375 -207 l 1
 541.099609375 45 l 1
 500.799804688 -3 433.200195312 -15 318.799804688 -15 c 0
 136.400390625 -15 92.400390625 46 78.400390625 348 c 0
EndSplineSet
EndChar

StartChar: r
Encoding: 114 114 83
Width: 466
Flags: HW
LayerCount: 2
Fore
SplineSet
414.700195312 706 m 1
 414.700195312 608 l 1
 403.700195312 609 390.700195312 610 376.700195312 610 c 0
 304.700195312 610 203.700195312 588 196.700195312 525 c 1
 200.700195312 -2 l 1
 91.7001953125 -9 l 1
 89.7001953125 725 l 1
 196.700195312 705 l 1
 196.700195312 675 l 1
 219.700195312 695 322.700195312 708 382.700195312 708 c 0
 395.700195312 708 406.700195312 707 414.700195312 706 c 1
EndSplineSet
EndChar

StartChar: s
Encoding: 115 115 84
Width: 651
Flags: HW
LayerCount: 2
Fore
SplineSet
72.599609375 131 m 1
 72.599609375 132 l 2
 70.599609375 145 69.599609375 160 67.599609375 177 c 1
 179.599609375 187 l 1
 188.599609375 79 187.599609375 73 312.900390625 73 c 0
 433.799804688 73 472.799804688 96 472.799804688 180 c 2
 472.799804688 202 l 2
 472.799804688 265 466.299804688 278 333.700195312 300 c 0
 123.599609375 335 102.599609375 360 102.599609375 507 c 0
 102.599609375 677 129.599609375 706 337.599609375 706 c 2
 370.099609375 706 l 2
 511.799804688 706 552.799804688 703 565.799804688 591 c 1
 565.799804688 590 l 1
 569.799804688 557 569.799804688 543 569.799804688 543 c 1
 478.799804688 526 l 1
 478.799804688 535 l 2
 478.799804688 613 448.099609375 615 354.5 615 c 2
 335 615 l 2
 224.5 615 194.599609375 607 194.599609375 518 c 0
 194.599609375 434 244 419 379.200195312 397 c 0
 573.799804688 363 582.799804688 339 582.799804688 231 c 2
 582.799804688 190 l 2
 582.799804688 20 553.799804688 -7 333.700195312 -7 c 2
 285.599609375 -7 l 2
 124.599609375 -7 90.599609375 -2 72.599609375 131 c 1
EndSplineSet
EndChar

StartChar: t
Encoding: 116 116 85
Width: 437
Flags: HW
LayerCount: 2
Fore
SplineSet
371.799804688 697 m 1
 371.799804688 607 l 1
 252.799804688 611 l 1
 252.799804688 150 l 2
 255.799804688 93 251.799804688 84 264.799804688 84 c 0
 267.799804688 84 271.799804688 85 276.799804688 85 c 2
 370.799804688 94 l 1
 371.799804688 -9 l 1
 226.799804688 -9 l 1
 192.799804688 -9 l 2
 133.799804688 -9 154.799804688 -1 146.799804688 121 c 1
 146.799804688 614 l 1
 59.7998046875 617 l 1
 59.7998046875 697 l 1
 146.799804688 697 l 1
 146.799804688 878 l 1
 252.799804688 887 l 1
 252.799804688 697 l 1
 371.799804688 697 l 1
EndSplineSet
EndChar

StartChar: u
Encoding: 117 117 86
Width: 640
Flags: HW
LayerCount: 2
Fore
SplineSet
457.099609375 210 m 2
 457.099609375 693 l 1
 565.099609375 709 l 1
 566.099609375 -5 l 1
 566.099609375 -15 l 1
 463.099609375 -38 l 1
 457.099609375 5 l 1
 457.099609375 25 l 1
 425.900390625 -7 410.299804688 -15 312.799804688 -15 c 0
 98.099609375 -15 87.099609375 -5 87.099609375 198 c 2
 88.099609375 701 l 1
 196.099609375 685 l 1
 197.099609375 198 l 1
 197.099609375 150 l 2
 197.099609375 93 207.5 90 318 90 c 0
 438.900390625 90 457.099609375 106 457.099609375 210 c 2
EndSplineSet
EndChar

StartChar: v
Encoding: 118 118 87
Width: 630
Flags: HW
LayerCount: 2
Fore
SplineSet
55.900390625 697 m 1
 166.900390625 681 l 1
 341.139648438 153 l 1
 483.280273438 689 l 1
 578.280273438 697 l 1
 413.940429688 -18 l 1
 269.639648438 0 l 1
 55.900390625 697 l 1
EndSplineSet
EndChar

StartChar: w
Encoding: 119 119 88
Width: 941
Flags: HW
LayerCount: 2
Fore
SplineSet
600 0 m 2
 469.840820312 508 l 1
 352.840820312 -12 l 1
 209.80078125 0 l 1
 59.80078125 692 l 1
 160.80078125 708 l 1
 282.640625 124 l 1
 410.041015625 697 l 1
 519.241210938 700 l 1
 667.840820312 126 l 1
 803.28125 720 l 1
 890.28125 697 l 1
 708.840820312 0 l 2
 708.840820312 0.0908203125 696.858398438 0.12109375 680.844726562 0.12109375 c 0
 648.818359375 0.12109375 600.666992188 0 600 0 c 2
EndSplineSet
EndChar

StartChar: x
Encoding: 120 120 89
Width: 692
Flags: HW
LayerCount: 2
Fore
SplineSet
543.98046875 723 m 1
 641.98046875 684 l 1
 443.83984375 381 l 1
 639.98046875 10 l 1
 539.98046875 -23 l 1
 367.139648438 284 l 1
 367.139648438 284 174.200195312 -2 173.200195312 -4 c 2
 57.2001953125 14 l 1
 293.040039062 360 l 1
 88.2001953125 699 l 1
 215.040039062 699 l 1
 364.540039062 462 l 1
 543.98046875 723 l 1
EndSplineSet
EndChar

StartChar: y
Encoding: 121 121 90
Width: 632
Flags: HW
LayerCount: 2
Fore
SplineSet
57.2001953125 690 m 1
 177.200195312 718 l 1
 302.139648438 162 l 1
 456.48046875 721 l 1
 583.48046875 689 l 1
 287.83984375 -252 l 1
 157.200195312 -234 l 1
 250.139648438 7 l 1
 57.2001953125 690 l 1
EndSplineSet
EndChar

StartChar: z
Encoding: 122 122 91
Width: 530
Flags: HW
LayerCount: 2
Fore
SplineSet
99.2001953125 697 m 1
 469 694 l 1
 465 616 l 1
 191 98 l 1
 471.200195312 100 l 1
 471.200195312 0 l 1
 70.2001953125 0 l 1
 70.2001953125 70 l 1
 319.200195312 606 l 1
 99.2001953125 597 l 1
 99.2001953125 697 l 1
EndSplineSet
EndChar

StartChar: braceleft
Encoding: 123 123 92
Width: 383
Flags: W
LayerCount: 2
Fore
SplineSet
321.799804688 1035 m 1
 313.799804688 925 l 1
 256.799804688 921 l 1
 234.799804688 913 229.799804688 892 229.799804688 850 c 0
 229.799804688 818 232.799804688 776 232.799804688 718 c 0
 232.799804688 582 234.799804688 572 236.799804688 563 c 0
 230.799804688 536 245.799804688 468 191.799804688 451 c 1
 237.799804688 436 240.799804688 422 240.799804688 372 c 2
 240.799804688 340 l 1
 238.799804688 68 l 1
 242.799804688 26 233.799804688 -14 274.799804688 -17 c 2
 337.799804688 -18 l 1
 318.799804688 -121 l 1
 247.799804688 -115 l 2
 204.799804688 -112 139.799804688 -86 139.799804688 32 c 2
 135.799804688 314 l 2
 135.799804688 375 124.799804688 435 69.7998046875 435 c 2
 59.7998046875 435 l 1
 59.7998046875 487 l 1
 69.7998046875 487 l 2
 119.799804688 487 133.799804688 537 133.799804688 554 c 2
 133.799804688 578 l 2
 133.799804688 623 132.799804688 716 127.799804688 798 c 0
 127.799804688 853 125.799804688 895 125.799804688 928 c 0
 125.799804688 1018 139.799804688 1035 247.799804688 1035 c 2
 321.799804688 1035 l 1
EndSplineSet
EndChar

StartChar: bar
Encoding: 124 124 93
Width: 247
Flags: W
LayerCount: 2
Fore
SplineSet
81.599609375 977 m 1
 191.599609375 991 l 1
 186.599609375 -234 l 1
 67.599609375 -272 l 1
 81.599609375 977 l 1
EndSplineSet
EndChar

StartChar: braceright
Encoding: 125 125 94
Width: 434
Flags: W
LayerCount: 2
Fore
SplineSet
62.400390625 1009 m 1
 151.400390625 1009 l 2
 275.400390625 1009 271.400390625 905 273.400390625 799 c 1
 294.400390625 559 l 1
 294.400390625 494 304.400390625 494 374.400390625 494 c 2
 386.400390625 494 l 1
 386.400390625 428 l 1
 374.400390625 428 l 2
 311.400390625 428 293.400390625 401 285.400390625 353 c 1
 282.400390625 52 l 2
 282.400390625 -75 216.400390625 -87 151.400390625 -97 c 1
 62.400390625 -97 l 1
 64.400390625 -6 l 1
 140.400390625 -5 l 1
 140.400390625 -5 143.400390625 -6 148.400390625 -6 c 0
 164.400390625 -6 196.400390625 1 196.400390625 53 c 1
 172.400390625 338 l 2
 171.400390625 348 171.400390625 358 171.400390625 366 c 0
 171.400390625 424 190.400390625 436 248.400390625 452 c 1
 182.400390625 471 179.400390625 498 179.400390625 580 c 2
 174.400390625 786 l 2
 174.400390625 856 171.400390625 919 123.400390625 919 c 1
 70.400390625 906 l 1
 62.400390625 1009 l 1
EndSplineSet
EndChar

StartChar: asciitilde
Encoding: 126 126 95
Width: 676
Flags: W
LayerCount: 2
Fore
SplineSet
172.799804688 365 m 1
 85.7998046875 351 l 1
 85.7998046875 489 100.799804688 511 224.799804688 511 c 0
 422.400390625 511 344.400390625 412 477 412 c 0
 510.799804688 412 521.200195312 429 521.200195312 492 c 1
 612.200195312 496 l 1
 612.200195312 358 594.200195312 336 470.5 336 c 0
 272.900390625 336 360 431 228.700195312 431 c 0
 194.900390625 431 172.799804688 428 172.799804688 365 c 1
EndSplineSet
EndChar

StartChar: exclamdown
Encoding: 161 161 97
Width: 285
Flags: W
LayerCount: 2
Fore
SplineSet
211 -180 m 1
 91 -168 l 1
 91 210 l 1
 111 553 l 1
 194 557 l 1
 219 224 l 1
 211 -180 l 1
92 646 m 1
 96 769 l 1
 215 769 l 1
 215 650 l 1
 92 646 l 1
EndSplineSet
EndChar

StartChar: cent
Encoding: 162 162 98
Width: 679
Flags: W
LayerCount: 2
Fore
SplineSet
323 82 m 1
 303.099609375 624 l 1
 205.599609375 621 180.900390625 586 180.900390625 348 c 0
 180.900390625 115 225 85 323 82 c 1
496.010742188 500.748046875 m 1
 488.11328125 567.401367188 489.768554688 621 401.100585938 621 c 0
 397.100585938 621 389.100585938 620 389.100585938 620 c 1
 393.600585938 82 l 1
 483.30078125 86 527.500976562 94 534.000976562 172 c 1
 628.000976562 134 l 1
 596.000976562 22 581.000976562 1 393.600585938 -15 c 1
 409.201171875 -78 l 1
 322.600585938 -75 l 1
 322.600585938 -15 l 1
 111.901367188 -13 81.9013671875 9 81.9013671875 348 c 0
 81.9013671875 687 96.9013671875 714 303.100585938 716 c 1
 305.100585938 776 l 1
 389.100585938 772 l 1
 389.100585938 711 l 1
 577.842773438 711 588.15625 580.887695312 588.15625 552.448242188 c 0
 588.15625 548.958984375 588.000976562 547 588.000976562 547 c 1
 588.000976562 547 510.26171875 506.8203125 496.010742188 500.748046875 c 1
EndSplineSet
EndChar

StartChar: sterling
Encoding: 163 163 99
Width: 665
Flags: W
LayerCount: 2
Fore
SplineSet
159 521 m 1
 122 596 88.59765625 642.000976562 87.59765625 750.000976562 c 1
 110.228515625 955.235351562 177.313476562 968.038085938 264.046875 968.038085938 c 0
 276.41015625 968.038085938 289.172851562 967.778320312 302.262695312 967.778320312 c 0
 315.01953125 967.778320312 328.086914062 968.025390625 341.3984375 969.000976562 c 0
 347.8984375 969.000976562 355.71875 970.404296875 362.198242188 970.000976562 c 0
 521.837890625 959.000976562 618.837890625 884.000976562 618.837890625 881.000976562 c 2
 618.837890625 881.000976562 614.837890625 876.000976562 540.837890625 815.000976562 c 1
 513.837890625 833.000976562 478.837890625 868.000976562 346.59765625 868.000976562 c 2
 329.698242188 868.000976562 l 2
 242.59765625 866.000976562 198.59765625 863.000976562 198.59765625 751.000976562 c 2
 198.59765625 740.000976562 l 2
 198.59765625 635.000976562 238.59765625 614.000976562 281.59765625 523.000976562 c 1
 298.09765625 525.000976562 360.158203125 525.500976562 418.09375 525.500976562 c 0
 476.029296875 525.500976562 529.83984375 525.000976562 529.83984375 525.000976562 c 1
 552.83984375 427.000976562 l 1
 315.599609375 427.000976562 l 1
 318.34765625 409.595703125 320.659179688 392.1875 320.659179688 372.477539062 c 0
 320.659179688 370.671875 320.639648438 368.846679688 320.599609375 367.000976562 c 0
 317.599609375 188.000976562 293.599609375 155.000976562 264.599609375 83.0009765625 c 1
 582.83984375 87.0009765625 l 1
 604.83984375 -10.9990234375 l 1
 100.599609375 -10.9990234375 l 1
 100.599609375 -10.9990234375 117.599609375 31.0009765625 129.599609375 59.0009765625 c 1
 127.599609375 59.0009765625 l 1
 171.599609375 171.000976562 173.599609375 134.000976562 200.599609375 373.000976562 c 0
 201.108398438 377.504882812 201.334960938 381.918945312 201.334960938 386.23828125 c 0
 201.334960938 400.98046875 198.693359375 414.625976562 195.599609375 427 c 1
 67.599609375 427 l 1
 76.599609375 520 l 1
 76.599609375 520 111 520 159 521 c 1
EndSplineSet
EndChar

StartChar: currency
Encoding: 164 164 100
Width: 911
Flags: W
LayerCount: 2
Fore
SplineSet
66.2998046875 372 m 1
 71.2998046875 428 l 1
 125.299804688 433 l 1
 125.299804688 463 l 1
 125.299804688 493 l 1
 75.2998046875 493 l 1
 84.2998046875 555 l 1
 127.299804688 557 l 1
 136.299804688 855 249.299804688 931 529.799804688 935 c 1
 557.682617188 935 l 2
 853.98046875 935 851.98046875 844 862.98046875 843 c 1
 826.98046875 826 786.98046875 770 786.98046875 770 c 1
 764.98046875 802 735.98046875 848 557.682617188 848 c 0
 541.749023438 848 524.48828125 848 507.227539062 847 c 0
 347.897460938 841 241.299804688 776 234.299804688 556 c 1
 597.514648438 555 l 1
 582.909179688 508 l 1
 252.299804688 493 l 1
 252.299804688 483 246.299804688 473 246.299804688 463 c 0
 246.299804688 453 252.299804688 443 252.299804688 433 c 1
 585.564453125 426 l 1
 606.80859375 377 l 1
 231.299804688 361 l 1
 237.139648438 221 330.740234375 94 538.740234375 94 c 0
 738.98046875 94 734.98046875 130 742.98046875 139 c 1
 835.98046875 102 l 1
 824.98046875 98 820.98046875 -15 533.540039062 -15 c 0
 195.299804688 -15 162.299804688 118 123.299804688 352 c 1
 66.2998046875 372 l 1
EndSplineSet
EndChar

StartChar: yen
Encoding: 165 165 101
Width: 766
Flags: W
LayerCount: 2
Fore
SplineSet
597.98046875 951 m 1
 719.98046875 919 l 1
 450.33984375 439 l 1
 448.040039062 440 l 1
 449.040039062 364 l 1
 606.98046875 368 l 1
 606.98046875 282 l 1
 449.040039062 282 l 1
 449.040039062 239 l 1
 601.98046875 242 l 1
 610.98046875 164 l 1
 610.98046875 164 545.240234375 165 449.040039062 165 c 1
 450.33984375 -5 l 1
 330.740234375 3 l 1
 330.740234375 3 330.740234375 78 332.040039062 167 c 1
 238.440429688 167 173.400390625 168 173.400390625 168 c 1
 173.400390625 234 l 1
 332.040039062 237 l 1
 332.040039062 282 l 1
 173.400390625 282 l 1
 177.400390625 356 l 1
 333.040039062 360 l 1
 333.040039062 443 l 1
 330.740234375 442 l 1
 62.400390625 921 l 1
 180.400390625 944 l 1
 388.040039062 559 l 1
 597.98046875 951 l 1
EndSplineSet
EndChar

StartChar: brokenbar
Encoding: 166 166 102
Width: 247
Flags: W
LayerCount: 2
Fore
SplineSet
103 458 m 1
 177 465 l 1
 173 -73 l 1
 93 -80 l 1
 103 458 l 1
91 1042 m 1
 169 1034 l 1
 173 518 l 1
 99 510 l 1
 91 1042 l 1
EndSplineSet
EndChar

StartChar: section
Encoding: 167 167 103
Width: 755
Flags: HW
LayerCount: 2
Fore
SplineSet
388 372 m 1
 447.669921875 385.5 473.870117064 425.299804688 473.870117188 454.099609375 c 0
 473.870117342 490.293416705 436.429683999 527.900390625 390.799804688 527.900390625 c 2
 386.120117188 527.900390625 l 2
 312.41015625 527.900390625 289.009765625 491 289.009765625 459.5 c 0
 289.009765625 441.5 289.185665382 420.386815039 296 412 c 0
 313.549804688 390.400390625 351.73046875 372 388 372 c 1
110 163 m 1
 259.240234375 113 302.100585938 95 462 92 c 1
 576.400390625 94 593.625 119.602539062 619 242 c 0
 636 324 589 371 543.940429688 358 c 1
 507.540039062 317 449.040039062 290 381.440429688 290 c 0
 277.440429688 290 201 355 195 437 c 1
 85 472 78 519 78 690 c 0
 78 907 111 941 348.940429688 941 c 2
 390.540039062 941 l 2
 447.740234375 941 518.200195312 928 658 888 c 1
 619.740234375 792 l 1
 538 832 506.599609375 842 348 842 c 0
 207.059570312 842 180 828 180 664 c 0
 180 614 163 560 224 545 c 1
 257.940429688 585 316.440429688 610 381.440429688 610 c 0
 480.240234375 610 563.440429688 551 577.740234375 473 c 1
 688.740234375 444 709.698261474 408.300474671 699.740234375 259 c 0
 685 38 682.740234375 6 410.040039062 1 c 1
 154 4 86 58 86 58 c 1
 110 163 l 1
EndSplineSet
EndChar

StartChar: dieresis
Encoding: 168 168 104
Width: 432
Flags: HWO
LayerCount: 2
Fore
SplineSet
243 1080 m 5
 366.299804688 1064 l 5
 366.299804688 928 l 5
 230.299804688 928 l 5
 243 1080 l 5
72.2998046875 1076 m 5
 183 1080 l 5
 180 930 l 5
 72.2998046875 930 l 5
 72.2998046875 1076 l 5
EndSplineSet
EndChar

StartChar: copyright
Encoding: 169 169 105
Width: 1021
Flags: W
LayerCount: 2
Fore
SplineSet
629 257 m 1
 691 241.001953125 l 1
 650.592773438 143.028320312 665.966796875 148.686523438 523 139.001953125 c 0
 358.078125 127.830078125 333.873046875 180.923828125 330.799804688 368.000976562 c 0
 327.296875 581.243164062 357.096679688 603.22265625 462.099609375 609 c 0
 487.946289062 610.421875 509.848632812 610.196289062 528 610 c 0
 638.897460938 608.801757812 672.099609375 593 695 534 c 0
 698.658203125 524.575195312 711 490 706 444 c 1
 635 439 l 1
 629.900390625 492 l 2
 625.6015625 536.680664062 527.443359375 523 514.19921875 523 c 2
 496 523 l 2
 431 523 405.794921875 515.172851562 412.799804688 368 c 0
 420.374023438 208.853515625 430.614257812 188.442382812 521 199 c 0
 602.666992188 208.5390625 611.416992188 208.577148438 629 257 c 1
174 369.001953125 m 0
 174 190.001953125 323 42.001953125 516.799804688 42.001953125 c 0
 710.799804688 42.001953125 838 190.001953125 838 369.001953125 c 0
 838 548.001953125 696.900390625 696.001953125 499.900390625 696.001953125 c 0
 306.099609375 696.001953125 174 549.001953125 174 369.001953125 c 0
520.700195312 762.001953125 m 0
 768 762.001953125 916 587.001953125 916 369.001953125 c 0
 916 151.001953125 768 -25.998046875 520.700195312 -25.998046875 c 0
 274.900390625 -25.998046875 110 147.001953125 110 365.001953125 c 0
 110 583.001953125 274.900390625 762.001953125 520.700195312 762.001953125 c 0
EndSplineSet
EndChar

StartChar: ordfeminine
Encoding: 170 170 106
Width: 705
Flags: W
LayerCount: 2
Fore
SplineSet
450.95703125 785.700195312 m 1
 450.95703125 785.700195312 398.307617188 790.650390625 359.698242188 792.900390625 c 0
 350.337890625 793.349609375 342.732421875 793.799804688 335.712890625 793.799804688 c 0
 298.857421875 793.799804688 292.422851562 782.099609375 287.7421875 720.450195312 c 0
 287.7421875 717.299804688 287.157226562 714.150390625 287.157226562 711 c 0
 287.157226562 685.799804688 298.857421875 679.049804688 323.426757812 679.049804688 c 0
 336.297851562 679.049804688 350.337890625 680.400390625 368.47265625 682.200195312 c 0
 412.34765625 686.700195312 445.692382812 696.599609375 451.54296875 720.900390625 c 1
 450.95703125 785.700195312 l 1
248.45703125 900 m 1
 256.107421875 942.75 266.45703125 965.700195312 341.5625 965.700195312 c 0
 350.337890625 965.700195312 359.698242188 965.25 369.642578125 964.799804688 c 0
 474.04296875 958.950195312 483.4921875 958.950195312 491.142578125 861.75 c 0
 495.192382812 811.799804688 496.092773438 753.299804688 496.092773438 708.75 c 0
 496.092773438 666.450195312 495.192382812 636.299804688 495.192382812 636.299804688 c 1
 465.942382812 639.900390625 462.79296875 639.450195312 458.7421875 641.25 c 0
 455.142578125 643.049804688 456.942382812 648.450195312 454.692382812 664.200195312 c 1
 438.672851562 643.049804688 404.7421875 643.950195312 333.373046875 637.650390625 c 0
 324.012695312 636.75 314.65234375 636.75 306.462890625 636.75 c 0
 263.7578125 636.75 244.407226562 652.5 244.407226562 717.75 c 0
 244.407226562 825.75 258.807617188 832.5 331.032226562 834.299804688 c 0
 419.952148438 832.049804688 450.373046875 830.25 450.373046875 830.25 c 1
 443.352539062 901.349609375 454.2421875 921.150390625 369.642578125 922.049804688 c 0
 356.772460938 922.950195312 347.412109375 923.400390625 339.22265625 923.400390625 c 0
 308.217773438 923.400390625 300.02734375 915.75 290.66796875 887.849609375 c 1
 248.45703125 900 l 1
EndSplineSet
EndChar

StartChar: guillemotleft
Encoding: 171 171 107
Width: 591
Flags: W
LayerCount: 2
Fore
SplineSet
230.639648438 648 m 1
 338.540039062 630 l 1
 167.799804688 348 l 1
 351.540039062 87 l 1
 256.639648438 63 l 1
 72.7998046875 348 l 1
 230.639648438 648 l 1
451.98046875 656 m 1
 537.98046875 630 l 1
 373.639648438 348 l 1
 519.98046875 91 l 1
 441.98046875 67 l 1
 270.940429688 348 l 1
 451.98046875 656 l 1
EndSplineSet
EndChar

StartChar: logicalnot
Encoding: 172 172 108
Width: 645
Flags: W
LayerCount: 2
Fore
SplineSet
567.639648438 127 m 1
 451.639648438 139 l 1
 451.639648438 278 l 1
 81.900390625 251 l 1
 94.900390625 372 l 1
 461.639648438 376 l 1
 577.639648438 380 l 1
 573.639648438 278 l 1
 567.639648438 127 l 1
EndSplineSet
EndChar

StartChar: registered
Encoding: 174 174 110
Width: 1069
Flags: W
LayerCount: 2
Fore
SplineSet
524.900390625 760 m 0
 790.984375 760 947 581 947 363 c 1
 927.200195312 145 795.299804688 -28 524.900390625 -28 c 0
 274.299804688 -28 123 149 123 367 c 0
 123 585 274.299804688 760 524.900390625 760 c 0
431.299804688 369 m 1
 534 369 l 2
 625 369 630.200195312 374 630.200195312 463 c 0
 630.200195312 549 626.299804688 553 567.799804688 553 c 0
 506.700195312 553 475.5 550 431.299804688 548 c 1
 431.299804688 369 l 1
734.200195312 168 m 1
 734.200195312 167 l 1
 735.5 166 l 1
 636.700195312 163 l 1
 532.700195312 325 l 1
 530.099609375 325 l 1
 431.299804688 325 l 1
 431.299804688 162 l 1
 398.299804688 164 l 1
 365.299804688 167 l 1
 365.299804688 169 l 1
 365.299804688 589 l 1
 365.299804688 591 l 1
 382.299804688 591 l 1
 398.299804688 591 l 1
 431.299804688 591 l 1
 531.400390625 591 l 2
 689.200195312 591 696.200195312 585 696.200195312 463 c 0
 696.200195312 354 691.200195312 331 606.799804688 326 c 1
 734.200195312 168 l 1
197 363 m 0
 197 184 325 40 523.599609375 40 c 0
 740.700195312 40 853.200195312 192 873 371 c 1
 873 550 705.5234375 694 506.700195312 694 c 0
 308.099609375 694 197 543 197 363 c 0
EndSplineSet
EndChar

StartChar: macron
Encoding: 175 175 111
Width: 651
Flags: W
LayerCount: 2
Fore
SplineSet
104 1126 m 1
 570.48046875 1126 l 1
 570.48046875 998 l 1
 116 1024 l 1
 104 1126 l 1
EndSplineSet
EndChar

StartChar: degree
Encoding: 176 176 112
Width: 397
Flags: W
LayerCount: 2
Fore
SplineSet
81.900390625 808 m 1
 81.900390625 822 l 2
 81.900390625 882 107.900390625 965 206.900390625 965 c 0
 328.900390625 965 323.900390625 878 329.900390625 808 c 0
 330.900390625 801 330.900390625 794 330.900390625 787 c 0
 330.900390625 722 303.900390625 651 206.900390625 651 c 0
 83.900390625 651 85.900390625 748 81.900390625 808 c 1
202.900390625 708 m 0
 260.900390625 708 269.900390625 726 271.900390625 800 c 2
 271.900390625 806 l 2
 271.900390625 869 245.900390625 905 215.900390625 905 c 0
 212.900390625 905 209.900390625 905 206.900390625 904 c 0
 174.900390625 897 135.900390625 879 135.900390625 818 c 0
 135.900390625 812 135.900390625 806 136.900390625 800 c 0
 144.900390625 724 144.900390625 708 202.900390625 708 c 0
EndSplineSet
EndChar

StartChar: plusminus
Encoding: 177 177 113
Width: 794
Flags: W
LayerCount: 2
Fore
SplineSet
217.900390625 25 m 1
 217.900390625 76 l 1
 568.080078125 100 l 1
 568.080078125 19 l 1
 217.900390625 25 l 1
346.33984375 382 m 1
 68.900390625 391 l 1
 68.900390625 449 l 1
 343.740234375 457 l 1
 335.940429688 695 l 1
 429.5859375 695 l 1
 420.838867188 459 l 1
 737.379882812 463 l 1
 737.379882812 371 l 1
 417.33984375 379 l 1
 432.139648438 142 l 1
 352.83984375 142 l 1
 346.33984375 382 l 1
EndSplineSet
EndChar

StartChar: Superscripttwo
Encoding: 178 178 114
Width: 352
Flags: W
LayerCount: 2
Fore
SplineSet
80.599609375 608 m 1
 80.599609375 634 l 2
 80.599609375 727 84.599609375 712 147.599609375 754 c 0
 220.599609375 803 231.599609375 817 231.599609375 858 c 0
 231.599609375 920 225.599609375 930 183.599609375 930 c 0
 141.599609375 930 134.599609375 924 134.599609375 885 c 0
 134.599609375 863 133.599609375 856 131.599609375 856 c 2
 129.599609375 858 l 1
 81.599609375 879 l 1
 81.599609375 885 l 2
 81.599609375 956 95.599609375 967 182.599609375 967 c 0
 269.599609375 967 283.599609375 952 283.599609375 853 c 0
 282.599609375 801 273.599609375 786 212.599609375 745 c 0
 149.599609375 702 139.599609375 709 138.599609375 651 c 1
 272.599609375 649 l 1
 289.599609375 608 l 1
 138.599609375 608 l 1
 80.599609375 608 l 1
EndSplineSet
EndChar

StartChar: Superscriptthree
Encoding: 179 179 115
Width: 371
Flags: W
LayerCount: 2
Fore
SplineSet
78 716 m 1
 132 713 l 1
 136 668 144 661 192 661 c 0
 241 661 249 670 249 725 c 0
 249 782 240 791 181 791 c 2
 154 791 l 1
 154 812 l 1
 153 829 l 1
 184 829 l 2
 229 829 237 837 243 888 c 0
 244 898 245 905 245 912 c 0
 245 941 231 946 183 946 c 0
 141 946 134 942 131 916 c 1
 78 918 l 1
 86 976 100 985 185 985 c 0
 270 985 296 976 296 926 c 0
 296 916 294 904 292 891 c 0
 285 837 277 825 233 814 c 1
 295 801 305 787 305 724 c 0
 305 633 290 619 192 619 c 0
 100 619 85 632 78 716 c 1
EndSplineSet
EndChar

StartChar: acute
Encoding: 180 180 116
Width: 294
Flags: W
LayerCount: 2
Fore
SplineSet
127.599609375 923 m 1
 234.599609375 872 l 1
 151.599609375 695 l 1
 80.599609375 726 l 1
 127.599609375 923 l 1
EndSplineSet
EndChar

StartChar: mu
Encoding: 181 181 117
Width: 638
Flags: W
LayerCount: 2
Fore
SplineSet
460 210 m 2
 460 693 l 1
 568 709 l 1
 568 -15 l 1
 466 -38 l 1
 466 27 l 1
 436.599609375 -5 413.200195312 -15 315.700195312 -15 c 0
 235.099609375 -15 209.099609375 1 192.700195312 14 c 1
 199 -188 l 1
 100.700195312 -226 l 1
 89.7001953125 701 l 1
 198.700195312 685 l 1
 198.700195312 198 l 2
 198.700195312 95 228.599609375 88 318.299804688 88 c 0
 413.200195312 88 460 106 460 210 c 2
EndSplineSet
EndChar

StartChar: paragraph
Encoding: 182 182 118
Width: 689
Flags: W
LayerCount: 2
Fore
SplineSet
93.2001953125 488 m 0
 78.2001953125 524 70.2001953125 565 70.2001953125 608 c 0
 70.2001953125 758 157.200195312 926 281.200195312 926 c 2
 417.200195312 927 l 1
 433.200195312 927 l 1
 617.599609375 929 l 1
 640.599609375 854 l 1
 640.599609375 854 628.599609375 855 614.599609375 855 c 0
 607.599609375 855 598.599609375 855 590.599609375 854 c 1
 592.599609375 659 596.599609375 -22 596.599609375 -22 c 1
 506.91796875 -18 l 1
 509.599609375 866 l 1
 479.700195312 863 451.099609375 860 434.200195312 859 c 1
 441.200195312 -16 l 1
 343.200195312 -13 l 1
 352.200195312 325 l 1
 319.200195312 327 l 1
 182.200195312 361 123.200195312 418 93.2001953125 488 c 0
EndSplineSet
EndChar

StartChar: periodcentered
Encoding: 183 183 119
Width: 276
Flags: W
LayerCount: 2
Fore
SplineSet
89.7001953125 289 m 1
 98.7001953125 402 l 1
 208.700195312 408 l 1
 204.700195312 280 l 1
 89.7001953125 289 l 1
EndSplineSet
EndChar

StartChar: cedilla
Encoding: 184 184 120
Width: 671
Flags: W
LayerCount: 2
Fore
SplineSet
340.299804688 0 m 1
 340.299804688 -1 344.299804688 0 350.299804688 0 c 2
 380.299804688 0 l 1
 365.299804688 -51 l 1
 370.299804688 -49 377.299804688 -49 387.299804688 -49 c 0
 465.299804688 -49 472.299804688 -49 472.299804688 -136 c 0
 472.299804688 -221 463.299804688 -248 377.299804688 -248 c 0
 316.299804688 -248 304.299804688 -240 287.299804688 -190 c 1
 332.299804688 -178 l 1
 338.299804688 -195 342.299804688 -200 348.299804688 -200 c 0
 354.299804688 -200 362.299804688 -195 374.299804688 -195 c 0
 409.299804688 -195 415.299804688 -189 415.299804688 -150 c 0
 415.299804688 -110 410.299804688 -104 377.299804688 -104 c 0
 354.299804688 -104 349.299804688 -106 345.299804688 -118 c 2
 344.299804688 -120 l 1
 309.299804688 -100 l 1
 309.299804688 -100 339.299804688 0 340.299804688 0 c 1
EndSplineSet
EndChar

StartChar: Superscriptone
Encoding: 185 185 121
Width: 270
Flags: W
LayerCount: 2
Fore
SplineSet
195.5 521 m 1
 143.5 526 l 1
 143.5 528 l 1
 143.5 787 l 1
 71.5 779 l 1
 73.5 811 l 1
 154.5 841 l 1
 195.5 840 l 1
 195.5 523 l 1
 195.5 522 l 1
 195.5 521 l 1
EndSplineSet
EndChar

StartChar: ordmasculine
Encoding: 186 186 122
Width: 407
Flags: W
LayerCount: 2
Fore
SplineSet
79.2998046875 574 m 1
 340.299804688 574 l 1
 340.299804688 539 l 1
 79.2998046875 526 l 1
 79.2998046875 574 l 1
211.299804688 648 m 0
 269.299804688 648 277.299804688 666 279.299804688 740 c 2
 279.299804688 746 l 2
 279.299804688 809 253.299804688 845 223.299804688 845 c 0
 220.299804688 845 217.299804688 845 214.299804688 844 c 0
 182.299804688 837 143.299804688 819 143.299804688 758 c 0
 143.299804688 752 143.299804688 746 144.299804688 740 c 0
 152.299804688 664 153.299804688 648 211.299804688 648 c 0
90.2998046875 748 m 1
 90.2998046875 762 l 2
 90.2998046875 822 115.299804688 905 214.299804688 905 c 0
 336.299804688 905 331.299804688 818 337.299804688 748 c 0
 338.299804688 741 337.299804688 734 337.299804688 727 c 0
 337.299804688 662 311.299804688 591 214.299804688 591 c 0
 91.2998046875 591 94.2998046875 688 90.2998046875 748 c 1
EndSplineSet
EndChar

StartChar: guillemotright
Encoding: 187 187 123
Width: 601
Flags: W
LayerCount: 2
Fore
SplineSet
272.240234375 630 m 1
 402.080078125 614 l 1
 547.080078125 332 l 1
 396.080078125 67 l 1
 280.040039062 51 l 1
 446.080078125 348 l 1
 272.240234375 630 l 1
74.099609375 630 m 1
 192.099609375 626 l 1
 341.139648438 348 l 1
 192.099609375 63 l 1
 74.099609375 67 l 1
 246.240234375 344 l 1
 74.099609375 630 l 1
EndSplineSet
EndChar

StartChar: onequarter
Encoding: 188 188 124
Width: 857
Flags: W
LayerCount: 2
Fore
SplineSet
221.299804688 4 m 1
 555 943 l 1
 649.900390625 914 l 1
 287.200195312 -22 l 1
 221.299804688 4 l 1
224.299804688 472 m 1
 185.299804688 476 l 1
 185.299804688 478 l 1
 185.299804688 800 l 1
 105.299804688 791 l 1
 107.299804688 830 l 1
 198.299804688 868 l 1
 244.299804688 867 l 1
 244.299804688 472 l 1
 244.299804688 470 l 1
 215.299804688 470 l 1
 215.299804688 472 l 1
 224.299804688 472 l 1
716.200195312 437 m 1
 761.200195312 433 l 1
 761.200195312 422 l 1
 763.200195312 421 l 1
 761.200195312 419 l 1
 761.200195312 193 l 1
 817.200195312 191 l 1
 817.200195312 144 l 1
 761.200195312 145 l 1
 761.200195312 43 l 1
 704.200195312 33 l 1
 703.200195312 147 l 1
 552.400390625 150 l 1
 493.900390625 150 l 1
 493.900390625 191 l 1
 715.200195312 432 l 1
 716.200195312 437 l 1
571.900390625 197 m 1
 703.200195312 194 l 1
 703.200195312 329 l 1
 704.200195312 338 l 1
 571.900390625 197 l 1
EndSplineSet
EndChar

StartChar: onehalf
Encoding: 189 189 125
Width: 821
Flags: W
LayerCount: 2
Fore
SplineSet
159 456 m 2
 153 456 l 1
 152.700195312 800 l 1
 63.7001953125 790 l 1
 66.7001953125 831 l 1
 167.700195312 872 l 1
 217.700195312 871 l 1
 218 453 l 1
 218 453 213.111328125 452.888671875 206.037109375 452.888671875 c 0
 191.888671875 452.888671875 169 453 159 456 c 2
524 293 m 1
 524 293 464 304 464 308 c 0
 464 393 451.900390625 425 579.700195312 425 c 0
 710.599609375 425 727.599609375 407 727.599609375 290 c 0
 726.599609375 228 714.599609375 211 641.95703125 162 c 1
 578.314453125 111 569.671875 119 568.099609375 51 c 1
 740 47 l 1
 758 0 l 1
 568.099609375 0 l 1
 494.099609375 0 l 1
 494 25 l 2
 494 142 497.099609375 121 577.528320312 173 c 1
 650.599609375 231 661.599609375 247 661.599609375 295 c 0
 661.599609375 370 651.200195312 382 582.299804688 382 c 0
 510.799804688 382 527 350 527 350 c 1
 524 293 l 1
213.099609375 -4 m 1
 413.900390625 935 l 1
 488.599609375 906 l 1
 269.099609375 -30 l 1
 213.099609375 -4 l 1
EndSplineSet
EndChar

StartChar: threequarters
Encoding: 190 190 126
Width: 850
Flags: W
LayerCount: 2
Fore
SplineSet
67.599609375 618 m 1
 121.599609375 616 l 1
 124.599609375 572 132.599609375 565 180.599609375 565 c 0
 231.940429688 565 241.040039062 573 241.040039062 628 c 0
 241.040039062 684 229.33984375 692 169.599609375 692 c 2
 142.599609375 692 l 1
 142.599609375 713 l 1
 141.599609375 730 l 1
 172.599609375 730 l 2
 217.599609375 730 225.440429688 738 234.540039062 787 c 0
 235.83984375 796 237.139648438 803 237.139648438 810 c 0
 237.139648438 840 219.599609375 845 171.599609375 845 c 0
 129.599609375 845 122.599609375 841 119.599609375 815 c 1
 67.599609375 817 l 1
 74.599609375 874 88.599609375 883 173.599609375 883 c 0
 268.33984375 883 300.83984375 875 300.83984375 826 c 0
 300.83984375 816 299.540039062 804 296.940429688 791 c 0
 287.83984375 738 277.440429688 726 221.599609375 715 c 1
 300.83984375 702 315.139648438 688 315.139648438 626 c 0
 315.139648438 537 294.33984375 523 180.599609375 523 c 0
 88.599609375 523 74.599609375 536 67.599609375 618 c 1
199.599609375 28 m 1
 533.540039062 967 l 1
 628.440429688 938 l 1
 265.740234375 2 l 1
 199.599609375 28 l 1
690.540039062 437 m 1
 741.540039062 433 l 1
 741.540039062 422 l 1
 743.540039062 421 l 1
 741.540039062 418 l 1
 741.540039062 187 l 1
 802.540039062 186 l 1
 802.540039062 138 l 1
 741.540039062 139 l 1
 741.540039062 35 l 1
 677.540039062 25 l 1
 677.540039062 141 l 1
 510.139648438 145 l 1
 446.440429688 144 l 1
 446.440429688 186 l 1
 690.540039062 432 l 1
 690.540039062 437 l 1
532.240234375 193 m 1
 676.540039062 189 l 1
 676.540039062 327 l 1
 677.540039062 336 l 1
 532.240234375 193 l 1
EndSplineSet
EndChar

StartChar: questiondown
Encoding: 191 191 127
Width: 696
Flags: W
LayerCount: 2
Fore
SplineSet
409 697 m 1
 388 588 l 1
 275 578 l 1
 264 707 l 1
 409 697 l 1
648.83984375 5 m 1
 630.83984375 -207 595.83984375 -245.000976562 364.900390625 -245.000976562 c 2
 354.5 -245.000976562 l 2
 168.5 -244.000976562 71.5 -211.000976562 71.5 0.9990234375 c 2
 71.5 9.9990234375 l 1
 71.5 48.9990234375 l 2
 71.5 139.999023438 81.5 140.999023438 197.200195312 221.999023438 c 1
 260.900390625 256.999023438 283.940429688 283.999023438 285.240234375 343.999023438 c 2
 285.240234375 364.999023438 l 2
 285.240234375 395.999023438 283.940429688 435.999023438 283.940429688 488.999023438 c 1
 389.240234375 488.999023438 l 1
 389.240234375 466.999023438 l 2
 389.240234375 398.999023438 408 346.999023438 408 310.999023438 c 1
 414.107421875 293.895507812 415.861328125 280.385742188 415.861328125 269.203125 c 0
 415.861328125 254.104492188 412.663085938 243.248046875 412.663085938 233.516601562 c 0
 412.663085938 199.044921875 379.237304688 195.25390625 297.299804688 151 c 0
 189.400390625 93 185.5 94 185.5 25 c 2
 185.5 10 l 2
 185.5 -136 272.599609375 -148 354.5 -159 c 0
 376.599609375 -162 398.700195312 -164 415.599609375 -164 c 0
 512.83984375 -164 531.83984375 -110 543.83984375 24 c 1
 648.83984375 5 l 1
EndSplineSet
EndChar

StartChar: Agrave
Encoding: 192 192 128
Width: 915
Flags: HW
LayerCount: 2
Fore
SplineSet
398.33984375 1007 m 1
 268.33984375 1157 l 1
 441.240234375 1130 l 1
 528.33984375 1007 l 1
 398.33984375 1007 l 1
59.7998046875 6 m 1
 382.740234375 928 l 1
 553.040039062 927 l 1
 870.780273438 5 l 1
 778.780273438 -26 l 1
 703.83984375 193 l 1
 231.940429688 184 l 1
 167.799804688 -22 l 1
 59.7998046875 6 l 1
281.33984375 279 m 1
 681.740234375 280 l 1
 468.540039062 779 l 1
 281.33984375 279 l 1
EndSplineSet
EndChar

StartChar: Aacute
Encoding: 193 193 129
Width: 915
Flags: HW
LayerCount: 2
Fore
SplineSet
382.740234375 991 m 1
 481.540039062 1135 l 1
 657.040039062 1157 l 1
 528.33984375 1007 l 1
 382.740234375 991 l 1
59.7998046875 6 m 1
 382.740234375 928 l 1
 553.040039062 927 l 1
 870.780273438 5 l 1
 778.780273438 -26 l 1
 703.83984375 193 l 1
 231.940429688 184 l 1
 167.799804688 -22 l 1
 59.7998046875 6 l 1
281.33984375 279 m 1
 681.740234375 280 l 1
 468.540039062 779 l 1
 281.33984375 279 l 1
EndSplineSet
EndChar

StartChar: Acircumflex
Encoding: 194 194 130
Width: 915
Flags: HW
LayerCount: 2
Fore
SplineSet
463.33984375 1071 m 1
 373.639648438 989 l 1
 238.440429688 1007 l 1
 411.33984375 1139 l 1
 534.83984375 1157 l 1
 686.940429688 1007 l 1
 556.940429688 1007 l 1
 463.33984375 1071 l 1
59.7998046875 6 m 1
 382.740234375 928 l 1
 553.040039062 927 l 1
 870.780273438 5 l 1
 778.780273438 -26 l 1
 703.83984375 193 l 1
 231.940429688 184 l 1
 167.799804688 -22 l 1
 59.7998046875 6 l 1
281.33984375 279 m 1
 681.740234375 280 l 1
 468.540039062 779 l 1
 281.33984375 279 l 1
EndSplineSet
EndChar

StartChar: Atilde
Encoding: 195 195 131
Width: 915
Flags: HW
LayerCount: 2
Fore
SplineSet
355.440429688 1007 m 1
 250.139648438 1007 l 1
 250.139648438 1145 267.040039062 1157 373.639648438 1157 c 0
 516.639648438 1157 445.139648438 1078 542.639648438 1078 c 0
 567.33984375 1078 594.639648438 1081 594.639648438 1144 c 1
 701.240234375 1138 l 1
 701.240234375 1000 685.639648438 990 577.740234375 990 c 0
 434.740234375 990 480.240234375 1081 382.740234375 1081 c 0
 359.33984375 1081 355.440429688 1070 355.440429688 1007 c 1
59.7998046875 6 m 1
 382.740234375 928 l 1
 553.040039062 927 l 1
 870.780273438 5 l 1
 778.780273438 -26 l 1
 703.83984375 193 l 1
 231.940429688 184 l 1
 167.799804688 -22 l 1
 59.7998046875 6 l 1
281.33984375 279 m 1
 681.740234375 280 l 1
 468.540039062 779 l 1
 281.33984375 279 l 1
EndSplineSet
EndChar

StartChar: Adieresis
Encoding: 196 196 132
Width: 915
Flags: HW
LayerCount: 2
Fore
SplineSet
504.940429688 1015 m 1
 504.940429688 1134 l 1
 644.040039062 1126 l 1
 644.040039062 1007 l 1
 504.940429688 1015 l 1
281.33984375 1007 m 1
 309.940429688 1124 l 1
 436.040039062 1126 l 1
 436.040039062 1007 l 1
 281.33984375 1007 l 1
59.7998046875 6 m 1
 382.740234375 928 l 1
 553.040039062 927 l 1
 870.780273438 5 l 1
 778.780273438 -26 l 1
 703.83984375 193 l 1
 231.940429688 184 l 1
 167.799804688 -22 l 1
 59.7998046875 6 l 1
281.33984375 279 m 1
 681.740234375 280 l 1
 468.540039062 779 l 1
 281.33984375 279 l 1
EndSplineSet
EndChar

StartChar: Aring
Encoding: 197 197 133
Width: 915
Flags: HW
LayerCount: 2
Fore
SplineSet
281.33984375 279 m 1
 681.740234375 280 l 1
 468.540039062 779 l 1
 281.33984375 279 l 1
59.7998046875 6 m 1
 382.740234375 928 l 1
 553.040039062 927 l 1
 870.780273438 5 l 1
 778.780273438 -26 l 1
 703.83984375 193 l 1
 231.940429688 184 l 1
 167.799804688 -22 l 1
 59.7998046875 6 l 1
356.740234375 1086 m 0
 356.740234375 1165 367.139648438 1174 471.139648438 1174 c 0
 568.639648438 1174 571.240234375 1166 571.240234375 1097 c 2
 571.240234375 1059 l 2
 571.240234375 1019 568.639648438 1014 527.040039062 1014 c 2
 412.639648438 1014 l 2
 359.33984375 1014 356.740234375 1023 356.740234375 1086 c 0
460.740234375 1057 m 0
 501.040039062 1057 506.240234375 1059 506.240234375 1094 c 0
 506.240234375 1105 507.540039062 1112 507.540039062 1118 c 0
 507.540039062 1130 502.33984375 1130 476.33984375 1130 c 0
 436.040039062 1130 419.139648438 1128 419.139648438 1094 c 0
 419.139648438 1059 419.139648438 1057 460.740234375 1057 c 0
EndSplineSet
EndChar

StartChar: AE
Encoding: 198 198 134
Width: 1346
Flags: HW
LayerCount: 2
Fore
SplineSet
363.240234375 295 m 1
 703.83984375 280 l 1
 711.83984375 823 l 1
 363.240234375 295 l 1
58.5 8 m 1
 589.440429688 918 l 1
 716.83984375 919 l 1
 835.83984375 919 l 1
 1272.1796875 919 l 1
 1272.1796875 816 l 1
 1103.33984375 816 1026.63964844 822 836.83984375 823 c 1
 836.83984375 441 l 1
 1247.1796875 449 l 1
 1252.1796875 449 l 1
 1252.1796875 399 l 1
 1252.1796875 350 l 1
 1247.1796875 350 l 1
 836.83984375 357 l 1
 836.83984375 79 l 1
 1047.44042969 79 1118.94042969 87 1282.1796875 87 c 1
 1282.1796875 88 1282.1796875 88 1284.1796875 87 c 0
 1287.1796875 88 1287.1796875 88 1287.1796875 87 c 2
 1287.1796875 31 l 1
 1287.1796875 -26 l 1
 1117.63964844 -26 1050.04003906 -25 834.83984375 -25 c 1
 834.83984375 -26 l 1
 717.83984375 -26 l 1
 717.83984375 193 l 1
 618.040039062 190 300.83984375 178 300.83984375 178 c 1
 164.5 -22 l 1
 58.5 8 l 1
EndSplineSet
EndChar

StartChar: Ccedilla
Encoding: 199 199 135
Width: 771
Flags: HW
LayerCount: 2
Fore
SplineSet
427.299804688 -14 m 1
 361 -12 336.299804688 -11 336.299804688 -10 c 2
 358.400390625 -10 l 2
 414.299804688 -10 549.599609375 -12 549.599609375 -14 c 0
 549.599609375 -15 531.599609375 -15 480.599609375 -15 c 2
 479.299804688 -15 l 1
 465 -51 l 1
 471.5 -50 480.599609375 -49 493.599609375 -49 c 0
 570.599609375 -49 582.599609375 -63 582.599609375 -150 c 0
 582.599609375 -235 569.599609375 -248 480.599609375 -248 c 0
 401.299804688 -248 385.700195312 -240 363.599609375 -190 c 1
 422.099609375 -155 l 1
 437.700195312 -190 445.5 -195 476.700195312 -195 c 0
 515.599609375 -195 521.599609375 -189 521.599609375 -150 c 0
 521.599609375 -110 516.599609375 -104 480.599609375 -104 c 0
 450.700195312 -104 442.900390625 -106 439 -118 c 2
 437.700195312 -120 l 1
 392.200195312 -100 l 1
 427.299804688 -14 l 1
697.599609375 97 m 2
 717.599609375 -1 l 2
 716.599609375 -8 687.599609375 -9 503.599609375 -9 c 0
 134.700195312 -9 76.7001953125 86 76.7001953125 411 c 2
 76.7001953125 465 l 1
 82.7001953125 833 130.700195312 941 485.799804688 941 c 2
 503.599609375 941 l 2
 689.599609375 938 718.599609375 938 718.599609375 937 c 2
 696.599609375 840 l 2
 696.599609375 839 690.599609375 838 662.599609375 838 c 0
 635.599609375 838 587.599609375 839 503.599609375 840 c 2
 493.599609375 840 l 2
 250.5 840 210.200195312 754 203.700195312 465 c 1
 203.700195312 414 l 2
 203.700195312 166 296 143 503.599609375 93 c 1
 670.599609375 93 696.599609375 94 697.599609375 97 c 2
EndSplineSet
EndChar

StartChar: Egrave
Encoding: 200 200 136
Width: 718
Flags: HW
LayerCount: 2
Fore
SplineSet
210.599609375 4 m 1
 208.599609375 4 l 1
 93.599609375 4 l 1
 93.599609375 949 l 1
 647.940429688 949 l 1
 647.940429688 846 l 1
 479.099609375 846 402.400390625 852 212.599609375 853 c 1
 212.599609375 471 l 1
 627.940429688 496 l 1
 627.940429688 466 624.940429688 427 624.940429688 397 c 1
 212.599609375 380 l 1
 212.599609375 109 l 1
 423.200195312 109 501.200195312 117 662.940429688 117 c 1
 662.940429688 4 l 1
 210.599609375 4 l 1
337.400390625 1007 m 1
 209.599609375 1157 l 1
 394.599609375 1157 l 1
 467.400390625 1007 l 1
 337.400390625 1007 l 1
EndSplineSet
EndChar

StartChar: Eacute
Encoding: 201 201 137
Width: 719
Flags: HW
LayerCount: 2
Fore
SplineSet
353 1007 m 1
 397.200195312 1155 l 1
 587.940429688 1157 l 1
 475.200195312 1011 l 1
 353 1007 l 1
93.599609375 0 m 1
 93.599609375 927 l 1
 211.599609375 927 l 1
 212.599609375 927 l 1
 647.940429688 927 l 1
 647.940429688 826 l 1
 479.099609375 826 402.400390625 832 212.599609375 833 c 1
 212.599609375 458 l 1
 623.940429688 466 l 1
 627.940429688 466 l 1
 627.940429688 417 l 1
 627.940429688 369 l 1
 623.940429688 369 l 1
 212.599609375 376 l 1
 212.599609375 103 l 1
 419.299804688 103 496 111 657.940429688 111 c 1
 657.940429688 112 657.940429688 112 659.940429688 111 c 0
 662.940429688 112 662.940429688 112 662.940429688 111 c 2
 662.940429688 56 l 1
 662.940429688 0 l 1
 210.599609375 0 l 1
 93.599609375 0 l 1
EndSplineSet
EndChar

StartChar: Ecircumflex
Encoding: 202 202 138
Width: 719
Flags: HW
LayerCount: 2
Fore
SplineSet
418 1071 m 1
 311.400390625 1001 l 1
 198.599609375 1027 l 1
 356.900390625 1147 l 1
 453.099609375 1149 l 1
 610.940429688 1007 l 1
 510.940429688 1007 l 1
 418 1071 l 1
93.599609375 0 m 1
 93.599609375 927 l 1
 211.599609375 927 l 1
 212.599609375 927 l 1
 647.940429688 927 l 1
 647.940429688 826 l 1
 479.099609375 826 402.400390625 832 212.599609375 833 c 1
 212.599609375 458 l 1
 623.940429688 466 l 1
 627.940429688 466 l 1
 627.940429688 417 l 1
 627.940429688 369 l 1
 623.940429688 369 l 1
 212.599609375 376 l 1
 212.599609375 103 l 1
 423.200195312 103 494.700195312 111 657.940429688 111 c 1
 657.940429688 112 657.940429688 112 659.940429688 111 c 0
 662.940429688 112 662.940429688 112 662.940429688 111 c 2
 662.940429688 56 l 1
 662.940429688 0 l 1
 210.599609375 0 l 1
 93.599609375 0 l 1
EndSplineSet
EndChar

StartChar: Edieresis
Encoding: 203 203 139
Width: 719
Flags: HW
LayerCount: 2
Fore
SplineSet
455.700195312 1021 m 1
 445.299804688 1126 l 1
 578.940429688 1126 l 1
 578.940429688 1007 l 1
 455.700195312 1021 l 1
236 1007 m 1
 251.599609375 1108 l 1
 392 1126 l 1
 392 1007 l 1
 236 1007 l 1
93.599609375 0 m 1
 93.599609375 927 l 1
 211.599609375 927 l 1
 212.599609375 927 l 1
 647.940429688 927 l 1
 647.940429688 826 l 1
 479.099609375 826 402.400390625 832 212.599609375 833 c 1
 212.599609375 458 l 1
 623.940429688 466 l 1
 627.940429688 466 l 1
 627.940429688 417 l 1
 627.940429688 369 l 1
 623.940429688 369 l 1
 212.599609375 376 l 1
 212.599609375 103 l 1
 423.200195312 103 494.700195312 111 657.940429688 111 c 1
 657.940429688 112 657.940429688 112 659.940429688 111 c 0
 662.940429688 112 662.940429688 112 662.940429688 111 c 2
 662.940429688 56 l 1
 662.940429688 0 l 1
 210.599609375 0 l 1
 93.599609375 0 l 1
EndSplineSet
EndChar

StartChar: Igrave
Encoding: 204 204 140
Width: 310
Flags: HW
LayerCount: 2
Fore
SplineSet
120.799804688 1007 m 1
 46.7998046875 1137 l 1
 163.799804688 1157 l 1
 220.799804688 1007 l 1
 120.799804688 1007 l 1
170.799804688 3 m 1
 111.799804688 4 l 1
 99.7998046875 919 l 1
 99.7998046875 924 l 1
 99.7998046875 930 l 1
 217.799804688 924 l 1
 229.799804688 6 l 1
 229.799804688 1 l 1
 170.799804688 1 l 1
 170.799804688 3 l 1
EndSplineSet
EndChar

StartChar: Iacute
Encoding: 205 205 141
Width: 295
Flags: HW
LayerCount: 2
Fore
SplineSet
81.900390625 1007 m 1
 137.900390625 1157 l 1
 264.900390625 1119 l 1
 181.900390625 1007 l 1
 81.900390625 1007 l 1
155.900390625 3 m 1
 96.900390625 4 l 1
 84.900390625 919 l 1
 84.900390625 924 l 1
 84.900390625 930 l 1
 202.900390625 924 l 1
 214.900390625 6 l 1
 214.900390625 1 l 1
 155.900390625 1 l 1
 155.900390625 3 l 1
EndSplineSet
EndChar

StartChar: Icircumflex
Encoding: 206 206 142
Width: 423
Flags: HW
LayerCount: 2
Fore
SplineSet
213.799804688 1071 m 1
 140.799804688 1007 l 1
 46.7998046875 993 l 1
 165.799804688 1143 l 1
 246.799804688 1159 l 1
 385.799804688 1007 l 1
 281.799804688 1009 l 1
 213.799804688 1071 l 1
213.799804688 3 m 1
 154.799804688 4 l 1
 142.799804688 919 l 1
 142.799804688 924 l 1
 142.799804688 930 l 1
 260.799804688 924 l 1
 272.799804688 6 l 1
 272.799804688 1 l 1
 213.799804688 1 l 1
 213.799804688 3 l 1
EndSplineSet
EndChar

StartChar: Idieresis
Encoding: 207 207 143
Width: 365
Flags: HW
LayerCount: 2
Fore
SplineSet
208.099609375 1007 m 1
 206.099609375 1116 l 1
 327.099609375 1126 l 1
 327.099609375 1007 l 1
 208.099609375 1007 l 1
48.099609375 1007 m 1
 64.099609375 1118 l 1
 167.099609375 1126 l 1
 167.099609375 1007 l 1
 48.099609375 1007 l 1
188.099609375 3 m 1
 129.099609375 4 l 1
 117.099609375 919 l 1
 117.099609375 924 l 1
 117.099609375 930 l 1
 235.099609375 924 l 1
 247.099609375 6 l 1
 247.099609375 1 l 1
 188.099609375 1 l 1
 188.099609375 3 l 1
EndSplineSet
EndChar

StartChar: Eth
Encoding: 208 208 144
Width: 970
Flags: HW
LayerCount: 2
Fore
SplineSet
213 0 m 1
 154 0 l 1
 154 5 l 1
 156 384 l 1
 65 384 l 1
 65 488 l 1
 157 483 l 1
 159 927 l 1
 208 927 l 1
 257 927 l 1
 424.400390625 927 l 2
 847.799804688 927 899.799804688 908 899.799804688 589 c 0
 899.799804688 551 898.799804688 510 897.799804688 463 c 0
 888.799804688 10 880.799804688 0 463.400390625 0 c 2
 273.599609375 0 l 1
 269 0 l 1
 213 0 l 1
271 97 m 1
 346.400390625 97 375 96 451.700195312 96 c 0
 754.599609375 96 761.099609375 104 770.200195312 463 c 0
 771.5 504 772.799804688 540 772.799804688 573 c 0
 772.799804688 816 724.700195312 830 430.900390625 830 c 2
 259 830 l 1
 259 830 262 662 265 477 c 1
 437.400390625 470 l 1
 437.400390625 384 l 1
 266 384 l 1
 268 275 270 170 271 97 c 1
EndSplineSet
EndChar

StartChar: Ntilde
Encoding: 209 209 145
Width: 874
Flags: HW
LayerCount: 2
Fore
SplineSet
271.5 1021 m 1
 181.599609375 1017 l 1
 181.599609375 1155 236.400390625 1167 344.299804688 1167 c 0
 487.299804688 1167 434 1064 531.5 1064 c 0
 554.900390625 1064 574.400390625 1087 574.400390625 1150 c 1
 648.5 1134 l 1
 648.5 996 629 992 522.400390625 992 c 0
 379.400390625 992 449.599609375 1081 353.400390625 1081 c 2
 344.299804688 1081 l 2
 315.700195312 1081 271.5 1078 271.5 1021 c 1
686.200195312 934 m 1
 797 925 l 1
 801 -1 l 1
 764 0 l 1
 616 -7 l 1
 202.599609375 682 l 1
 222.099609375 5 l 1
 222.099609375 0 l 1
 155.599609375 0 l 1
 93.599609375 0 l 1
 93.599609375 5 l 1
 94.599609375 935 l 1
 144.599609375 922 l 1
 232.5 914 l 1
 694 130 l 1
 686.200195312 934 l 1
EndSplineSet
EndChar

StartChar: Ograve
Encoding: 210 210 146
Width: 916
Flags: HW
LayerCount: 2
Fore
SplineSet
432.5 1007 m 1
 303.799804688 1157 l 1
 539.099609375 1130 l 1
 563.799804688 1007 l 1
 432.5 1007 l 1
459.799804688 87 m 2
 479.299804688 87 l 2
 669.099609375 87 722.400390625 127 722.400390625 334 c 0
 722.400390625 372 719.799804688 414 717.200195312 463 c 0
 697.700195312 773 652.200195312 840 459.799804688 840 c 0
 249.200195312 840 203.700195312 773 203.700195312 463 c 0
 203.700195312 141 238.799804688 90 459.799804688 87 c 2
76.7001953125 463 m 0
 76.7001953125 856 134.700195312 941 459.799804688 941 c 0
 768.400390625 941 826.400390625 856 845.400390625 463 c 0
 847.400390625 410 849.400390625 363 849.400390625 321 c 0
 849.400390625 40 787.400390625 -15 498.799804688 -15 c 2
 459.799804688 -15 l 1
 120.700195312 -9 76.7001953125 56 76.7001953125 463 c 0
EndSplineSet
EndChar

StartChar: Oacute
Encoding: 211 211 147
Width: 916
Flags: HW
LayerCount: 2
Fore
SplineSet
355.799804688 1007 m 1
 428.599609375 1157 l 1
 598.900390625 1133 l 1
 485.799804688 1007 l 1
 355.799804688 1007 l 1
459.799804688 87 m 2
 479.299804688 87 l 2
 669.099609375 87 722.400390625 127 722.400390625 334 c 0
 722.400390625 372 719.799804688 414 717.200195312 463 c 0
 697.700195312 773 652.200195312 840 459.799804688 840 c 0
 249.200195312 840 203.700195312 773 203.700195312 463 c 0
 203.700195312 141 238.799804688 90 459.799804688 87 c 2
76.7001953125 463 m 0
 76.7001953125 856 134.700195312 941 459.799804688 941 c 0
 768.400390625 941 826.400390625 856 845.400390625 463 c 0
 847.400390625 410 849.400390625 363 849.400390625 321 c 0
 849.400390625 40 787.400390625 -15 498.799804688 -15 c 2
 459.799804688 -15 l 1
 120.700195312 -9 76.7001953125 56 76.7001953125 463 c 0
EndSplineSet
EndChar

StartChar: Ocircumflex
Encoding: 212 212 148
Width: 916
Flags: HW
LayerCount: 2
Fore
SplineSet
431.200195312 1071 m 1
 359.700195312 1007 l 1
 229.700195312 1007 l 1
 381.799804688 1157 l 1
 526.099609375 1157 l 1
 678.200195312 1007 l 1
 548.200195312 1007 l 1
 431.200195312 1071 l 1
459.799804688 87 m 2
 479.299804688 87 l 2
 669.099609375 87 722.400390625 127 722.400390625 334 c 0
 722.400390625 372 719.799804688 414 717.200195312 463 c 0
 697.700195312 773 652.200195312 840 459.799804688 840 c 0
 249.200195312 840 203.700195312 773 203.700195312 463 c 0
 203.700195312 141 238.799804688 90 459.799804688 87 c 2
76.7001953125 463 m 0
 76.7001953125 856 134.700195312 941 459.799804688 941 c 0
 768.400390625 941 826.400390625 856 845.400390625 463 c 0
 847.400390625 410 849.400390625 363 849.400390625 321 c 0
 849.400390625 40 787.400390625 -15 498.799804688 -15 c 2
 459.799804688 -15 l 1
 120.700195312 -9 76.7001953125 56 76.7001953125 463 c 0
EndSplineSet
EndChar

StartChar: Otilde
Encoding: 213 213 149
Width: 916
Flags: HW
LayerCount: 2
Fore
SplineSet
318.099609375 1007 m 1
 212.799804688 1007 l 1
 212.799804688 1070 l 2
 212.799804688 1150 220.599609375 1161 307.700195312 1161 c 0
 450.700195312 1161 409.099609375 1078 505.299804688 1078 c 0
 530 1078 533.900390625 1089 533.900390625 1152 c 1
 639.200195312 1152 l 1
 639.200195312 1014 622.299804688 992 514.400390625 992 c 0
 371.400390625 992 442.900390625 1081 345.400390625 1081 c 0
 322 1081 318.099609375 1070 318.099609375 1007 c 1
459.799804688 87 m 2
 479.299804688 87 l 2
 669.099609375 87 722.400390625 127 722.400390625 334 c 0
 722.400390625 372 719.799804688 414 717.200195312 463 c 0
 697.700195312 773 652.200195312 840 459.799804688 840 c 0
 249.200195312 840 203.700195312 773 203.700195312 463 c 0
 203.700195312 141 238.799804688 90 459.799804688 87 c 2
76.7001953125 463 m 0
 76.7001953125 856 134.700195312 941 459.799804688 941 c 0
 768.400390625 941 826.400390625 856 845.400390625 463 c 0
 847.400390625 410 849.400390625 363 849.400390625 321 c 0
 849.400390625 40 787.400390625 -15 498.799804688 -15 c 2
 459.799804688 -15 l 1
 120.700195312 -9 76.7001953125 56 76.7001953125 463 c 0
EndSplineSet
EndChar

StartChar: Odieresis
Encoding: 214 214 150
Width: 916
Flags: HW
LayerCount: 2
Fore
SplineSet
504 1011 m 1
 491 1126 l 1
 645.700195312 1126 l 1
 645.700195312 1007 l 1
 504 1011 l 1
283 1007 m 1
 296 1130 l 1
 437.700195312 1126 l 1
 437.700195312 1007 l 1
 283 1007 l 1
459.799804688 87 m 2
 479.299804688 87 l 2
 669.099609375 87 722.400390625 127 722.400390625 334 c 0
 722.400390625 372 719.799804688 414 717.200195312 463 c 0
 697.700195312 773 652.200195312 840 459.799804688 840 c 0
 249.200195312 840 203.700195312 773 203.700195312 463 c 0
 203.700195312 141 238.799804688 90 459.799804688 87 c 2
76.7001953125 463 m 0
 76.7001953125 856 134.700195312 941 459.799804688 941 c 0
 768.400390625 941 826.400390625 856 845.400390625 463 c 0
 847.400390625 410 849.400390625 363 849.400390625 321 c 0
 849.400390625 40 787.400390625 -15 498.799804688 -15 c 2
 459.799804688 -15 l 1
 120.700195312 -9 76.7001953125 56 76.7001953125 463 c 0
EndSplineSet
EndChar

StartChar: multiply
Encoding: 215 215 151
Width: 694
Flags: HW
LayerCount: 2
Fore
SplineSet
513.879882812 701 m 1
 602.879882812 667 l 1
 434.740234375 425 l 1
 645.879882812 137 l 1
 530.879882812 93 l 1
 351.540039062 324 l 1
 351.540039062 324 184.900390625 114 183.900390625 113 c 2
 55.900390625 133 l 1
 268.33984375 421 l 1
 85.900390625 677 l 1
 209.900390625 677 l 1
 354.139648438 516 l 1
 513.879882812 701 l 1
EndSplineSet
EndChar

StartChar: Oslash
Encoding: 216 216 152
Width: 988
Flags: HW
LayerCount: 2
Fore
SplineSet
500.099609375 87 m 0
 753.599609375 87 793.900390625 138 793.900390625 463 c 0
 793.900390625 579 786.099609375 661 765.299804688 718 c 1
 264.799804688 144 l 1
 307.700195312 98 380.5 87 500.099609375 87 c 0
78 463 m 0
 78 856 141 941 500.099609375 941 c 0
 650.900390625 941 754.900390625 927 817.900390625 886 c 1
 854.900390625 941 l 1
 920.900390625 941 l 1
 856.900390625 845 l 1
 905.900390625 774 920.900390625 656 920.900390625 463 c 0
 920.900390625 50 872.900390625 -15 500.099609375 -15 c 0
 342.799804688 -15 237.5 -5 176 33 c 1
 144 -15 l 1
 78 -15 l 1
 137 73 l 1
 90 142 78 261 78 463 c 0
231 204 m 1
 730.200195312 777 l 1
 686 825 614.5 840 500.099609375 840 c 0
 257 840 205 773 205 463 c 0
 205 343 210.200195312 260 231 204 c 1
EndSplineSet
EndChar

StartChar: Ugrave
Encoding: 217 217 153
Width: 824
Flags: HW
LayerCount: 2
Fore
SplineSet
327.299804688 992 m 1
 200.099609375 1142 l 1
 384.5 1142 l 1
 457.299804688 992 l 1
 327.299804688 992 l 1
204.099609375 910 m 2
 205.099609375 908 204.099609375 908 204.099609375 908 c 1
 205.099609375 380 l 2
 205.099609375 115 215.5 101 420.900390625 101 c 0
 601.599609375 101 612 115 627.599609375 381 c 1
 617.200195312 921 l 1
 753.599609375 929 l 1
 751.599609375 359 l 1
 735.599609375 3 721.599609375 -15 420.900390625 -15 c 0
 101.099609375 -15 87.099609375 3 87.099609375 359 c 2
 88.099609375 932 l 1
 204.099609375 913 l 2
 205.099609375 913 204.099609375 910 204.099609375 910 c 2
EndSplineSet
EndChar

StartChar: Uacute
Encoding: 218 218 154
Width: 826
Flags: HW
LayerCount: 2
Fore
SplineSet
355.599609375 992 m 1
 428.400390625 1142 l 1
 614.299804688 1142 l 1
 485.599609375 992 l 1
 355.599609375 992 l 1
87.099609375 922 m 1
 87.099609375 927 l 1
 146.099609375 927 l 1
 206.099609375 927 l 1
 206.099609375 924 l 1
 206.099609375 922 l 1
 205.099609375 380 l 2
 205.099609375 115 215.200195312 101 420.599609375 101 c 0
 618.200195312 101 628.599609375 115 628.599609375 381 c 2
 628.599609375 922 l 1
 628.599609375 927 l 1
 690.599609375 927 l 1
 752.599609375 927 l 1
 752.599609375 922 l 1
 752.599609375 359 l 2
 752.599609375 3 738.599609375 -15 420.599609375 -15 c 0
 101.099609375 -15 87.099609375 3 87.099609375 359 c 2
 87.099609375 922 l 1
EndSplineSet
EndChar

StartChar: Ucircumflex
Encoding: 219 219 155
Width: 824
Flags: HW
LayerCount: 2
Fore
SplineSet
392.299804688 1057 m 1
 298.700195312 992 l 1
 177.099609375 992 l 1
 320.799804688 1142 l 1
 463.799804688 1142 l 1
 617.200195312 992 l 1
 485.900390625 992 l 1
 392.299804688 1057 l 1
204.099609375 910 m 2
 205.099609375 908 204.099609375 908 204.099609375 908 c 1
 205.099609375 380 l 2
 205.099609375 115 215.5 101 420.900390625 101 c 0
 601.599609375 101 612 115 627.599609375 381 c 1
 617.200195312 921 l 1
 753.599609375 929 l 1
 751.599609375 359 l 1
 735.599609375 3 721.599609375 -15 420.900390625 -15 c 0
 101.099609375 -15 87.099609375 3 87.099609375 359 c 2
 88.099609375 932 l 1
 204.099609375 913 l 2
 205.099609375 913 204.099609375 910 204.099609375 910 c 2
EndSplineSet
EndChar

StartChar: Udieresis
Encoding: 220 220 156
Width: 824
Flags: HW
LayerCount: 2
Fore
SplineSet
419.599609375 992 m 1
 419.599609375 1112 l 1
 574.299804688 1112 l 1
 574.299804688 992 l 1
 419.599609375 992 l 1
211.599609375 992 m 1
 211.599609375 1112 l 1
 366.299804688 1112 l 1
 366.299804688 992 l 1
 211.599609375 992 l 1
204.099609375 910 m 2
 205.099609375 908 204.099609375 908 204.099609375 908 c 1
 205.099609375 380 l 2
 205.099609375 115 215.5 101 420.900390625 101 c 0
 601.599609375 101 612 115 627.599609375 381 c 1
 617.200195312 921 l 1
 753.599609375 929 l 1
 751.599609375 359 l 1
 735.599609375 3 721.599609375 -15 420.900390625 -15 c 0
 101.099609375 -15 87.099609375 3 87.099609375 359 c 2
 88.099609375 932 l 1
 204.099609375 913 l 2
 205.099609375 913 204.099609375 910 204.099609375 910 c 2
EndSplineSet
EndChar

StartChar: Yacute
Encoding: 221 221 157
Width: 752
Flags: HW
LayerCount: 2
Fore
SplineSet
331.639648438 1007 m 1
 396.639648438 1137 l 1
 558.280273438 1157 l 1
 431.639648438 1007 l 1
 331.639648438 1007 l 1
588.280273438 951 m 1
 710.280273438 919 l 1
 440.639648438 439 l 1
 438.639648438 440 l 1
 440.639648438 -3 l 1
 321.639648438 3 l 1
 323.639648438 443 l 1
 321.639648438 442 l 1
 53.2998046875 921 l 1
 171.299804688 944 l 1
 378.639648438 559 l 1
 588.280273438 951 l 1
EndSplineSet
EndChar

StartChar: Thorn
Encoding: 222 222 158
Width: 736
Flags: HW
LayerCount: 2
Fore
SplineSet
138.299804688 0 m 1
 105.299804688 -2 l 1
 105.299804688 3 l 1
 79.2998046875 922 l 1
 79.2998046875 927 l 1
 138.299804688 927 l 1
 198.299804688 927 l 1
 198.299804688 924 l 1
 198.299804688 922 l 1
 198.299804688 742 l 1
 373.799804688 742 l 1
 445.299804688 742 l 2
 659.099609375 742 669.099609375 732 669.099609375 489 c 0
 669.099609375 225 667.099609375 189 386.799804688 189 c 1
 198.299804688 185 l 1
 198.299804688 5 l 1
 198.299804688 3 l 1
 198.299804688 0 l 1
 138.299804688 0 l 1
198.299804688 282 m 1
 379 282 l 2
 540.200195312 282 557.099609375 345 557.099609375 517 c 0
 557.099609375 634 550.599609375 653 492.099609375 653 c 0
 463.5 653 425.799804688 649 369.900390625 649 c 2
 198.299804688 645 l 1
 198.299804688 282 l 1
EndSplineSet
EndChar

StartChar: germandbls
Encoding: 223 223 159
Width: 861
Flags: HW
LayerCount: 2
Fore
SplineSet
717.040039062 790 m 0
 724.040039062 776 727.040039062 762 727.040039062 748 c 0
 727.040039062 657 578.900390625 576 506.099609375 543 c 1
 510 544 519.099609375 545 533.400390625 545 c 2
 537.299804688 545 l 2
 624.400390625 545 803.040039062 515 803.040039062 341 c 2
 803.040039062 337 l 2
 800.040039062 83 468.400390625 0 338.400390625 0 c 0
 335.799804688 0 335.799804688 14 335.799804688 31 c 2
 335.799804688 62 l 2
 335.799804688 82 335.799804688 99 331.900390625 99 c 1
 695.040039062 99 695.040039062 333 696.040039062 333 c 1
 660.040039062 473 541.200195312 479 316.299804688 479 c 1
 303.299804688 511 285.099609375 582 285.099609375 591 c 1
 287.700195312 591 616.599609375 621 616.599609375 750 c 2
 616.599609375 755 l 2
 612.700195312 811 517.799804688 896 422.900390625 896 c 0
 415.099609375 896 404.700195312 895 396.900390625 894 c 0
 381.299804688 891 363.099609375 887 350.099609375 882 c 0
 299.400390625 864 281.200195312 852 252.599609375 830 c 1
 200.599609375 753 192.799804688 671 192.799804688 566 c 0
 192.799804688 519 194.099609375 468 194.099609375 410 c 0
 194.099609375 283 201.900390625 141 214.900390625 0 c 1
 90.7998046875 0 l 1
 89.7998046875 140 85.7998046875 279 85.7998046875 418 c 2
 85.7998046875 444 l 1
 85.7998046875 537 l 2
 85.7998046875 632 87.7998046875 738 109.799804688 818 c 0
 125.799804688 877 251.299804688 991 415.099609375 991 c 0
 524.299804688 991 642.599609375 941 717.040039062 790 c 0
EndSplineSet
EndChar

StartChar: agrave
Encoding: 224 224 160
Width: 714
Flags: HW
LayerCount: 2
Fore
SplineSet
532.799804688 317 m 1
 525 316 515.900390625 316 506.799804688 316 c 0
 467.799804688 316 410.599609375 321 326.099609375 327 c 0
 313.099609375 328 301.400390625 328 289.700195312 328 c 0
 205.200195312 328 190.900390625 296 190.900390625 166 c 2
 190.900390625 150 l 2
 190.900390625 96 194.799804688 77 266.299804688 77 c 0
 287.099609375 77 314.400390625 78 349.5 81 c 0
 471.700195312 91 512 87 527.599609375 141 c 1
 532.799804688 317 l 1
81.900390625 527 m 1
 98.900390625 674 124.900390625 716 250.700195312 716 c 0
 280.599609375 716 315.700195312 714 356 711 c 0
 586.799804688 693 615.799804688 698 632.799804688 482 c 1
 634.799804688 106 l 1
 642.799804688 70 644.799804688 61 644.799804688 60 c 2
 643.799804688 62 l 1
 669.799804688 -15 l 1
 544.799804688 -1 554.799804688 -31 543.799804688 43 c 1
 509.400390625 -4 434 -1 275.400390625 -15 c 0
 233.799804688 -18 201.299804688 -20 176.900390625 -20 c 0
 85.900390625 -20 81.900390625 15 81.900390625 128 c 2
 81.900390625 162 l 2
 81.900390625 373 99.900390625 426 207.799804688 426 c 0
 227.299804688 426 246.799804688 425 270.200195312 423 c 0
 467.799804688 410 525 407 534.799804688 400 c 1
 535.799804688 452 l 1
 521.099609375 610 499 606 356 616 c 0
 335.200195312 618 318.299804688 618 302.700195312 618 c 0
 222.099609375 618 203.900390625 592 188.900390625 499 c 1
 81.900390625 527 l 1
261.099609375 777 m 1
 163.900390625 911 l 1
 318.299804688 927 l 1
 391.099609375 777 l 1
 261.099609375 777 l 1
EndSplineSet
EndChar

StartChar: aacute
Encoding: 225 225 161
Width: 706
Flags: HW
LayerCount: 2
Fore
SplineSet
535.700195312 307 m 1
 535.700195312 307 418.700195312 318 332.900390625 323 c 0
 312.099609375 324 295.200195312 325 279.599609375 325 c 0
 197.700195312 325 183.400390625 299 173 162 c 0
 173 155 171.700195312 148 171.700195312 141 c 0
 171.700195312 85 197.700195312 70 252.299804688 70 c 0
 280.900390625 70 312.099609375 73 352.400390625 77 c 0
 449.900390625 87 524 109 537 163 c 1
 535.700195312 307 l 1
85.7001953125 568 m 1
 102.700195312 663 125.700195312 714 292.599609375 714 c 0
 312.099609375 714 332.900390625 713 355 712 c 0
 587 699 608 699 625 483 c 0
 634 372 636 242 636 143 c 0
 636 49 634 -18 634 -18 c 1
 569 -10 562 -11 553 -7 c 0
 545 -3 549 9 544 44 c 1
 508.400390625 -3 433 0 274.400390625 -14 c 0
 253.599609375 -16 232.799804688 -17 214.599609375 -17 c 0
 119.700195312 -17 76.7001953125 18 76.7001953125 163 c 0
 76.7001953125 403 108.700195312 418 269.200195312 422 c 1
 466.799804688 417 534.400390625 413 534.400390625 413 c 1
 518.799804688 571 543 615 355 617 c 0
 326.400390625 619 305.599609375 620 287.400390625 620 c 0
 218.5 620 200.299804688 602 179.5 540 c 1
 85.7001953125 568 l 1
275.700195312 777 m 1
 348.5 927 l 1
 534.400390625 927 l 1
 405.700195312 777 l 1
 275.700195312 777 l 1
EndSplineSet
EndChar

StartChar: acircumflex
Encoding: 226 226 162
Width: 706
Flags: HW
LayerCount: 2
Fore
SplineSet
535.700195312 307 m 1
 535.700195312 307 418.700195312 318 332.900390625 323 c 0
 312.099609375 324 295.200195312 325 279.599609375 325 c 0
 197.700195312 325 183.400390625 299 173 162 c 0
 173 155 171.700195312 148 171.700195312 141 c 0
 171.700195312 85 197.700195312 70 252.299804688 70 c 0
 280.900390625 70 312.099609375 73 352.400390625 77 c 0
 449.900390625 87 524 109 537 163 c 1
 535.700195312 307 l 1
85.7001953125 568 m 1
 102.700195312 663 125.700195312 714 292.599609375 714 c 0
 312.099609375 714 332.900390625 713 355 712 c 0
 587 699 608 699 625 483 c 0
 634 372 636 242 636 143 c 0
 636 49 634 -18 634 -18 c 1
 569 -10 562 -11 553 -7 c 0
 545 -3 549 9 544 44 c 1
 508.400390625 -3 433 0 274.400390625 -14 c 0
 253.599609375 -16 232.799804688 -17 214.599609375 -17 c 0
 119.700195312 -17 76.7001953125 18 76.7001953125 163 c 0
 76.7001953125 403 108.700195312 418 269.200195312 422 c 1
 466.799804688 417 534.400390625 413 534.400390625 413 c 1
 518.799804688 571 543 615 355 617 c 0
 326.400390625 619 305.599609375 620 287.400390625 620 c 0
 218.5 620 200.299804688 602 179.5 540 c 1
 85.7001953125 568 l 1
340.700195312 841 m 1
 247.099609375 777 l 1
 129.700195312 777 l 1
 269.200195312 927 l 1
 412.200195312 927 l 1
 558 777 l 1
 434.299804688 777 l 1
 340.700195312 841 l 1
EndSplineSet
EndChar

StartChar: atilde
Encoding: 227 227 163
Width: 706
Flags: HW
LayerCount: 2
Fore
SplineSet
535.700195312 307 m 1
 535.700195312 307 418.700195312 318 332.900390625 323 c 0
 312.099609375 324 295.200195312 325 279.599609375 325 c 0
 197.700195312 325 183.400390625 299 173 162 c 0
 173 155 171.700195312 148 171.700195312 141 c 0
 171.700195312 85 197.700195312 70 252.299804688 70 c 0
 280.900390625 70 312.099609375 73 352.400390625 77 c 0
 449.900390625 87 524 109 537 163 c 1
 535.700195312 307 l 1
85.7001953125 568 m 1
 102.700195312 663 125.700195312 714 292.599609375 714 c 0
 312.099609375 714 332.900390625 713 355 712 c 0
 587 699 608 699 625 483 c 0
 634 372 636 242 636 143 c 0
 636 49 634 -18 634 -18 c 1
 569 -10 562 -11 553 -7 c 0
 545 -3 549 9 544 44 c 1
 508.400390625 -3 433 0 274.400390625 -14 c 0
 253.599609375 -16 232.799804688 -17 214.599609375 -17 c 0
 119.700195312 -17 76.7001953125 18 76.7001953125 163 c 0
 76.7001953125 403 108.700195312 418 269.200195312 422 c 1
 466.799804688 417 534.400390625 413 534.400390625 413 c 1
 518.799804688 571 543 615 355 617 c 0
 326.400390625 619 305.599609375 620 287.400390625 620 c 0
 218.5 620 200.299804688 602 179.5 540 c 1
 85.7001953125 568 l 1
252.299804688 777 m 1
 152.700195312 777 l 1
 152.700195312 915 165.700195312 937 270.5 937 c 0
 414.799804688 937 343.299804688 848 440.799804688 848 c 0
 464.200195312 848 468.099609375 859 468.099609375 922 c 1
 565 922 l 1
 565 784 552 762 449.900390625 762 c 0
 306.900390625 762 377.099609375 851 280.900390625 851 c 0
 256.200195312 851 252.299804688 840 252.299804688 777 c 1
EndSplineSet
EndChar

StartChar: adieresis
Encoding: 228 228 164
Width: 706
Flags: HW
LayerCount: 2
Fore
SplineSet
535.700195312 307 m 1
 535.700195312 307 418.700195312 318 332.900390625 323 c 0
 312.099609375 324 295.200195312 325 279.599609375 325 c 0
 197.700195312 325 183.400390625 299 173 162 c 0
 173 155 171.700195312 148 171.700195312 141 c 0
 171.700195312 85 197.700195312 70 252.299804688 70 c 0
 280.900390625 70 312.099609375 73 352.400390625 77 c 0
 449.900390625 87 524 109 537 163 c 1
 535.700195312 307 l 1
85.7001953125 568 m 1
 102.700195312 663 125.700195312 714 292.599609375 714 c 0
 312.099609375 714 332.900390625 713 355 712 c 0
 587 699 608 699 625 483 c 0
 634 372 636 242 636 143 c 0
 636 49 634 -18 634 -18 c 1
 569 -10 562 -11 553 -7 c 0
 545 -3 549 9 544 44 c 1
 508.400390625 -3 433 0 274.400390625 -14 c 0
 253.599609375 -16 232.799804688 -17 214.599609375 -17 c 0
 119.700195312 -17 76.7001953125 18 76.7001953125 163 c 0
 76.7001953125 403 108.700195312 418 269.200195312 422 c 1
 466.799804688 417 534.400390625 413 534.400390625 413 c 1
 518.799804688 571 543 615 355 617 c 0
 326.400390625 619 305.599609375 620 287.400390625 620 c 0
 218.5 620 200.299804688 602 179.5 540 c 1
 85.7001953125 568 l 1
140.700195312 769 m 1
 134.700195312 896 l 1
 286.099609375 888 l 1
 278.299804688 777 l 1
 140.700195312 769 l 1
401.799804688 777 m 1
 409.599609375 888 l 1
 553 896 l 1
 559 769 l 1
 401.799804688 777 l 1
EndSplineSet
EndChar

StartChar: aring
Encoding: 229 229 165
Width: 706
Flags: HW
LayerCount: 2
Fore
SplineSet
535.700195312 307 m 1
 535.700195312 307 418.700195312 318 332.900390625 323 c 0
 312.099609375 324 295.200195312 325 279.599609375 325 c 0
 197.700195312 325 183.400390625 299 173 162 c 0
 173 155 171.700195312 148 171.700195312 141 c 0
 171.700195312 85 197.700195312 70 252.299804688 70 c 0
 280.900390625 70 312.099609375 73 352.400390625 77 c 0
 449.900390625 87 524 109 537 163 c 1
 535.700195312 307 l 1
85.7001953125 568 m 1
 102.700195312 663 125.700195312 714 292.599609375 714 c 0
 312.099609375 714 332.900390625 713 355 712 c 0
 587 699 608 699 625 483 c 0
 634 372 636 242 636 143 c 0
 636 49 634 -18 634 -18 c 1
 569 -10 562 -11 553 -7 c 0
 545 -3 549 9 544 44 c 1
 508.400390625 -3 433 0 274.400390625 -14 c 0
 253.599609375 -16 232.799804688 -17 214.599609375 -17 c 0
 119.700195312 -17 76.7001953125 18 76.7001953125 163 c 0
 76.7001953125 403 108.700195312 418 269.200195312 422 c 1
 466.799804688 417 534.400390625 413 534.400390625 413 c 1
 518.799804688 571 543 615 355 617 c 0
 326.400390625 619 305.599609375 620 287.400390625 620 c 0
 218.5 620 200.299804688 602 179.5 540 c 1
 85.7001953125 568 l 1
226.299804688 864 m 0
 226.299804688 943 236.700195312 951 340.700195312 951 c 0
 444.700195312 951 455.099609375 943 455.099609375 864 c 0
 455.099609375 781 449.900390625 777 340.700195312 777 c 0
 231.5 777 226.299804688 781 226.299804688 864 c 0
340.700195312 827 m 0
 381 827 383.599609375 829 383.599609375 864 c 0
 383.599609375 898 379.700195312 901 340.700195312 901 c 0
 301.700195312 901 297.799804688 898 297.799804688 864 c 0
 297.799804688 829 300.400390625 827 340.700195312 827 c 0
EndSplineSet
EndChar

StartChar: ae
Encoding: 230 230 166
Width: 1154
Flags: HW
LayerCount: 2
Fore
SplineSet
975.900390625 388 m 1
 975.900390625 405 977.200195312 421 977.200195312 435 c 0
 977.200195312 585 948.599609375 616 804.299804688 616 c 2
 784.799804688 616 l 2
 676.900390625 613 649.599609375 611 649.599609375 410 c 2
 649.599609375 395 l 1
 975.900390625 388 l 1
538.299804688 307 m 1
 538.299804688 307 421.299804688 318 335.5 323 c 0
 314.700195312 324 297.799804688 325 282.200195312 325 c 0
 200.299804688 325 186 299 175.599609375 162 c 0
 175.599609375 155 174.299804688 148 174.299804688 141 c 0
 174.299804688 85 200.299804688 70 254.900390625 70 c 0
 283.5 70 314.700195312 73 355 77 c 0
 452.5 87 526.599609375 109 539.599609375 163 c 1
 538.299804688 307 l 1
998 170 m 1
 1099 144 l 1
 1053 4 1021 -20 835.5 -20 c 2
 822.5 -20 l 2
 678.200195312 -19 613.599609375 -17 581.599609375 46 c 1
 577.599609375 36 575.599609375 33 574.599609375 39 c 1
 545.599609375 -8 434.299804688 -8 275.700195312 -22 c 0
 254.900390625 -24 235.400390625 -24 217.200195312 -24 c 0
 122.299804688 -24 79.2998046875 11 79.2998046875 156 c 0
 79.2998046875 396 111.299804688 411 271.799804688 415 c 1
 469.400390625 410 537 406 537 406 c 1
 521.400390625 564 545.599609375 608 357.599609375 610 c 0
 329 612 308.200195312 613 290 613 c 0
 221.099609375 613 202.900390625 596 182.099609375 534 c 1
 88.2998046875 561 l 1
 105.299804688 656 128.299804688 707 295.200195312 707 c 0
 314.700195312 707 335.5 706 357.599609375 705 c 0
 490.200195312 698 554.599609375 695 584.599609375 660 c 1
 618.599609375 704 688.599609375 706 822.5 708 c 0
 845.900390625 708 866.700195312 709 886.200195312 709 c 0
 1045.20019531 709 1071.20019531 683 1071.20019531 519 c 0
 1071.20019531 467 1069.20019531 400 1066.20019531 315 c 1
 987.200195312 311 l 1
 649.599609375 297 l 1
 656.099609375 66 682.099609375 64 822.5 63 c 2
 832.900390625 63 l 2
 936.900390625 63 960.299804688 80 998 170 c 1
EndSplineSet
EndChar

StartChar: ccedilla
Encoding: 231 231 167
Width: 705
Flags: HW
LayerCount: 2
Fore
SplineSet
523.299804688 185 m 1
 637.900390625 164 l 1
 626.900390625 10 594.900390625 -15 367.299804688 -15 c 1
 353 -51 l 1
 359.5 -49 368.599609375 -49 381.599609375 -49 c 0
 483 -49 498.599609375 -63 498.599609375 -150 c 0
 498.599609375 -235 480.400390625 -248 368.599609375 -248 c 0
 289.299804688 -248 273.700195312 -240 251.599609375 -190 c 1
 310.099609375 -155 l 1
 325.700195312 -190 333.5 -195 364.700195312 -195 c 0
 410.200195312 -195 418 -189 418 -150 c 0
 418 -110 411.5 -104 368.599609375 -104 c 0
 338.700195312 -104 332.200195312 -106 327 -118 c 2
 325.700195312 -120 l 1
 280.200195312 -100 l 1
 315.299804688 -15 l 1
 107 -14 78 8 78 348 c 0
 78 709 111 711 360.799804688 711 c 0
 628.900390625 711 636.900390625 681 636.900390625 495 c 2
 636.900390625 452 l 1
 525.900390625 470 l 1
 525.900390625 496 l 2
 525.900390625 604 520.700195312 621 360.799804688 621 c 0
 219.099609375 621 197 620 197 348 c 0
 197 82 219.099609375 81 360.799804688 81 c 0
 493.400390625 81 515.5 95 523.299804688 185 c 1
EndSplineSet
EndChar

StartChar: egrave
Encoding: 232 232 168
Width: 683
Flags: HW
LayerCount: 2
Fore
SplineSet
505 392 m 1
 505 409 506.299804688 425 506.299804688 439 c 0
 506.299804688 589 477.700195312 620 333.400390625 620 c 2
 313.900390625 620 l 2
 206 617 178.700195312 615 178.700195312 414 c 2
 178.700195312 399 l 1
 505 392 l 1
529.700195312 172 m 1
 630.700195312 146 l 1
 584.700195312 6 552.700195312 -18 367.200195312 -18 c 2
 354.200195312 -18 l 2
 114.700195312 -16 83.7001953125 -14 77.7001953125 355 c 0
 77.7001953125 379 76.7001953125 400 76.7001953125 422 c 0
 76.7001953125 702 118.700195312 705 354.200195312 710 c 0
 377.599609375 710 398.400390625 711 417.900390625 711 c 0
 576.299804688 711 602.299804688 685 602.299804688 520 c 0
 602.299804688 468 600.299804688 400 597.299804688 315 c 2
 597.299804688 317 l 1
 518.299804688 313 l 1
 181.299804688 299 l 1
 187.799804688 68 213.799804688 67 354.200195312 66 c 2
 364.599609375 66 l 2
 468.599609375 66 492 82 529.700195312 172 c 1
304.799804688 777 m 1
 176.700195312 927 l 1
 356.799804688 903 l 1
 434.799804688 777 l 1
 304.799804688 777 l 1
EndSplineSet
EndChar

StartChar: eacute
Encoding: 233 233 169
Width: 683
Flags: HW
LayerCount: 2
Fore
SplineSet
505 392 m 1
 505 409 506.299804688 425 506.299804688 439 c 0
 506.299804688 589 477.700195312 620 333.400390625 620 c 2
 313.900390625 620 l 2
 206 617 178.700195312 615 178.700195312 414 c 2
 178.700195312 399 l 1
 505 392 l 1
529.700195312 172 m 1
 630.700195312 146 l 1
 584.700195312 6 552.700195312 -18 367.200195312 -18 c 2
 354.200195312 -18 l 2
 114.700195312 -16 83.7001953125 -14 77.7001953125 355 c 0
 77.7001953125 379 76.7001953125 400 76.7001953125 422 c 0
 76.7001953125 702 118.700195312 705 354.200195312 710 c 0
 377.599609375 710 398.400390625 711 417.900390625 711 c 0
 576.299804688 711 602.299804688 685 602.299804688 520 c 0
 602.299804688 468 600.299804688 400 597.299804688 315 c 2
 597.299804688 317 l 1
 518.299804688 313 l 1
 181.299804688 299 l 1
 187.799804688 68 213.799804688 67 354.200195312 66 c 2
 364.599609375 66 l 2
 468.599609375 66 492 82 529.700195312 172 c 1
304.799804688 777 m 1
 377.599609375 927 l 1
 520.299804688 893 l 1
 434.799804688 777 l 1
 304.799804688 777 l 1
EndSplineSet
EndChar

StartChar: ecircumflex
Encoding: 234 234 170
Width: 683
Flags: HW
LayerCount: 2
Fore
SplineSet
505 392 m 1
 505 409 506.299804688 425 506.299804688 439 c 0
 506.299804688 589 477.700195312 620 333.400390625 620 c 2
 313.900390625 620 l 2
 206 617 178.700195312 615 178.700195312 414 c 2
 178.700195312 399 l 1
 505 392 l 1
529.700195312 172 m 1
 630.700195312 146 l 1
 584.700195312 6 552.700195312 -18 367.200195312 -18 c 2
 354.200195312 -18 l 2
 114.700195312 -16 83.7001953125 -14 77.7001953125 355 c 0
 77.7001953125 379 76.7001953125 400 76.7001953125 422 c 0
 76.7001953125 702 118.700195312 705 354.200195312 710 c 0
 377.599609375 710 398.400390625 711 417.900390625 711 c 0
 576.299804688 711 602.299804688 685 602.299804688 520 c 0
 602.299804688 468 600.299804688 400 597.299804688 315 c 2
 597.299804688 317 l 1
 518.299804688 313 l 1
 181.299804688 299 l 1
 187.799804688 68 213.799804688 67 354.200195312 66 c 2
 364.599609375 66 l 2
 468.599609375 66 492 82 529.700195312 172 c 1
369.799804688 841 m 1
 261.900390625 777 l 1
 152.700195312 777 l 1
 298.299804688 927 l 1
 404.900390625 913 l 1
 573.299804688 777 l 1
 463.400390625 777 l 1
 369.799804688 841 l 1
EndSplineSet
EndChar

StartChar: edieresis
Encoding: 235 235 171
Width: 683
Flags: HW
LayerCount: 2
Fore
SplineSet
505 392 m 1
 505 409 506.299804688 425 506.299804688 439 c 0
 506.299804688 589 477.700195312 620 333.400390625 620 c 2
 313.900390625 620 l 2
 206 617 178.700195312 615 178.700195312 414 c 2
 178.700195312 399 l 1
 505 392 l 1
529.700195312 172 m 1
 630.700195312 146 l 1
 584.700195312 6 552.700195312 -18 367.200195312 -18 c 2
 354.200195312 -18 l 2
 114.700195312 -16 83.7001953125 -14 77.7001953125 355 c 0
 77.7001953125 379 76.7001953125 400 76.7001953125 422 c 0
 76.7001953125 702 118.700195312 705 354.200195312 710 c 0
 377.599609375 710 398.400390625 711 417.900390625 711 c 0
 576.299804688 711 602.299804688 685 602.299804688 520 c 0
 602.299804688 468 600.299804688 400 597.299804688 315 c 2
 597.299804688 317 l 1
 518.299804688 313 l 1
 181.299804688 299 l 1
 187.799804688 68 213.799804688 67 354.200195312 66 c 2
 364.599609375 66 l 2
 468.599609375 66 492 82 529.700195312 172 c 1
198.200195312 775 m 1
 187.799804688 896 l 1
 342.5 896 l 1
 342.5 777 l 1
 198.200195312 775 l 1
395.799804688 777 m 1
 403.599609375 888 l 1
 540.299804688 896 l 1
 540.299804688 777 l 1
 395.799804688 777 l 1
EndSplineSet
EndChar

StartChar: igrave
Encoding: 236 236 172
Width: 336
Flags: HW
LayerCount: 2
Fore
SplineSet
198.400390625 0 m 1
 143.400390625 0 l 1
 143.400390625 5 l 1
 143.400390625 692 l 1
 143.400390625 697 l 1
 198.400390625 697 l 1
 253.400390625 697 l 1
 253.400390625 5 l 1
 253.400390625 3 l 1
 253.400390625 0 l 1
 198.400390625 0 l 1
148.400390625 777 m 1
 49.400390625 927 l 1
 192.400390625 927 l 1
 248.400390625 777 l 1
 148.400390625 777 l 1
EndSplineSet
EndChar

StartChar: iacute
Encoding: 237 237 173
Width: 325
Flags: HW
LayerCount: 2
Fore
SplineSet
144.700195312 0 m 1
 89.7001953125 0 l 1
 89.7001953125 5 l 1
 89.7001953125 692 l 1
 89.7001953125 697 l 1
 144.700195312 697 l 1
 199.700195312 697 l 1
 199.700195312 5 l 1
 199.700195312 3 l 1
 199.700195312 0 l 1
 144.700195312 0 l 1
94.7001953125 777 m 1
 150.700195312 927 l 1
 293.700195312 927 l 1
 194.700195312 777 l 1
 94.7001953125 777 l 1
EndSplineSet
EndChar

StartChar: icircumflex
Encoding: 238 238 174
Width: 434
Flags: HW
LayerCount: 2
Fore
SplineSet
221.099609375 0 m 1
 166.099609375 0 l 1
 166.099609375 5 l 1
 166.099609375 692 l 1
 166.099609375 697 l 1
 221.099609375 697 l 1
 276.099609375 697 l 1
 276.099609375 5 l 1
 276.099609375 3 l 1
 276.099609375 0 l 1
 221.099609375 0 l 1
221.099609375 841 m 1
 148.099609375 777 l 1
 48.099609375 777 l 1
 166.099609375 927 l 1
 276.099609375 927 l 1
 393.099609375 777 l 1
 293.099609375 777 l 1
 221.099609375 841 l 1
EndSplineSet
EndChar

StartChar: idieresis
Encoding: 239 239 175
Width: 443
Flags: HW
LayerCount: 2
Fore
SplineSet
225.5 0 m 1
 170.5 0 l 1
 170.5 5 l 1
 170.5 692 l 1
 170.5 697 l 1
 225.5 697 l 1
 280.5 697 l 1
 280.5 5 l 1
 280.5 3 l 1
 280.5 0 l 1
 225.5 0 l 1
58.5 777 m 1
 58.5 896 l 1
 177.5 896 l 1
 177.5 777 l 1
 58.5 777 l 1
272.5 777 m 1
 272.5 896 l 1
 391.5 896 l 1
 391.5 777 l 1
 272.5 777 l 1
EndSplineSet
EndChar

StartChar: eth
Encoding: 240 240 176
Width: 700
Flags: HW
LayerCount: 2
Fore
SplineSet
523.299804688 426 m 1
 516.799804688 589 485.599609375 617 364.700195312 617 c 0
 234.700195312 617 211.299804688 581 194.400390625 348 c 1
 194.400390625 116 217.799804688 80 364.700195312 80 c 0
 488.200195312 80 519.400390625 109 523.299804688 282 c 2
 523.299804688 426 l 1
321.799804688 737 m 1
 275 812 l 1
 341.299804688 876 l 1
 254.200195312 907 139.400390625 947 139.400390625 947 c 1
 114.400390625 1059 l 1
 114.400390625 1059 323.099609375 986 405 961 c 0
 410.200195312 960 416.700195312 958 421.900390625 955 c 1
 503.799804688 1036 l 1
 585.299804688 965 l 1
 585.299804688 965 555.299804688 933 515.5 893 c 1
 556.299804688 849 592.299804688 794 605.299804688 754 c 0
 619.299804688 714 630.299804688 520 630.299804688 347 c 0
 630.299804688 220 624.299804688 105 608.299804688 71 c 0
 570.299804688 -9 418 -15 314 -15 c 0
 104.400390625 -15 75.400390625 34 75.400390625 348 c 1
 92.400390625 662 121.400390625 711 314 711 c 2
 329.599609375 711 l 2
 419.299804688 711 446.599609375 710 531.299804688 675 c 1
 526.299804688 732 486.900390625 794 438.799804688 831 c 1
 377.700195312 781 321.799804688 737 321.799804688 737 c 1
EndSplineSet
EndChar

StartChar: ntilde
Encoding: 241 241 177
Width: 653
Flags: HW
LayerCount: 2
Fore
SplineSet
473 -6 m 1
 482.099609375 492 l 1
 482.099609375 507 l 2
 482.099609375 602 456.099609375 607 318.299804688 607 c 0
 252 607 215.599609375 603 197.400390625 585 c 1
 194.400390625 -4 l 1
 88.400390625 -17 l 1
 89.400390625 718 l 1
 197.400390625 697 l 1
 197.400390625 681 l 1
 237.700195312 699 298.799804688 705 393.700195312 705 c 0
 558.099609375 705 580.099609375 694 581.099609375 492 c 2
 584.099609375 -17 l 1
 473 -6 l 1
252 783 m 1
 162.400390625 777 l 1
 162.400390625 787 l 2
 162.400390625 916 163.400390625 937 257.200195312 937 c 0
 401.5 937 341.700195312 844 437.900390625 844 c 2
 449.599609375 844 l 2
 461.299804688 844 462.599609375 847 462.599609375 886 c 2
 462.599609375 902 l 1
 542.099609375 922 l 1
 542.099609375 784 529.099609375 762 436.599609375 762 c 0
 292.299804688 762 363.799804688 851 267.599609375 851 c 0
 253.299804688 851 250.700195312 850 250.700195312 836 c 0
 250.700195312 827 252 810 252 783 c 1
EndSplineSet
EndChar

StartChar: ograve
Encoding: 242 242 178
Width: 720
Flags: HW
LayerCount: 2
Fore
SplineSet
78 348 m 0
 78 709 111 711 364.700195312 711 c 0
 650.400390625 711 651.400390625 662 651.400390625 348 c 0
 651.400390625 -13 618.400390625 -15 364.700195312 -15 c 0
 79 -15 78 34 78 348 c 0
364.700195312 71 m 0
 510.299804688 71 532.400390625 72 532.400390625 348 c 0
 532.400390625 589 531.099609375 626 364.700195312 626 c 0
 219.099609375 626 197 626 197 348 c 0
 197 108 198.299804688 71 364.700195312 71 c 0
299.700195312 777 m 1
 177 927 l 1
 356.900390625 927 l 1
 429.700195312 777 l 1
 299.700195312 777 l 1
EndSplineSet
EndChar

StartChar: oacute
Encoding: 243 243 179
Width: 720
Flags: HW
LayerCount: 2
Fore
SplineSet
78 348 m 0
 78 709 111 711 364.700195312 711 c 0
 650.400390625 711 651.400390625 662 651.400390625 348 c 0
 651.400390625 -13 618.400390625 -15 364.700195312 -15 c 0
 79 -15 78 34 78 348 c 0
364.700195312 71 m 0
 510.299804688 71 532.400390625 72 532.400390625 348 c 0
 532.400390625 589 531.099609375 626 364.700195312 626 c 0
 219.099609375 626 197 626 197 348 c 0
 197 108 198.299804688 71 364.700195312 71 c 0
299.700195312 777 m 1
 372.5 927 l 1
 552.400390625 927 l 1
 429.700195312 777 l 1
 299.700195312 777 l 1
EndSplineSet
EndChar

StartChar: ocircumflex
Encoding: 244 244 180
Width: 690
Flags: HW
LayerCount: 2
Fore
SplineSet
78 348 m 0
 78 709 110 711 350.400390625 711 c 0
 620.5 711 621.5 662 621.5 348 c 0
 621.5 -13 590.5 -15 350.400390625 -15 c 0
 79 -15 78 34 78 348 c 0
350.400390625 71 m 0
 493.400390625 71 515.5 72 515.5 348 c 0
 515.5 589 514.200195312 626 350.400390625 626 c 0
 206.099609375 626 184 626 184 348 c 0
 184 108 185.299804688 71 350.400390625 71 c 0
346.5 839 m 1
 252.900390625 775 l 1
 137 775 l 1
 275 925 l 1
 418 925 l 1
 558.5 775 l 1
 438.799804688 775 l 1
 346.5 839 l 1
EndSplineSet
EndChar

StartChar: otilde
Encoding: 245 245 181
Width: 689
Flags: HW
LayerCount: 2
Fore
SplineSet
251.599609375 777 m 1
 155 777 l 1
 155 915 168 937 269.799804688 937 c 0
 414.099609375 937 342.599609375 848 438.799804688 848 c 0
 463.5 848 467.400390625 859 467.400390625 922 c 1
 559.5 922 l 1
 559.5 784 546.5 762 449.200195312 762 c 0
 304.900390625 762 376.400390625 851 280.200195312 851 c 0
 255.5 851 251.599609375 840 251.599609375 777 c 1
78 348 m 0
 78 709 110 711 350.400390625 711 c 0
 620.5 711 621.5 662 621.5 348 c 0
 621.5 -13 590.5 -15 350.400390625 -15 c 0
 79 -15 78 34 78 348 c 0
350.400390625 71 m 0
 493.400390625 71 515.5 72 515.5 348 c 0
 515.5 589 514.200195312 626 350.400390625 626 c 0
 206.099609375 626 184 626 184 348 c 0
 184 108 185.299804688 71 350.400390625 71 c 0
EndSplineSet
EndChar

StartChar: odieresis
Encoding: 246 246 182
Width: 720
Flags: HW
LayerCount: 2
Fore
SplineSet
78 348 m 0
 78 709 111 711 364.700195312 711 c 0
 650.400390625 711 651.400390625 662 651.400390625 348 c 0
 651.400390625 -13 618.400390625 -15 364.700195312 -15 c 0
 79 -15 78 34 78 348 c 0
364.700195312 71 m 0
 510.299804688 71 532.400390625 72 532.400390625 348 c 0
 532.400390625 589 531.099609375 626 364.700195312 626 c 0
 219.099609375 626 197 626 197 348 c 0
 197 108 198.299804688 71 364.700195312 71 c 0
186 777 m 1
 186 896 l 1
 338.700195312 896 l 1
 338.700195312 777 l 1
 186 777 l 1
392 777 m 1
 392 896 l 1
 544.400390625 896 l 1
 544.400390625 777 l 1
 392 777 l 1
EndSplineSet
EndChar

StartChar: divide
Encoding: 247 247 183
Width: 938
Flags: HW
LayerCount: 2
Fore
SplineSet
419.139648438 300 m 1
 534.33984375 288 l 1
 531.740234375 176 l 1
 421.740234375 164 l 1
 419.139648438 300 l 1
400.940429688 714 m 1
 529.740234375 702 l 1
 527.740234375 604 l 1
 403.540039062 592 l 1
 400.940429688 714 l 1
77.400390625 508 m 1
 870.879882812 490 l 1
 872.879882812 384 l 1
 75.400390625 396 l 1
 77.400390625 508 l 1
EndSplineSet
EndChar

StartChar: oslash
Encoding: 248 248 184
Width: 724
Flags: HW
LayerCount: 2
Fore
SplineSet
206.099609375 183 m 1
 518.099609375 572 l 1
 497.299804688 616 455.700195312 626 368.599609375 626 c 0
 223 626 200.900390625 626 200.900390625 348 c 0
 200.900390625 277 200.900390625 223 206.099609375 183 c 1
81.900390625 348 m 0
 81.900390625 709 114.900390625 711 368.599609375 711 c 0
 484.299804688 711 553.299804688 705 590.299804688 682 c 1
 608.299804688 711 l 1
 655.299804688 711 l 1
 620.299804688 654 l 1
 655.299804688 603 655.299804688 512 655.299804688 348 c 0
 655.299804688 -13 622.299804688 -15 368.599609375 -15 c 0
 252.900390625 -15 183.900390625 -9 147.900390625 14 c 1
 129.900390625 -15 l 1
 81.900390625 -15 l 1
 117.900390625 42 l 1
 81.900390625 93 81.900390625 184 81.900390625 348 c 0
368.599609375 71 m 0
 514.200195312 71 536.299804688 72 536.299804688 348 c 0
 536.299804688 419 536.299804688 473 531.099609375 512 c 1
 220.400390625 124 l 1
 239.900390625 81 282.799804688 71 368.599609375 71 c 0
EndSplineSet
EndChar

StartChar: ugrave
Encoding: 249 249 185
Width: 637
Flags: HW
LayerCount: 2
Fore
SplineSet
454.5 210 m 2
 454.5 693 l 1
 562.5 709 l 1
 563.5 -11 l 1
 563.5 -15 l 1
 460.5 -38 l 1
 454.5 5 l 1
 454.5 15 l 1
 454.5 25 l 1
 423.299804688 -7 407.700195312 -15 310.200195312 -15 c 0
 95.5 -15 84.5 -5 84.5 198 c 2
 85.5 701 l 1
 193.5 685 l 1
 194.5 198 l 1
 194.5 150 l 2
 194.5 93 204.900390625 90 315.400390625 90 c 0
 436.299804688 90 454.5 106 454.5 210 c 2
259.5 777 m 1
 144.5 927 l 1
 315.400390625 927 l 1
 389.5 777 l 1
 259.5 777 l 1
EndSplineSet
EndChar

StartChar: uacute
Encoding: 250 250 186
Width: 637
Flags: HW
LayerCount: 2
Fore
SplineSet
454.5 210 m 2
 454.5 693 l 1
 562.5 709 l 1
 563.5 -11 l 1
 563.5 -15 l 1
 460.5 -38 l 1
 454.5 5 l 1
 454.5 15 l 1
 454.5 25 l 1
 423.299804688 -7 407.700195312 -15 310.200195312 -15 c 0
 95.5 -15 84.5 -5 84.5 198 c 2
 85.5 701 l 1
 193.5 685 l 1
 194.5 198 l 1
 194.5 150 l 2
 194.5 93 204.900390625 90 315.400390625 90 c 0
 436.299804688 90 454.5 106 454.5 210 c 2
259.5 777 m 1
 332.299804688 927 l 1
 503.5 927 l 1
 389.5 777 l 1
 259.5 777 l 1
EndSplineSet
EndChar

StartChar: ucircumflex
Encoding: 251 251 187
Width: 637
Flags: HW
LayerCount: 2
Fore
SplineSet
454.5 210 m 2
 454.5 693 l 1
 562.5 709 l 1
 563.5 -11 l 1
 563.5 -15 l 1
 460.5 -38 l 1
 454.5 5 l 1
 454.5 15 l 1
 454.5 25 l 1
 423.299804688 -7 407.700195312 -15 310.200195312 -15 c 0
 95.5 -15 84.5 -5 84.5 198 c 2
 85.5 701 l 1
 193.5 685 l 1
 194.5 198 l 1
 194.5 150 l 2
 194.5 93 204.900390625 90 315.400390625 90 c 0
 436.299804688 90 454.5 106 454.5 210 c 2
324.5 841 m 1
 229.599609375 777 l 1
 121.5 777 l 1
 251.700195312 927 l 1
 396 927 l 1
 526.5 777 l 1
 418.099609375 777 l 1
 324.5 841 l 1
EndSplineSet
EndChar

StartChar: udieresis
Encoding: 252 252 188
Width: 637
Flags: HW
LayerCount: 2
Fore
SplineSet
454.5 210 m 2
 454.5 693 l 1
 562.5 709 l 1
 563.5 -11 l 1
 563.5 -15 l 1
 460.5 -38 l 1
 454.5 5 l 1
 454.5 15 l 1
 454.5 25 l 1
 423.299804688 -7 407.700195312 -15 310.200195312 -15 c 0
 95.5 -15 84.5 -5 84.5 198 c 2
 85.5 701 l 1
 193.5 685 l 1
 194.5 198 l 1
 194.5 150 l 2
 194.5 93 204.900390625 90 315.400390625 90 c 0
 436.299804688 90 454.5 106 454.5 210 c 2
150.5 769 m 1
 150.5 888 l 1
 297.200195312 896 l 1
 297.200195312 777 l 1
 150.5 769 l 1
345.299804688 769 m 1
 350.5 896 l 1
 489.5 888 l 1
 493.5 777 l 1
 345.299804688 769 l 1
EndSplineSet
EndChar

StartChar: yacute
Encoding: 253 253 189
Width: 631
Flags: HW
LayerCount: 2
Fore
SplineSet
55.900390625 690 m 1
 175.900390625 718 l 1
 300.83984375 162 l 1
 455.1796875 721 l 1
 582.1796875 689 l 1
 359.33984375 -80 l 1
 321.639648438 -190 335.940429688 -200 218.940429688 -200 c 2
 140.900390625 -200 l 1
 104.900390625 -198 l 1
 81.900390625 -104 l 1
 105.900390625 -106 l 1
 162.900390625 -106 l 2
 230.639648438 -106 221.540039062 -99 242.33984375 -36 c 2
 248.83984375 -13 l 1
 55.900390625 690 l 1
252.740234375 777 m 1
 326.83984375 927 l 1
 451.1796875 905 l 1
 382.740234375 777 l 1
 252.740234375 777 l 1
EndSplineSet
EndChar

StartChar: thorn
Encoding: 254 254 190
Width: 687
Flags: HW
LayerCount: 2
Fore
SplineSet
99.900390625 927 m 1
 192.900390625 927 l 1
 192.900390625 679 l 1
 234.5 711 299.5 711 404.799804688 711 c 0
 616.700195312 711 617.700195312 708 617.700195312 394 c 0
 617.700195312 80 616.700195312 -15 404.799804688 -15 c 0
 299.5 -15 234.5 -15 192.900390625 17 c 1
 192.900390625 -250 l 1
 137.900390625 -250 l 1
 81.900390625 -245 l 1
 99.900390625 927 l 1
365.799804688 67 m 0
 512.700195312 67 525.700195312 115 525.700195312 348 c 0
 525.700195312 581 502.299804688 617 354.099609375 617 c 0
 216.299804688 617 192.900390625 616 192.900390625 348 c 0
 192.900390625 80 225.400390625 67 365.799804688 67 c 0
EndSplineSet
EndChar

StartChar: ydieresis
Encoding: 255 255 191
Width: 631
Flags: HW
LayerCount: 2
Fore
SplineSet
55.900390625 690 m 1
 175.900390625 718 l 1
 300.83984375 162 l 1
 455.1796875 721 l 1
 582.1796875 689 l 1
 359.33984375 -80 l 1
 321.639648438 -190 335.940429688 -200 218.940429688 -200 c 2
 140.900390625 -200 l 1
 104.900390625 -198 l 1
 81.900390625 -104 l 1
 105.900390625 -106 l 1
 162.900390625 -106 l 2
 230.639648438 -106 221.540039062 -99 242.33984375 -36 c 2
 248.83984375 -13 l 1
 55.900390625 690 l 1
153.900390625 777 m 1
 153.900390625 896 l 1
 291.740234375 896 l 1
 291.740234375 777 l 1
 153.900390625 777 l 1
345.040039062 777 m 1
 360.639648438 886 l 1
 483.1796875 896 l 1
 483.1796875 777 l 1
 345.040039062 777 l 1
EndSplineSet
EndChar

StartChar: Amacron
Encoding: 256 256 192
Width: 915
Flags: HW
LayerCount: 2
Fore
SplineSet
267.040039062 279 m 1
 667.440429688 280 l 1
 454.240234375 779 l 1
 267.040039062 279 l 1
59.7998046875 6 m 1
 382.740234375 928 l 1
 553.040039062 927 l 1
 870.780273438 5 l 1
 778.780273438 -26 l 1
 703.83984375 193 l 1
 231.940429688 184 l 1
 167.799804688 -22 l 1
 59.7998046875 6 l 1
257.940429688 1007 m 1
 257.940429688 1083 l 1
 645.33984375 1069 l 1
 637.540039062 1007 l 1
 257.940429688 1007 l 1
EndSplineSet
EndChar

StartChar: amacron
Encoding: 257 257 193
Width: 707
Flags: HW
LayerCount: 2
Fore
SplineSet
537 307 m 1
 537 307 420 318 334.200195312 323 c 0
 313.400390625 324 296.5 325 280.900390625 325 c 0
 199 325 184.700195312 299 174.299804688 162 c 0
 174.299804688 155 173 148 173 141 c 0
 173 85 199 70 253.599609375 70 c 0
 282.200195312 70 313.400390625 73 353.700195312 77 c 0
 451.200195312 87 525.299804688 109 538.299804688 163 c 1
 537 307 l 1
87 561 m 1
 104 656 127 707 293.900390625 707 c 0
 313.400390625 707 334.200195312 706 356.299804688 705 c 0
 588.299804688 692 609.299804688 692 626.299804688 476 c 0
 635.299804688 365 637.299804688 235 637.299804688 136 c 0
 637.299804688 42 636.299804688 -25 636.299804688 -25 c 1
 571.299804688 -17 563.299804688 -18 554.299804688 -14 c 0
 546.299804688 -10 550.299804688 2 545.299804688 37 c 1
 509.700195312 -10 434.299804688 -8 275.700195312 -22 c 0
 254.900390625 -24 234.099609375 -24 215.900390625 -24 c 0
 121 -24 78 11 78 156 c 0
 78 396 110 411 270.5 415 c 1
 468.099609375 410 535.700195312 406 535.700195312 406 c 1
 520.099609375 564 544.299804688 608 356.299804688 610 c 0
 327.700195312 612 306.900390625 613 288.700195312 613 c 0
 219.799804688 613 201.599609375 596 180.799804688 534 c 1
 87 561 l 1
158 785 m 1
 158 853 l 1
 530.5 853 l 1
 530.5 777 l 1
 158 785 l 1
EndSplineSet
EndChar

StartChar: Abreve
Encoding: 258 258 194
Width: 915
Flags: HW
LayerCount: 2
Fore
SplineSet
281.33984375 279 m 1
 681.740234375 280 l 1
 468.540039062 779 l 1
 281.33984375 279 l 1
59.7998046875 6 m 1
 382.740234375 928 l 1
 553.040039062 927 l 1
 870.780273438 5 l 1
 778.780273438 -26 l 1
 703.83984375 193 l 1
 231.940429688 184 l 1
 167.799804688 -22 l 1
 59.7998046875 6 l 1
261.83984375 1134 m 1
 367.139648438 1140 l 1
 367.139648438 1079 381.440429688 1069 463.33984375 1069 c 0
 545.240234375 1069 559.540039062 1079 559.540039062 1140 c 1
 664.83984375 1140 l 1
 664.83984375 1034 642.740234375 986 537.440429688 986 c 0
 516.639648438 986 491.940429688 988 463.33984375 992 c 0
 294.33984375 1014 261.83984375 1006 261.83984375 1134 c 1
EndSplineSet
EndChar

StartChar: abreve
Encoding: 259 259 195
Width: 706
Flags: HW
LayerCount: 2
Fore
SplineSet
535.700195312 307 m 1
 535.700195312 307 418.700195312 318 332.900390625 323 c 0
 312.099609375 324 295.200195312 325 279.599609375 325 c 0
 197.700195312 325 183.400390625 299 173 162 c 0
 173 155 171.700195312 148 171.700195312 141 c 0
 171.700195312 85 197.700195312 70 252.299804688 70 c 0
 280.900390625 70 312.099609375 73 352.400390625 77 c 0
 449.900390625 87 524 109 537 163 c 1
 535.700195312 307 l 1
85.7001953125 561 m 1
 102.700195312 656 125.700195312 707 292.599609375 707 c 0
 312.099609375 707 332.900390625 706 355 705 c 0
 587 692 608 692 625 476 c 0
 634 365 636 235 636 136 c 0
 636 42 634 -25 634 -25 c 1
 569 -17 562 -18 553 -14 c 0
 545 -10 549 2 544 37 c 1
 508.400390625 -10 433 -8 274.400390625 -22 c 0
 253.599609375 -24 232.799804688 -24 214.599609375 -24 c 0
 119.700195312 -24 76.7001953125 11 76.7001953125 156 c 0
 76.7001953125 396 108.700195312 411 269.200195312 415 c 1
 466.799804688 410 534.400390625 406 534.400390625 406 c 1
 518.799804688 564 543 608 355 610 c 0
 326.400390625 612 305.599609375 613 287.400390625 613 c 0
 218.5 613 200.299804688 596 179.5 534 c 1
 85.7001953125 561 l 1
146.700195312 916 m 1
 244.5 916 l 1
 244.5 855 258.799804688 845 340.700195312 845 c 0
 422.599609375 845 436.900390625 855 436.900390625 916 c 1
 541 916 l 1
 541 788 512.299804688 786 340.700195312 778 c 0
 318.599609375 777 299.099609375 776 282.200195312 776 c 0
 164.700195312 776 146.700195312 804 146.700195312 916 c 1
EndSplineSet
EndChar

StartChar: Aogonek
Encoding: 260 260 196
Width: 1055
Flags: HW
LayerCount: 2
Fore
SplineSet
299.540039062 280 m 1
 659.639648438 280 l 1
 496 791 l 1
 299.540039062 280 l 1
127 0 m 1
 59.7998046875 0 l 1
 409.83984375 927 l 1
 420.240234375 927 l 1
 475.040039062 933 l 1
 557.940429688 941 l 1
 564.440429688 941 l 1
 921.580078125 0 l 1
 897.580078125 -14 866.33984375 -39 866.33984375 -86 c 0
 866.33984375 -136 876.580078125 -144 943.580078125 -144 c 0
 991.580078125 -144 1000.58007812 -142 1009.58007812 -132 c 1
 1021.58007812 -195 l 1
 1006.58007812 -211 995.580078125 -214 936.580078125 -214 c 0
 810.440429688 -214 787.040039062 -198 787.040039062 -97 c 0
 787.040039062 -56 814.33984375 -24 849.440429688 0 c 1
 771.440429688 0 l 2
 770.139648438 2 770.139648438 3 768.83984375 5 c 2
 698.639648438 183 l 1
 261.83984375 183 l 1
 195.799804688 5 l 2
 195.025390625 2.9130859375 194.799804688 2 193.799804688 0 c 2
 127 0 l 1
EndSplineSet
EndChar

StartChar: aogonek
Encoding: 261 261 197
Width: 750
Flags: HW
LayerCount: 2
Fore
SplineSet
538.299804688 307 m 1
 538.299804688 307 421.299804688 318 335.5 323 c 0
 314.700195312 324 297.799804688 325 282.200195312 325 c 0
 200.299804688 325 186 299 175.599609375 162 c 0
 175.599609375 155 174.299804688 148 174.299804688 141 c 0
 174.299804688 85 200.299804688 70 254.900390625 70 c 0
 283.5 70 314.700195312 73 355 77 c 0
 452.5 87 526.599609375 109 539.599609375 163 c 1
 538.299804688 307 l 1
637.5 -25 m 1
 639.5 -70 l 1
 639.5 -73 l 1
 619.5 -81 593.5 -96 593.5 -123 c 0
 593.5 -155 602.5 -160 656.5 -160 c 0
 696.5 -160 704.5 -158 711.5 -152 c 1
 720.5 -191 l 1
 709.5 -200 700.5 -202 652.5 -202 c 0
 559.5 -202 544.5 -192 544.5 -130 c 0
 544.5 -112 543.5 -9 543.5 32 c 1
 504.5 -10 427.799804688 -9 275.700195312 -22 c 0
 254.900390625 -24 235.400390625 -24 217.200195312 -24 c 0
 122.299804688 -24 79.2998046875 11 79.2998046875 156 c 0
 79.2998046875 396 111.299804688 411 271.799804688 415 c 1
 469.400390625 410 537 406 537 406 c 1
 521.400390625 564 546.5 608 357.599609375 610 c 0
 329 612 308.200195312 613 290 613 c 0
 221.099609375 613 202.900390625 596 182.099609375 534 c 1
 88.2998046875 561 l 1
 105.299804688 656 128.299804688 707 295.200195312 707 c 0
 314.700195312 707 335.5 706 357.599609375 705 c 0
 590.5 692 611.5 692 628.5 476 c 0
 637.5 365 639.5 235 639.5 136 c 0
 639.5 42 637.5 -25 637.5 -25 c 1
EndSplineSet
EndChar

StartChar: Cacute
Encoding: 262 262 198
Width: 769
Flags: HW
LayerCount: 2
Fore
SplineSet
697.599609375 97 m 2
 717.599609375 -1 l 2
 716.599609375 -8 687.599609375 -9 503.599609375 -9 c 0
 134.700195312 -9 76.7001953125 86 76.7001953125 411 c 2
 76.7001953125 465 l 1
 82.7001953125 833 130.700195312 941 485.799804688 941 c 2
 503.599609375 941 l 2
 689.599609375 938 718.599609375 938 718.599609375 937 c 2
 696.599609375 844 l 2
 696.599609375 842 681.599609375 839 604.599609375 839 c 0
 578.599609375 839 545.599609375 839 503.599609375 840 c 2
 493.599609375 840 l 2
 250.5 840 210.200195312 754 203.700195312 465 c 1
 203.700195312 414 l 2
 203.700195312 166 254.400390625 93 503.599609375 93 c 0
 670.599609375 93 696.599609375 94 697.599609375 97 c 2
405.200195312 1007 m 1
 478 1157 l 1
 624.599609375 1157 l 1
 525.599609375 1007 l 1
 405.200195312 1007 l 1
EndSplineSet
EndChar

StartChar: cacute
Encoding: 263 263 199
Width: 704
Flags: HW
LayerCount: 2
Fore
SplineSet
523.299804688 185 m 1
 637.900390625 164 l 1
 626.900390625 9 593.900390625 -15 360.799804688 -15 c 0
 111 -15 78 -13 78 348 c 0
 78 709 111 711 360.799804688 711 c 0
 628.900390625 711 636.900390625 681 636.900390625 495 c 2
 636.900390625 452 l 1
 525.900390625 470 l 1
 525.900390625 496 l 2
 525.900390625 604 520.700195312 621 360.799804688 621 c 0
 219.099609375 621 197 620 197 348 c 0
 197 82 219.099609375 81 360.799804688 81 c 0
 493.400390625 81 515.5 95 523.299804688 185 c 1
295.799804688 777 m 1
 368.599609375 927 l 1
 547.900390625 927 l 1
 425.799804688 777 l 1
 295.799804688 777 l 1
EndSplineSet
EndChar

StartChar: Ccircumflex
Encoding: 264 264 200
Width: 791
Flags: HW
LayerCount: 2
Fore
SplineSet
444.200195312 1071 m 1
 350.599609375 1007 l 1
 220.599609375 1007 l 1
 372.700195312 1157 l 1
 515.700195312 1157 l 1
 648.83984375 1007 l 1
 537.799804688 1007 l 1
 444.200195312 1071 l 1
625.83984375 839 m 0
 598.83984375 839 548.200195312 840 493.599609375 840 c 0
 250.5 840 210.200195312 754 203.700195312 465 c 1
 203.700195312 414 l 2
 203.700195312 166 254.400390625 93 506.599609375 93 c 0
 691.83984375 93 717.83984375 94 718.83984375 97 c 2
 738.83984375 -1 l 2
 737.83984375 -8 708.83984375 -9 506.599609375 -9 c 0
 134.700195312 -9 76.7001953125 86 76.7001953125 411 c 2
 76.7001953125 465 l 1
 82.7001953125 833 130.700195312 941 485.799804688 941 c 0
 682.83984375 941 739.83984375 937 739.83984375 937 c 1
 717.83984375 844 l 2
 717.83984375 842 702.83984375 839 625.83984375 839 c 0
EndSplineSet
EndChar

StartChar: Cdotaccent
Encoding: 266 266 201
Width: 791
Flags: HW
LayerCount: 2
Fore
SplineSet
366.200195312 1007 m 1
 366.200195312 1126 l 1
 522.200195312 1126 l 1
 522.200195312 1007 l 1
 366.200195312 1007 l 1
625.83984375 839 m 0
 598.83984375 839 548.200195312 840 493.599609375 840 c 0
 250.5 840 210.200195312 754 203.700195312 465 c 1
 203.700195312 414 l 2
 203.700195312 166 254.400390625 93 506.599609375 93 c 0
 691.83984375 93 717.83984375 94 718.83984375 97 c 2
 738.83984375 -1 l 2
 737.83984375 -8 708.83984375 -9 506.599609375 -9 c 0
 134.700195312 -9 76.7001953125 86 76.7001953125 411 c 2
 76.7001953125 465 l 1
 82.7001953125 833 130.700195312 941 485.799804688 941 c 0
 682.83984375 941 739.83984375 937 739.83984375 937 c 1
 717.83984375 844 l 2
 717.83984375 842 702.83984375 839 625.83984375 839 c 0
EndSplineSet
EndChar

StartChar: cdotaccent
Encoding: 267 267 202
Width: 677
Flags: HW
LayerCount: 2
Fore
SplineSet
234.200195312 777 m 1
 234.200195312 896 l 1
 388.900390625 896 l 1
 388.900390625 777 l 1
 234.200195312 777 l 1
528 155 m 1
 619 138 l 1
 597 22 592 -10 359 -10 c 0
 110.700195312 -10 90.7001953125 -7 78.7001953125 355 c 0
 77.7001953125 389 76.7001953125 421 76.7001953125 449 c 0
 76.7001953125 683 121.700195312 708 296.599609375 708 c 0
 316.099609375 708 336.900390625 707 359 707 c 0
 617 700 598 630 621 570 c 1
 531 549 l 1
 513.700195312 583 531 616 359 617 c 0
 336.900390625 617 317.400390625 618 299.200195312 618 c 0
 209.5 618 175.700195312 597 175.700195312 377 c 0
 175.700195312 107 225.099609375 84 359 84 c 0
 483.799804688 84 517.599609375 86 528 155 c 1
EndSplineSet
EndChar

StartChar: Ccaron
Encoding: 268 268 203
Width: 771
Flags: HW
LayerCount: 2
Fore
SplineSet
697.599609375 97 m 2
 717.599609375 -1 l 2
 716.599609375 -8 687.599609375 -9 503.599609375 -9 c 0
 134.700195312 -9 76.7001953125 86 76.7001953125 411 c 2
 76.7001953125 465 l 1
 82.7001953125 833 130.700195312 941 485.799804688 941 c 2
 503.599609375 941 l 2
 689.599609375 938 718.599609375 938 718.599609375 937 c 2
 696.599609375 840 l 2
 696.599609375 839 690.599609375 838 662.599609375 838 c 0
 635.599609375 838 587.599609375 839 503.599609375 840 c 2
 493.599609375 840 l 2
 250.5 840 210.200195312 754 203.700195312 465 c 1
 203.700195312 414 l 2
 203.700195312 166 254.400390625 93 503.599609375 93 c 0
 670.599609375 93 696.599609375 94 697.599609375 97 c 2
470.200195312 1093 m 1
 557.599609375 1147 l 1
 647.599609375 1157 l 1
 530.599609375 1007 l 1
 448.099609375 997 l 1
 246.599609375 1157 l 1
 376.599609375 1157 l 1
 470.200195312 1093 l 1
EndSplineSet
EndChar

StartChar: ccaron
Encoding: 269 269 204
Width: 677
Flags: HW
LayerCount: 2
Fore
SplineSet
312.200195312 863 m 1
 405.799804688 927 l 1
 534 927 l 1
 383.700195312 777 l 1
 239.400390625 777 l 1
 107.700195312 927 l 1
 217.299804688 927 l 1
 312.200195312 863 l 1
528 155 m 1
 619 138 l 1
 597 22 592 -10 359 -10 c 0
 110.700195312 -10 90.7001953125 -7 78.7001953125 355 c 0
 77.7001953125 389 76.7001953125 421 76.7001953125 449 c 0
 76.7001953125 683 121.700195312 708 296.599609375 708 c 0
 316.099609375 708 336.900390625 707 359 707 c 0
 617 700 598 630 621 570 c 1
 531 549 l 1
 513.700195312 583 531 616 359 617 c 0
 336.900390625 617 317.400390625 618 299.200195312 618 c 0
 209.5 618 175.700195312 597 175.700195312 377 c 0
 175.700195312 107 225.099609375 84 359 84 c 0
 483.799804688 84 517.599609375 86 528 155 c 1
EndSplineSet
EndChar

StartChar: Dcaron
Encoding: 270 270 205
Width: 901
Flags: HW
LayerCount: 2
Fore
SplineSet
150 0 m 1
 91 0 l 1
 91 5 l 1
 96 927 l 1
 145 927 l 1
 194 927 l 1
 361.400390625 927 l 2
 784.799804688 927 836.799804688 908 836.799804688 589 c 0
 836.799804688 551 835.799804688 510 834.799804688 463 c 0
 825.799804688 10 817.799804688 0 400.400390625 0 c 2
 210.599609375 0 l 1
 206 0 l 1
 150 0 l 1
382.200195312 1093 m 1
 475.799804688 1157 l 1
 605.799804688 1157 l 1
 453.700195312 1007 l 1
 310.700195312 1007 l 1
 169 1157 l 1
 287.299804688 1157 l 1
 382.200195312 1093 l 1
208 97 m 1
 283.400390625 97 312 96 388.700195312 96 c 0
 691.599609375 96 698.099609375 104 707.200195312 463 c 0
 708.5 504 709.799804688 540 709.799804688 573 c 0
 709.799804688 816 661.700195312 830 367.900390625 830 c 2
 196 830 l 1
 208 97 l 1
EndSplineSet
EndChar

StartChar: dcaron
Encoding: 271 271 206
Width: 841
Flags: HW
LayerCount: 2
Fore
SplineSet
525.900390625 348 m 0
 525.900390625 581 503.799804688 617 366 617 c 0
 219.099609375 617 195.700195312 581 195.700195312 348 c 0
 195.700195312 116 219.099609375 80 366 80 c 0
 503.799804688 80 525.900390625 116 525.900390625 348 c 0
76.7001953125 348 m 0
 76.7001953125 662 105.700195312 711 315.299804688 711 c 0
 419.299804688 711 484.299804688 702 525.900390625 665 c 1
 525.900390625 918 l 1
 525.900390625 922 l 1
 525.900390625 927 l 1
 580.900390625 927 l 1
 634.900390625 927 l 1
 634.900390625 918 l 1
 634.900390625 10 l 1
 634.900390625 5 l 2
 635.900390625 5 635.900390625 5 634.900390625 3 c 0
 635.900390625 0 635.900390625 0 634.900390625 0 c 2
 580.900390625 0 l 1
 525.900390625 0 l 1
 525.900390625 10 l 1
 525.900390625 31 l 1
 484.299804688 -6 419.299804688 -15 315.299804688 -15 c 0
 105.700195312 -15 76.7001953125 34 76.7001953125 348 c 0
684.900390625 941 m 1
 804.900390625 941 l 1
 764.900390625 791 l 1
 683.900390625 791 l 1
 684.900390625 941 l 1
EndSplineSet
EndChar

StartChar: Dcroat
Encoding: 272 272 207
Width: 960
Flags: HW
LayerCount: 2
Fore
SplineSet
262.700195312 97 m 1
 339.400390625 97 362.799804688 96 440.799804688 96 c 0
 751.5 96 759.299804688 104 759.299804688 463 c 0
 759.299804688 812 742.400390625 830 420 830 c 2
 262.700195312 830 l 1
 262.700195312 504 l 1
 434.299804688 504 l 1
 434.299804688 423 l 1
 262.700195312 423 l 1
 262.700195312 97 l 1
63.7001953125 423 m 1
 63.7001953125 504 l 1
 143.700195312 504 l 1
 143.700195312 922 l 1
 143.700195312 927 l 1
 202.700195312 927 l 1
 262.700195312 927 l 1
 413.5 927 l 2
 867.299804688 927 886.299804688 905 886.299804688 463 c 0
 886.299804688 10 878.299804688 0 452.5 0 c 2
 262.700195312 0 l 1
 202.700195312 0 l 1
 143.700195312 0 l 1
 143.700195312 5 l 1
 143.700195312 423 l 1
 63.7001953125 423 l 1
EndSplineSet
EndChar

StartChar: dcroat
Encoding: 273 273 208
Width: 788
Flags: HW
LayerCount: 2
Fore
SplineSet
525.900390625 348 m 0
 525.900390625 581 503.799804688 617 366 617 c 0
 219.099609375 617 195.700195312 581 195.700195312 348 c 0
 195.700195312 116 219.099609375 80 366 80 c 0
 503.799804688 80 525.900390625 116 525.900390625 348 c 0
315.299804688 779 m 1
 315.299804688 859 l 1
 525.900390625 859 l 1
 525.900390625 918 l 1
 525.900390625 922 l 1
 525.900390625 927 l 1
 580.900390625 927 l 1
 634.900390625 927 l 1
 634.900390625 918 l 1
 634.900390625 859 l 1
 744.900390625 859 l 1
 744.900390625 779 l 1
 634.900390625 779 l 1
 634.900390625 10 l 1
 634.900390625 5 l 2
 635.900390625 5 635.900390625 5 634.900390625 3 c 0
 635.900390625 0 635.900390625 0 634.900390625 0 c 2
 580.900390625 0 l 1
 525.900390625 0 l 1
 525.900390625 10 l 1
 525.900390625 31 l 1
 484.299804688 -6 419.299804688 -15 315.299804688 -15 c 0
 105.700195312 -15 76.7001953125 34 76.7001953125 348 c 0
 76.7001953125 662 105.700195312 711 315.299804688 711 c 0
 419.299804688 711 484.299804688 702 525.900390625 665 c 1
 525.900390625 779 l 1
 315.299804688 779 l 1
EndSplineSet
EndChar

StartChar: Emacron
Encoding: 274 274 209
Width: 718
Flags: HW
LayerCount: 2
Fore
SplineSet
662.940429688 51 m 1
 662.940429688 0 l 1
 212.599609375 0 l 1
 211.599609375 0 l 1
 152.599609375 0 l 1
 93.599609375 0 l 1
 93.599609375 5 l 1
 93.599609375 922 l 1
 93.599609375 927 l 1
 152.599609375 927 l 1
 211.599609375 927 l 1
 212.599609375 927 l 1
 647.940429688 927 l 1
 647.940429688 876 l 1
 647.940429688 826 l 1
 642.940429688 826 l 1
 212.599609375 826 l 1
 212.599609375 466 l 1
 623.940429688 466 l 1
 627.940429688 466 l 1
 627.940429688 417 l 1
 627.940429688 369 l 1
 623.940429688 369 l 1
 212.599609375 369 l 1
 212.599609375 101 l 1
 657.940429688 101 l 2
 657.940429688 102 657.940429688 102 659.940429688 101 c 0
 662.940429688 102 662.940429688 102 662.940429688 101 c 2
 662.940429688 51 l 1
191.599609375 1007 m 1
 191.599609375 1083 l 1
 549.940429688 1083 l 1
 549.940429688 1007 l 1
 191.599609375 1007 l 1
EndSplineSet
EndChar

StartChar: emacron
Encoding: 275 275 210
Width: 683
Flags: HW
LayerCount: 2
Fore
SplineSet
507 394 m 1
 507 411 508.299804688 427 508.299804688 441 c 0
 508.299804688 591 479.700195312 622 335.400390625 622 c 2
 315.900390625 622 l 2
 208 619 180.700195312 617 180.700195312 416 c 2
 180.700195312 401 l 1
 507 394 l 1
529.099609375 176 m 1
 630.099609375 150 l 1
 584.099609375 10 552.099609375 -14 366.599609375 -14 c 2
 353.599609375 -14 l 2
 114.700195312 -12 83.7001953125 -10 77.7001953125 359 c 0
 77.7001953125 383 76.7001953125 404 76.7001953125 426 c 0
 76.7001953125 706 118.700195312 709 353.599609375 714 c 0
 377 714 397.799804688 715 417.299804688 715 c 0
 576.299804688 715 602.299804688 689 602.299804688 524 c 0
 602.299804688 472 600.299804688 404 597.299804688 319 c 2
 597.299804688 321 l 1
 518.299804688 317 l 1
 180.700195312 303 l 1
 187.200195312 72 213.200195312 71 353.599609375 70 c 2
 364 70 l 2
 468 70 491.400390625 86 529.099609375 176 c 1
164.700195312 777 m 1
 167.700195312 841 l 1
 530.299804688 853 l 1
 530.299804688 777 l 1
 164.700195312 777 l 1
EndSplineSet
EndChar

StartChar: Ebreve
Encoding: 276 276 211
Width: 718
Flags: HW
LayerCount: 2
Fore
SplineSet
210.599609375 4 m 1
 208.599609375 4 l 1
 93.599609375 4 l 1
 93.599609375 949 l 1
 211.599609375 949 l 1
 212.599609375 949 l 1
 647.940429688 949 l 1
 647.940429688 846 l 1
 479.099609375 846 402.400390625 852 212.599609375 853 c 1
 212.599609375 471 l 1
 623.940429688 479 l 1
 627.940429688 479 l 1
 627.940429688 429 l 1
 627.940429688 380 l 1
 623.940429688 380 l 1
 212.599609375 387 l 1
 212.599609375 109 l 1
 423.200195312 109 494.700195312 117 657.940429688 117 c 1
 657.940429688 118 657.940429688 118 659.940429688 117 c 0
 662.940429688 118 662.940429688 118 662.940429688 117 c 2
 662.940429688 61 l 1
 662.940429688 4 l 1
 210.599609375 4 l 1
203.599609375 1140 m 1
 306.200195312 1140 l 1
 306.200195312 1079 320.5 1069 402.400390625 1069 c 0
 484.299804688 1069 498.599609375 1079 498.599609375 1140 c 1
 581.940429688 1140 l 1
 581.940429688 1012 560.940429688 992 402.400390625 992 c 0
 228.200195312 992 203.599609375 1012 203.599609375 1140 c 1
EndSplineSet
EndChar

StartChar: ebreve
Encoding: 277 277 212
Width: 732
Flags: HW
LayerCount: 2
Fore
SplineSet
195.700195312 373 m 1
 555.799804688 373 l 1
 554.5 586 542.799804688 621 369.900390625 621 c 0
 224.299804688 621 197 620 195.700195312 373 c 1
528.5 177 m 1
 643.5 167 l 1
 643.5 10 610.5 -15 359.5 -15 c 0
 109.700195312 -15 76.7001953125 -13 76.7001953125 348 c 0
 76.7001953125 709 110.700195312 711 369.900390625 711 c 0
 656.799804688 711 665.799804688 662 665.799804688 364 c 2
 665.799804688 292 l 1
 195.700195312 292 l 1
 199.599609375 82 228.200195312 81 359.5 81 c 0
 505.099609375 81 528.5 94 528.5 177 c 1
174.700195312 910 m 1
 273.700195312 910 l 1
 273.700195312 849 288 839 369.900390625 839 c 0
 451.799804688 839 466.099609375 849 466.099609375 910 c 1
 567.799804688 910 l 1
 567.799804688 782 544.099609375 762 369.900390625 762 c 0
 195.700195312 762 174.700195312 782 174.700195312 910 c 1
EndSplineSet
EndChar

StartChar: Edotaccent
Encoding: 278 278 213
Width: 718
Flags: HW
LayerCount: 2
Fore
SplineSet
662.940429688 51 m 1
 662.940429688 0 l 1
 212.599609375 0 l 1
 211.599609375 0 l 1
 152.599609375 0 l 1
 93.599609375 0 l 1
 93.599609375 5 l 1
 93.599609375 922 l 1
 93.599609375 927 l 1
 152.599609375 927 l 1
 211.599609375 927 l 1
 212.599609375 927 l 1
 647.940429688 927 l 1
 647.940429688 876 l 1
 647.940429688 826 l 1
 642.940429688 826 l 1
 212.599609375 826 l 1
 212.599609375 466 l 1
 623.940429688 466 l 1
 627.940429688 466 l 1
 627.940429688 417 l 1
 627.940429688 369 l 1
 623.940429688 369 l 1
 212.599609375 369 l 1
 212.599609375 101 l 1
 657.940429688 101 l 2
 657.940429688 102 657.940429688 102 659.940429688 101 c 0
 662.940429688 102 662.940429688 102 662.940429688 101 c 2
 662.940429688 51 l 1
297.099609375 1007 m 1
 297.099609375 1126 l 1
 451.799804688 1126 l 1
 451.799804688 1007 l 1
 297.099609375 1007 l 1
EndSplineSet
EndChar

StartChar: edotaccent
Encoding: 279 279 214
Width: 683
Flags: HW
LayerCount: 2
Fore
SplineSet
507 394 m 1
 507 411 508.299804688 427 508.299804688 441 c 0
 508.299804688 591 479.700195312 622 335.400390625 622 c 2
 315.900390625 622 l 2
 208 619 180.700195312 617 180.700195312 416 c 2
 180.700195312 401 l 1
 507 394 l 1
529.099609375 176 m 1
 630.099609375 150 l 1
 584.099609375 10 552.099609375 -14 366.599609375 -14 c 2
 353.599609375 -14 l 2
 114.700195312 -12 83.7001953125 -10 77.7001953125 359 c 0
 77.7001953125 383 76.7001953125 404 76.7001953125 426 c 0
 76.7001953125 706 118.700195312 709 353.599609375 714 c 0
 377 714 397.799804688 715 417.299804688 715 c 0
 576.299804688 715 602.299804688 689 602.299804688 524 c 0
 602.299804688 472 600.299804688 404 597.299804688 319 c 2
 597.299804688 321 l 1
 518.299804688 317 l 1
 180.700195312 303 l 1
 187.200195312 72 213.200195312 71 353.599609375 70 c 2
 364 70 l 2
 468 70 491.400390625 86 529.099609375 176 c 1
278.200195312 777 m 1
 278.200195312 896 l 1
 432.900390625 896 l 1
 432.900390625 777 l 1
 278.200195312 777 l 1
EndSplineSet
EndChar

StartChar: Eogonek
Encoding: 280 280 215
Width: 718
Flags: HW
LayerCount: 2
Fore
SplineSet
327 0 m 1
 212.599609375 0 l 1
 211.599609375 0 l 1
 152.599609375 0 l 1
 93.599609375 0 l 1
 93.599609375 5 l 1
 93.599609375 922 l 1
 93.599609375 927 l 1
 152.599609375 927 l 1
 211.599609375 927 l 1
 212.599609375 927 l 1
 647.940429688 927 l 1
 647.940429688 876 l 1
 647.940429688 826 l 1
 642.940429688 826 l 1
 212.599609375 826 l 1
 212.599609375 466 l 1
 623.940429688 466 l 1
 627.940429688 466 l 1
 627.940429688 417 l 1
 627.940429688 369 l 1
 623.940429688 369 l 1
 212.599609375 369 l 1
 212.599609375 101 l 1
 657.940429688 101 l 2
 657.940429688 102 657.940429688 102 659.940429688 101 c 0
 662.940429688 102 662.940429688 102 662.940429688 101 c 2
 662.940429688 51 l 1
 662.940429688 0 l 1
 402.400390625 0 l 1
 372.5 -14 332.200195312 -39 332.200195312 -84 c 0
 332.200195312 -136 345.200195312 -144 431 -144 c 0
 494.700195312 -144 506.400390625 -142 515.940429688 -132 c 1
 526.940429688 -195 l 1
 512.940429688 -211 499.900390625 -214 423.200195312 -214 c 0
 276.299804688 -214 252.900390625 -198 252.900390625 -95 c 0
 252.900390625 -58 285.400390625 -26 327 0 c 1
EndSplineSet
EndChar

StartChar: eogonek
Encoding: 281 281 216
Width: 734
Flags: HW
LayerCount: 2
Fore
SplineSet
197 373 m 1
 557.099609375 373 l 1
 555.799804688 586 544.099609375 621 371.200195312 621 c 0
 225.599609375 621 198.299804688 620 197 373 c 1
539.799804688 -7 m 1
 511.599609375 -20 471.299804688 -45 471.299804688 -88 c 0
 471.299804688 -136 484.299804688 -144 561.799804688 -144 c 0
 609.799804688 -144 619.799804688 -142 628.799804688 -132 c 1
 639.799804688 -195 l 1
 625.799804688 -211 614.799804688 -214 554.799804688 -214 c 0
 415.400390625 -214 392 -198 392 -98 c 0
 392 -66 419.299804688 -38 454.400390625 -14 c 1
 425.799804688 -15 395.900390625 -15 360.799804688 -15 c 0
 111 -15 78 -13 78 348 c 0
 78 709 112 711 371.200195312 711 c 0
 658.099609375 711 667.099609375 662 667.099609375 364 c 2
 667.099609375 292 l 1
 197 292 l 1
 200.900390625 82 229.5 81 360.799804688 81 c 0
 506.400390625 81 529.799804688 94 529.799804688 177 c 1
 644.799804688 167 l 1
 644.799804688 54 627.799804688 10 539.799804688 -7 c 1
EndSplineSet
EndChar

StartChar: Ecaron
Encoding: 282 282 217
Width: 718
Flags: HW
LayerCount: 2
Fore
SplineSet
210.599609375 4 m 1
 208.599609375 4 l 1
 93.599609375 4 l 1
 93.599609375 949 l 1
 211.599609375 949 l 1
 212.599609375 949 l 1
 648.540039062 949 l 1
 648.540039062 846 l 1
 479.099609375 846 402.400390625 852 212.599609375 853 c 1
 212.599609375 471 l 1
 624.540039062 479 l 1
 628.540039062 479 l 1
 628.540039062 429 l 1
 628.540039062 380 l 1
 624.540039062 380 l 1
 212.599609375 387 l 1
 212.599609375 109 l 2
 216.5 110 665.540039062 119 665.540039062 119 c 1
 663.540039062 4 l 1
 210.599609375 4 l 1
353 1077 m 1
 470 1153 l 1
 579.540039062 1153 l 1
 447.900390625 1002 l 1
 304.900390625 1002 l 1
 166.599609375 1153 l 1
 282.799804688 1153 l 1
 353 1077 l 1
EndSplineSet
EndChar

StartChar: ecaron
Encoding: 283 283 218
Width: 683
Flags: HW
LayerCount: 2
Fore
SplineSet
507 394 m 1
 507 411 508.299804688 427 508.299804688 441 c 0
 508.299804688 591 479.700195312 622 335.400390625 622 c 2
 315.900390625 622 l 2
 208 619 180.700195312 617 180.700195312 416 c 2
 180.700195312 401 l 1
 507 394 l 1
529.099609375 176 m 1
 630.099609375 150 l 1
 584.099609375 10 552.099609375 -14 366.599609375 -14 c 2
 353.599609375 -14 l 2
 114.700195312 -12 83.7001953125 -10 77.7001953125 359 c 0
 77.7001953125 383 76.7001953125 404 76.7001953125 426 c 0
 76.7001953125 706 118.700195312 709 353.599609375 714 c 0
 377 714 397.799804688 715 417.299804688 715 c 0
 576.299804688 715 602.299804688 689 602.299804688 524 c 0
 602.299804688 472 600.299804688 404 597.299804688 319 c 2
 597.299804688 321 l 1
 518.299804688 317 l 1
 180.700195312 303 l 1
 187.200195312 72 213.200195312 71 353.599609375 70 c 2
 364 70 l 2
 468 70 491.400390625 86 529.099609375 176 c 1
347.099609375 863 m 1
 439.400390625 927 l 1
 556.299804688 927 l 1
 418.599609375 777 l 1
 275.599609375 777 l 1
 135.700195312 927 l 1
 252.200195312 927 l 1
 347.099609375 863 l 1
EndSplineSet
EndChar

StartChar: Gcircumflex
Encoding: 284 284 219
Width: 874
Flags: HW
LayerCount: 2
Fore
SplineSet
413.5 366 m 1
 413.5 467 l 1
 803.700195312 467 l 1
 803.700195312 467 806.700195312 422 806.700195312 361 c 0
 806.700195312 292 802.700195312 204 787.700195312 135 c 0
 758.700195312 5 756.700195312 -15 472 -15 c 0
 148.099609375 -15 74.099609375 31 74.099609375 287 c 0
 74.099609375 337 77.099609375 396 82.099609375 463 c 0
 111.099609375 885 151.099609375 951 430.400390625 951 c 0
 707.700195312 951 749.700195312 919 798.700195312 712 c 1
 691.700195312 680 l 1
 646.200195312 826 611.099609375 849 430.400390625 849 c 0
 264 849 232.799804688 797 202.900390625 463 c 0
 197.700195312 404 195.099609375 354 195.099609375 311 c 0
 195.099609375 121 257.5 87 472 87 c 0
 646.200195312 87 659.200195312 100 681.299804688 180 c 0
 700.700195312 260 701.700195312 366 701.700195312 366 c 1
 413.5 366 l 1
491.5 1061 m 1
 395.299804688 997 l 1
 265.299804688 997 l 1
 399.200195312 1137 l 1
 561.700195312 1147 l 1
 708.700195312 997 l 1
 565.599609375 987 l 1
 491.5 1061 l 1
EndSplineSet
EndChar

StartChar: gcircumflex
Encoding: 285 285 220
Width: 668
Flags: HW
LayerCount: 2
Fore
SplineSet
346 613 m 2
 318.700195312 613 l 2
 201.700195312 613 179.599609375 604 179.599609375 344 c 0
 179.599609375 106 188.700195312 95 295.299804688 95 c 2
 333 95 l 1
 364.200195312 95 l 2
 469.5 95 488.400390625 103 488.400390625 304 c 0
 488.400390625 537 478.599609375 613 346 613 c 2
101.599609375 -125 m 1
 101.599609375 -125 192.599609375 -164 309.599609375 -164 c 2
 318.700195312 -164 l 1
 476 -160 486.400390625 -110 486.400390625 -36 c 2
 486.400390625 0 l 1
 282.299804688 0 l 1
 251.099609375 0 l 2
 82.599609375 0 81.599609375 8 81.599609375 340 c 2
 81.599609375 352 l 2
 81.599609375 680 108.599609375 701 249.799804688 701 c 2
 330.400390625 701 l 1
 346 701 l 2
 431.799804688 701 448.700195312 700 486.400390625 667 c 1
 486.400390625 697 l 1
 594.400390625 721 l 2
 595.400390625 721 596.400390625 692 595.400390625 692 c 2
 585.400390625 -7 l 1
 573.400390625 -218 572.400390625 -230 425.299804688 -256 c 0
 403.200195312 -259 378.5 -261 353.799804688 -261 c 0
 232.900390625 -261 109.599609375 -229 67.599609375 -220 c 1
 84.599609375 -174 79.599609375 -194 101.599609375 -125 c 1
325.200195312 823 m 1
 230.299804688 759 l 1
 118.599609375 759 l 1
 234.200195312 899 l 1
 396.700195312 909 l 1
 535.400390625 759 l 1
 400.599609375 749 l 1
 325.200195312 823 l 1
EndSplineSet
EndChar

StartChar: Gbreve
Encoding: 286 286 221
Width: 874
Flags: HW
LayerCount: 2
Fore
SplineSet
413.5 366 m 1
 413.5 467 l 1
 803.700195312 467 l 1
 803.700195312 467 806.700195312 422 806.700195312 361 c 0
 806.700195312 292 802.700195312 204 787.700195312 135 c 0
 758.700195312 5 756.700195312 -15 472 -15 c 0
 148.099609375 -15 74.099609375 31 74.099609375 287 c 0
 74.099609375 337 77.099609375 396 82.099609375 463 c 0
 111.099609375 885 151.099609375 951 430.400390625 951 c 0
 707.700195312 951 749.700195312 919 798.700195312 712 c 1
 691.700195312 680 l 1
 646.200195312 826 611.099609375 849 430.400390625 849 c 0
 264 849 232.799804688 797 202.900390625 463 c 0
 197.700195312 404 195.099609375 354 195.099609375 311 c 0
 195.099609375 121 257.5 87 472 87 c 0
 646.200195312 87 659.200195312 100 681.299804688 180 c 0
 700.700195312 260 701.700195312 366 701.700195312 366 c 1
 413.5 366 l 1
234.099609375 1140 m 1
 339.400390625 1140 l 1
 339.400390625 1079 352.400390625 1069 434.299804688 1069 c 0
 516.200195312 1069 531.799804688 1079 531.799804688 1140 c 1
 637.099609375 1140 l 1
 637.099609375 1012 608.5 992 434.299804688 992 c 0
 260.099609375 992 234.099609375 1012 234.099609375 1140 c 1
EndSplineSet
EndChar

StartChar: gbreve
Encoding: 287 287 222
Width: 668
Flags: HW
LayerCount: 2
Fore
SplineSet
346 613 m 2
 318.700195312 613 l 2
 201.700195312 613 179.599609375 604 179.599609375 344 c 0
 179.599609375 106 188.700195312 95 295.299804688 95 c 2
 333 95 l 1
 364.200195312 95 l 2
 469.5 95 488.400390625 103 488.400390625 304 c 0
 488.400390625 537 478.599609375 613 346 613 c 2
101.599609375 -125 m 1
 101.599609375 -125 192.599609375 -164 309.599609375 -164 c 2
 318.700195312 -164 l 1
 476 -160 486.400390625 -110 486.400390625 -36 c 2
 486.400390625 0 l 1
 282.299804688 0 l 1
 251.099609375 0 l 2
 82.599609375 0 81.599609375 8 81.599609375 340 c 2
 81.599609375 352 l 2
 81.599609375 680 108.599609375 701 249.799804688 701 c 2
 330.400390625 701 l 1
 346 701 l 2
 431.799804688 701 448.700195312 700 486.400390625 667 c 1
 486.400390625 697 l 1
 594.400390625 721 l 2
 595.400390625 721 596.400390625 692 595.400390625 692 c 2
 585.400390625 -7 l 1
 573.400390625 -218 572.400390625 -230 425.299804688 -256 c 0
 403.200195312 -259 378.5 -261 353.799804688 -261 c 0
 232.900390625 -261 109.599609375 -229 67.599609375 -220 c 1
 84.599609375 -174 79.599609375 -194 101.599609375 -125 c 1
167.599609375 910 m 1
 269.299804688 910 l 1
 269.299804688 849 283.599609375 839 365.5 839 c 0
 447.400390625 839 461.700195312 849 461.700195312 910 c 1
 548.400390625 910 l 1
 548.400390625 782 527.400390625 762 365.5 762 c 0
 191.299804688 762 167.599609375 782 167.599609375 910 c 1
EndSplineSet
EndChar

StartChar: Gdotaccent
Encoding: 288 288 223
Width: 874
Flags: HW
LayerCount: 2
Fore
SplineSet
413.5 366 m 1
 413.5 467 l 1
 803.700195312 467 l 1
 803.700195312 467 806.700195312 422 806.700195312 361 c 0
 806.700195312 292 802.700195312 204 787.700195312 135 c 0
 758.700195312 5 756.700195312 -15 472 -15 c 0
 148.099609375 -15 74.099609375 31 74.099609375 287 c 0
 74.099609375 337 77.099609375 396 82.099609375 463 c 0
 111.099609375 885 151.099609375 951 430.400390625 951 c 0
 707.700195312 951 749.700195312 919 798.700195312 712 c 1
 691.700195312 680 l 1
 646.200195312 826 611.099609375 849 430.400390625 849 c 0
 264 849 232.799804688 797 202.900390625 463 c 0
 197.700195312 404 195.099609375 354 195.099609375 311 c 0
 195.099609375 121 257.5 87 472 87 c 0
 646.200195312 87 659.200195312 100 681.299804688 180 c 0
 700.700195312 260 701.700195312 366 701.700195312 366 c 1
 413.5 366 l 1
375.799804688 1007 m 1
 375.799804688 1126 l 1
 530.5 1126 l 1
 530.5 1007 l 1
 375.799804688 1007 l 1
EndSplineSet
EndChar

StartChar: gdotaccent
Encoding: 289 289 224
Width: 669
Flags: HW
LayerCount: 2
Fore
SplineSet
347.299804688 613 m 2
 320 613 l 2
 203 613 180.900390625 604 180.900390625 344 c 0
 180.900390625 106 190 95 296.599609375 95 c 2
 334.299804688 95 l 1
 365.5 95 l 2
 470.799804688 95 489.700195312 103 489.700195312 304 c 0
 489.700195312 537 479.900390625 613 347.299804688 613 c 2
102.900390625 -125 m 1
 102.900390625 -125 193.900390625 -164 310.900390625 -164 c 2
 320 -164 l 1
 477.299804688 -160 487.700195312 -110 487.700195312 -36 c 2
 487.700195312 0 l 1
 283.599609375 0 l 1
 252.400390625 0 l 2
 83.900390625 0 82.900390625 8 82.900390625 340 c 2
 82.900390625 352 l 2
 82.900390625 680 109.900390625 701 251.099609375 701 c 2
 331.700195312 701 l 1
 347.299804688 701 l 2
 433.099609375 701 450 700 487.700195312 667 c 1
 487.700195312 697 l 1
 595.700195312 721 l 2
 596.700195312 721 597.700195312 692 596.700195312 692 c 2
 586.700195312 -7 l 1
 574.700195312 -218 573.700195312 -230 426.599609375 -256 c 0
 404.5 -259 379.799804688 -261 355.099609375 -261 c 0
 234.200195312 -261 110.900390625 -229 68.900390625 -220 c 1
 85.900390625 -174 80.900390625 -194 102.900390625 -125 c 1
290.099609375 777 m 1
 295.299804688 892 l 1
 444.799804688 896 l 1
 444.799804688 777 l 1
 290.099609375 777 l 1
EndSplineSet
EndChar

StartChar: Hcircumflex
Encoding: 292 292 225
Width: 864
Flags: HW
LayerCount: 2
Fore
SplineSet
682.799804688 381 m 1
 206 388 l 1
 200 -7 l 1
 96 2 l 1
 93 469 l 1
 92 471 l 1
 93 471 l 1
 91 929 l 1
 214 922 l 1
 207 473 l 1
 684.799804688 480 l 1
 691.799804688 927 l 1
 785.799804688 927 l 1
 790.799804688 1 l 1
 676.799804688 -3 l 1
 682.799804688 381 l 1
448 1071 m 1
 353.099609375 1007 l 1
 223.099609375 1007 l 1
 375.200195312 1157 l 1
 519.5 1157 l 1
 671.599609375 1007 l 1
 541.599609375 1007 l 1
 448 1071 l 1
EndSplineSet
EndChar

StartChar: Itilde
Encoding: 296 296 226
Width: 414
Flags: HW
LayerCount: 2
Fore
SplineSet
129.099609375 1007 m 1
 48.099609375 1007 l 1
 48.099609375 1145 61.099609375 1167 143.099609375 1167 c 0
 253.099609375 1167 199.099609375 1078 273.099609375 1078 c 0
 292.099609375 1078 295.099609375 1089 295.099609375 1152 c 1
 376.099609375 1152 l 1
 376.099609375 1014 363.099609375 992 280.099609375 992 c 0
 170.099609375 992 225.099609375 1081 150.099609375 1081 c 0
 132.099609375 1081 129.099609375 1070 129.099609375 1007 c 1
161.099609375 919 m 1
 161.099609375 930 l 1
 279.099609375 924 l 1
 291.099609375 6 l 1
 291.099609375 1 l 1
 232.099609375 1 l 1
 232.099609375 3 l 1
 173.099609375 4 l 1
 161.099609375 919 l 1
EndSplineSet
EndChar

StartChar: itilde
Encoding: 297 297 227
Width: 435
Flags: HW
LayerCount: 2
Fore
SplineSet
166.200195312 697 m 1
 221.200195312 697 l 1
 276.200195312 697 l 1
 276.200195312 0 l 1
 166.200195312 0 l 1
 166.200195312 692 l 1
 166.200195312 697 l 1
138.200195312 777 m 1
 57.2001953125 777 l 1
 57.2001953125 915 70.2001953125 937 152.200195312 937 c 0
 262.200195312 937 208.200195312 848 282.200195312 848 c 0
 301.200195312 848 304.200195312 859 304.200195312 922 c 1
 385.200195312 922 l 1
 385.200195312 784 373.200195312 762 291.200195312 762 c 0
 180.200195312 762 234.200195312 851 159.200195312 851 c 0
 141.200195312 851 138.200195312 840 138.200195312 777 c 1
EndSplineSet
EndChar

StartChar: Imacron
Encoding: 298 298 228
Width: 376
Flags: HW
LayerCount: 2
Fore
SplineSet
193.099609375 0 m 1
 134.099609375 0 l 1
 134.099609375 5 l 1
 134.099609375 922 l 1
 134.099609375 927 l 1
 193.099609375 927 l 1
 252.099609375 927 l 1
 252.099609375 922 l 1
 252.099609375 5 l 1
 252.099609375 0 l 1
 193.099609375 0 l 1
48.099609375 1007 m 1
 48.099609375 1083 l 1
 338.099609375 1083 l 1
 338.099609375 1007 l 1
 48.099609375 1007 l 1
EndSplineSet
EndChar

StartChar: imacron
Encoding: 299 299 229
Width: 394
Flags: HW
LayerCount: 2
Fore
SplineSet
199.599609375 0 m 1
 144.599609375 0 l 1
 144.599609375 5 l 1
 144.599609375 692 l 1
 144.599609375 697 l 1
 199.599609375 697 l 1
 254.599609375 697 l 1
 254.599609375 5 l 1
 254.599609375 3 l 1
 254.599609375 0 l 1
 199.599609375 0 l 1
54.599609375 777 m 1
 54.599609375 853 l 1
 344.599609375 853 l 1
 344.599609375 777 l 1
 54.599609375 777 l 1
EndSplineSet
EndChar

StartChar: Ibreve
Encoding: 300 300 230
Width: 396
Flags: HW
LayerCount: 2
Fore
SplineSet
48.099609375 1140 m 1
 129.099609375 1140 l 1
 129.099609375 1079 141.099609375 1069 204.099609375 1069 c 0
 267.099609375 1069 277.099609375 1079 277.099609375 1140 c 1
 358.099609375 1140 l 1
 358.099609375 1012 338.099609375 992 204.099609375 992 c 0
 70.099609375 992 48.099609375 1012 48.099609375 1140 c 1
152.099609375 919 m 1
 152.099609375 930 l 1
 270.099609375 924 l 1
 282.099609375 6 l 1
 282.099609375 1 l 1
 223.099609375 1 l 1
 223.099609375 3 l 1
 164.099609375 4 l 1
 152.099609375 919 l 1
EndSplineSet
EndChar

StartChar: ibreve
Encoding: 301 301 231
Width: 416
Flags: HW
LayerCount: 2
Fore
SplineSet
212.200195312 0 m 1
 157.200195312 0 l 1
 157.200195312 5 l 1
 157.200195312 692 l 1
 157.200195312 697 l 1
 212.200195312 697 l 1
 267.200195312 697 l 1
 267.200195312 5 l 1
 267.200195312 3 l 1
 267.200195312 0 l 1
 212.200195312 0 l 1
57.2001953125 910 m 1
 138.200195312 910 l 1
 138.200195312 849 149.200195312 839 212.200195312 839 c 0
 275.200195312 839 286.200195312 849 286.200195312 910 c 1
 367.200195312 910 l 1
 367.200195312 782 346.200195312 762 212.200195312 762 c 0
 78.2001953125 762 57.2001953125 782 57.2001953125 910 c 1
EndSplineSet
EndChar

StartChar: Idotaccent
Encoding: 304 304 232
Width: 287
Flags: HW
LayerCount: 2
Fore
SplineSet
84.5 1017 m 1
 84.5 1136 l 1
 203.5 1136 l 1
 203.5 1017 l 1
 84.5 1017 l 1
85.5 919 m 1
 85.5 930 l 1
 203.5 924 l 1
 215.5 6 l 1
 215.5 1 l 1
 156.5 1 l 1
 156.5 3 l 1
 97.5 4 l 1
 85.5 919 l 1
EndSplineSet
EndChar

StartChar: dotlessi
Encoding: 305 305 233
Width: 276
Flags: HW
LayerCount: 2
Fore
SplineSet
91 0 m 1
 91 697 l 1
 201 697 l 1
 201 0 l 1
 91 0 l 1
EndSplineSet
EndChar

StartChar: IJ
Encoding: 306 306 234
Width: 853
Flags: HW
LayerCount: 2
Fore
SplineSet
268.799804688 278 m 1
 386.799804688 299 l 1
 386.799804688 248 l 2
 386.799804688 100 388.296875 99 528.983398438 99 c 0
 650.212890625 99 656.200195312 124 656.200195312 283 c 2
 666.200195312 925 l 1
 725.200195312 925 l 1
 784.200195312 925 l 2
 785.200195312 925 785.200195312 925 784.200195312 922 c 0
 785.200195312 920 785.200195312 920 784.200195312 920 c 2
 774.200195312 283 l 1
 774.200195312 24 764.200195312 -17 528.983398438 -17 c 0
 269.799804688 -17 268.799804688 -16 268.799804688 215 c 2
 268.799804688 278 l 1
156.799804688 -15 m 1
 97.7998046875 -14 l 1
 85.7998046875 901 l 1
 85.7998046875 906 l 1
 85.7998046875 912 l 1
 203.799804688 906 l 1
 219.400390625 -12 l 1
 219.400390625 -17 l 1
 156.799804688 -17 l 1
 156.799804688 -15 l 1
EndSplineSet
EndChar

StartChar: ij
Encoding: 307 307 235
Width: 538
Flags: HW
LayerCount: 2
Fore
SplineSet
349.200195312 785 m 1
 335.099609375 904 l 1
 468.200195312 904 l 1
 456.200195312 785 l 1
 349.200195312 785 l 1
91.599609375 8 m 1
 91.599609375 700 l 1
 211.599609375 700 l 1
 200.599609375 -7 l 1
 91.599609375 8 l 1
92.599609375 781 m 1
 80.599609375 900 l 1
 211.599609375 900 l 1
 200.599609375 781 l 1
 92.599609375 781 l 1
451.200195312 4 m 2
 447.200195312 -168 450.200195312 -164 357.200195312 -172 c 1
 302.599609375 -172 237.599609375 -166 237.599609375 -166 c 1
 233.700195312 -73 l 1
 238.900390625 -79 263.599609375 -85 283.099609375 -85 c 2
 287 -85 l 1
 345.200195312 -81 361.200195312 -77 361.200195312 -41 c 2
 361.200195312 -38 l 1
 344.200195312 701 l 1
 467.200195312 701 l 1
 451.200195312 4 l 2
EndSplineSet
EndChar

StartChar: Jcircumflex
Encoding: 308 308 236
Width: 693
Flags: HW
LayerCount: 2
Fore
SplineSet
79.2998046875 280 m 1
 197.299804688 301 l 1
 197.299804688 250 l 2
 197.299804688 102 198.599609375 101 320.799804688 101 c 0
 426.099609375 101 431.299804688 126 431.299804688 285 c 2
 441.299804688 927 l 1
 500.299804688 927 l 1
 559.299804688 927 l 2
 560.299804688 927 560.299804688 927 559.299804688 924 c 0
 560.299804688 922 560.299804688 922 559.299804688 922 c 2
 549.299804688 285 l 1
 549.299804688 26 539.299804688 -15 320.799804688 -15 c 0
 80.2998046875 -15 79.2998046875 -14 79.2998046875 217 c 2
 79.2998046875 280 l 1
500.299804688 1071 m 1
 427.400390625 1007 l 1
 297.400390625 1007 l 1
 445.299804688 1157 l 1
 556.299804688 1157 l 1
 663.299804688 969 l 1
 579.299804688 985 l 1
 500.299804688 1071 l 1
EndSplineSet
EndChar

StartChar: Lacute
Encoding: 313 313 237
Width: 657
Flags: HW
LayerCount: 2
Fore
SplineSet
94.099609375 1007 m 1
 150.099609375 1157 l 1
 319.5 1157 l 1
 194.099609375 1007 l 1
 94.099609375 1007 l 1
237.599609375 918 m 1
 237.599609375 918 237.599609375 917 238.900390625 918 c 2
 237.599609375 918 l 1
95.099609375 2 m 1
 87.099609375 931 l 1
 205.099609375 923 l 1
 221.099609375 101 l 1
 537.83984375 101 593.83984375 101 593.83984375 99 c 2
 592.83984375 99 l 1
 613.83984375 0 l 1
 223.752929688 0 l 1
 223.752929688 -2 l 1
 95.099609375 2 l 1
EndSplineSet
EndChar

StartChar: lacute
Encoding: 314 314 238
Width: 298
Flags: HW
LayerCount: 2
Fore
SplineSet
143 0 m 1
 88 0 l 1
 88 5 l 1
 88 922 l 1
 88 927 l 1
 143 927 l 1
 198 927 l 1
 198 918 l 1
 198 5 l 1
 198 3 l 1
 198 0 l 1
 143 0 l 1
65 967 m 1
 121 1117 l 1
 265 1117 l 1
 165 967 l 1
 65 967 l 1
EndSplineSet
EndChar

StartChar: Lcaron
Encoding: 317 317 239
Width: 657
Flags: HW
LayerCount: 2
Fore
SplineSet
352 941 m 1
 497.139648438 941 l 1
 456 791 l 1
 350.700195312 791 l 1
 352 941 l 1
238.900390625 918 m 1
 238.900390625 918 238.900390625 917 240.200195312 918 c 2
 238.900390625 918 l 1
96.400390625 2 m 1
 88.400390625 931 l 1
 206.400390625 923 l 1
 222.400390625 101 l 1
 539.139648438 101 595.139648438 101 595.139648438 99 c 2
 594.139648438 99 l 1
 615.139648438 0 l 1
 225.053710938 0 l 1
 225.053710938 -2 l 1
 96.400390625 2 l 1
EndSplineSet
EndChar

StartChar: lcaron
Encoding: 318 318 240
Width: 405
Flags: HW
LayerCount: 2
Fore
SplineSet
148.599609375 0 m 1
 93.599609375 0 l 1
 93.599609375 5 l 1
 93.599609375 922 l 1
 93.599609375 927 l 1
 148.599609375 927 l 1
 203.599609375 927 l 1
 203.599609375 918 l 1
 203.599609375 5 l 1
 203.599609375 3 l 1
 203.599609375 0 l 1
 148.599609375 0 l 1
253.599609375 941 m 1
 372.599609375 941 l 1
 332.599609375 791 l 1
 251.599609375 791 l 1
 253.599609375 941 l 1
EndSplineSet
EndChar

StartChar: Ldot
Encoding: 319 319 241
Width: 657
Flags: HW
LayerCount: 2
Fore
SplineSet
341.599609375 577 m 1
 489.139648438 577 l 1
 445.599609375 427 l 1
 340.299804688 427 l 1
 341.599609375 577 l 1
238.900390625 918 m 1
 238.900390625 918 238.900390625 917 240.200195312 918 c 2
 238.900390625 918 l 1
96.400390625 2 m 1
 88.400390625 931 l 1
 206.400390625 923 l 1
 222.400390625 101 l 1
 539.139648438 101 595.139648438 101 595.139648438 99 c 2
 594.139648438 99 l 1
 615.139648438 0 l 1
 225.053710938 0 l 1
 225.053710938 -2 l 1
 96.400390625 2 l 1
EndSplineSet
EndChar

StartChar: ldot
Encoding: 320 320 242
Width: 436
Flags: HW
LayerCount: 2
Fore
SplineSet
258.200195312 514 m 1
 383.799804688 522 l 1
 371.799804688 384 l 1
 273.799804688 392 l 1
 258.200195312 514 l 1
142.099609375 0 m 1
 87.099609375 0 l 1
 87.099609375 5 l 1
 101.099609375 930 l 1
 156.099609375 927 l 1
 215.299804688 927 l 1
 215.299804688 924 l 1
 215.299804688 914 l 1
 197.099609375 0 l 1
 142.099609375 0 l 1
EndSplineSet
EndChar

StartChar: Lslash
Encoding: 321 321 243
Width: 705
Flags: HW
LayerCount: 2
Fore
SplineSet
63.7001953125 371 m 1
 63.7001953125 456 l 1
 143.700195312 478 l 1
 143.700195312 922 l 1
 143.700195312 927 l 1
 202.700195312 927 l 1
 272.099609375 924 l 1
 261.700195312 510 l 1
 477.5 556 l 1
 477.5 471 l 1
 261.700195312 425 l 1
 261.700195312 101 l 1
 558.040039062 101 l 1
 645.040039062 101 l 2
 647.040039062 102 647.040039062 102 647.040039062 101 c 2
 647.040039062 51 l 1
 647.040039062 0 l 1
 261.700195312 0 l 1
 202.700195312 0 l 1
 143.700195312 0 l 1
 143.700195312 5 l 1
 143.700195312 393 l 1
 63.7001953125 371 l 1
EndSplineSet
EndChar

StartChar: lslash
Encoding: 322 322 244
Width: 390
Flags: HW
LayerCount: 2
Fore
SplineSet
63.7001953125 371 m 1
 63.7001953125 456 l 1
 143.700195312 486 l 1
 143.700195312 922 l 1
 143.700195312 927 l 1
 198.700195312 927 l 1
 253.700195312 927 l 1
 253.700195312 918 l 1
 253.700195312 526 l 1
 333.700195312 556 l 1
 333.700195312 471 l 1
 253.700195312 441 l 1
 253.700195312 5 l 1
 253.700195312 3 l 1
 253.700195312 0 l 1
 198.700195312 0 l 1
 143.700195312 0 l 1
 143.700195312 5 l 1
 143.700195312 401 l 1
 63.7001953125 371 l 1
EndSplineSet
EndChar

StartChar: Nacute
Encoding: 323 323 245
Width: 865
Flags: HW
LayerCount: 2
Fore
SplineSet
679 934 m 1
 788 925 l 1
 792 -1 l 1
 611.5 -7 l 1
 215.599609375 662 l 1
 217.599609375 5 l 1
 217.599609375 0 l 1
 93.599609375 0 l 1
 93.599609375 5 l 1
 94.599609375 935 l 1
 228 914 l 1
 670 186 l 1
 679 934 l 1
358 1005 m 1
 432.099609375 1155 l 1
 618 1155 l 1
 488 1005 l 1
 358 1005 l 1
EndSplineSet
EndChar

StartChar: nacute
Encoding: 324 324 246
Width: 655
Flags: HW
LayerCount: 2
Fore
SplineSet
231.200195312 777 m 1
 304 927 l 1
 488.400390625 927 l 1
 361.200195312 777 l 1
 231.200195312 777 l 1
474.299804688 2 m 1
 483.400390625 502 l 1
 483.400390625 517 l 2
 483.400390625 612 457.400390625 617 319.599609375 617 c 0
 253.299804688 617 216.900390625 613 198.700195312 595 c 1
 195.700195312 6 l 1
 89.7001953125 -7 l 1
 90.7001953125 728 l 1
 198.700195312 707 l 1
 198.700195312 691 l 1
 239 709 300.099609375 714 395 714 c 0
 559.400390625 714 581.400390625 704 582.400390625 502 c 2
 585.400390625 -11 l 1
 474.299804688 2 l 1
EndSplineSet
EndChar

StartChar: Ncaron
Encoding: 327 327 247
Width: 865
Flags: HW
LayerCount: 2
Fore
SplineSet
446.400390625 1093 m 1
 541.299804688 1157 l 1
 671 1157 l 1
 519.200195312 1007 l 1
 374.900390625 1007 l 1
 222.799804688 1157 l 1
 352.799804688 1157 l 1
 446.400390625 1093 l 1
679 934 m 1
 788 925 l 1
 792 -1 l 1
 611.5 -7 l 1
 215.599609375 662 l 1
 217.599609375 5 l 1
 217.599609375 0 l 1
 93.599609375 0 l 1
 93.599609375 5 l 1
 94.599609375 935 l 1
 228 914 l 1
 670 186 l 1
 679 934 l 1
EndSplineSet
EndChar

StartChar: ncaron
Encoding: 328 328 248
Width: 636
Flags: HW
LayerCount: 2
Fore
SplineSet
508.200195312 0 m 1
 453.200195312 0 l 1
 453.200195312 5 l 1
 453.200195312 492 l 2
 453.200195312 595 437.599609375 600 337.5 600 c 0
 216.599609375 600 198.400390625 586 198.400390625 499 c 2
 198.400390625 5 l 1
 198.400390625 0 l 1
 143.400390625 0 l 1
 88.400390625 0 l 1
 88.400390625 5 l 1
 88.400390625 692 l 1
 88.400390625 697 l 1
 116.400390625 697 l 1
 143.400390625 697 l 1
 198.400390625 697 l 1
 198.400390625 687 l 1
 198.400390625 672 l 1
 234.799804688 698 294.599609375 705 394.700195312 705 c 0
 542.200195312 705 563.200195312 694 563.200195312 492 c 2
 563.200195312 5 l 1
 563.200195312 0 l 1
 508.200195312 0 l 1
325.799804688 863 m 1
 419.400390625 927 l 1
 528.200195312 927 l 1
 397.299804688 777 l 1
 254.299804688 777 l 1
 124.400390625 927 l 1
 232.200195312 927 l 1
 325.799804688 863 l 1
EndSplineSet
EndChar

StartChar: napostrophe
Encoding: 329 329 249
Width: 760
Flags: HW
LayerCount: 2
Fore
SplineSet
55.900390625 787 m 1
 116.900390625 801 l 1
 153.900390625 641 l 1
 75.900390625 621 l 1
 55.900390625 787 l 1
569.5 -4 m 1
 578.599609375 494 l 1
 578.599609375 509 l 2
 578.599609375 604 552.599609375 609 414.799804688 609 c 0
 348.5 609 312.099609375 605 293.900390625 587 c 1
 290.900390625 -2 l 1
 184.900390625 -15 l 1
 185.900390625 720 l 1
 293.900390625 699 l 1
 293.900390625 683 l 1
 334.200195312 701 395.299804688 706 490.200195312 706 c 0
 654.599609375 706 676.599609375 696 677.599609375 494 c 2
 680.599609375 -15 l 1
 569.5 -4 l 1
EndSplineSet
EndChar

StartChar: Omacron
Encoding: 332 332 250
Width: 916
Flags: HW
LayerCount: 2
Fore
SplineSet
76.7001953125 463 m 0
 76.7001953125 856 134.700195312 941 459.799804688 941 c 0
 768.400390625 941 826.400390625 856 845.400390625 463 c 0
 847.400390625 410 849.400390625 363 849.400390625 321 c 0
 849.400390625 40 787.400390625 -15 498.799804688 -15 c 2
 459.799804688 -15 l 1
 120.700195312 -9 76.7001953125 56 76.7001953125 463 c 0
459.799804688 87 m 2
 479.299804688 87 l 2
 669.099609375 87 722.400390625 127 722.400390625 334 c 0
 722.400390625 372 719.799804688 414 717.200195312 463 c 0
 697.700195312 773 652.200195312 840 459.799804688 840 c 0
 249.200195312 840 203.700195312 773 203.700195312 463 c 0
 203.700195312 141 238.799804688 90 459.799804688 87 c 2
262.200195312 1002 m 1
 262.200195312 1083 l 1
 640.5 1083 l 1
 640.5 1007 l 1
 262.200195312 1002 l 1
EndSplineSet
EndChar

StartChar: omacron
Encoding: 333 333 251
Width: 720
Flags: HW
LayerCount: 2
Fore
SplineSet
78 348 m 0
 78 709 111 711 364.700195312 711 c 0
 650.400390625 711 651.400390625 662 651.400390625 348 c 0
 651.400390625 -13 618.400390625 -15 364.700195312 -15 c 0
 79 -15 78 34 78 348 c 0
364.700195312 71 m 0
 510.299804688 71 532.400390625 72 532.400390625 348 c 0
 532.400390625 589 531.099609375 626 364.700195312 626 c 0
 219.099609375 626 197 626 197 348 c 0
 197 108 198.299804688 71 364.700195312 71 c 0
181 777 m 1
 181 853 l 1
 548.400390625 853 l 1
 548.400390625 777 l 1
 181 777 l 1
EndSplineSet
EndChar

StartChar: Obreve
Encoding: 334 334 252
Width: 916
Flags: HW
LayerCount: 2
Fore
SplineSet
203.700195312 463 m 0
 203.700195312 133 238.799804688 87 479.299804688 87 c 0
 669.099609375 87 722.400390625 127 722.400390625 334 c 0
 722.400390625 372 719.799804688 414 717.200195312 463 c 0
 697.700195312 773 652.200195312 840 459.799804688 840 c 0
 249.200195312 840 203.700195312 773 203.700195312 463 c 0
498.799804688 -15 m 0
 126.700195312 -15 76.7001953125 42 76.7001953125 463 c 0
 76.7001953125 856 134.700195312 941 459.799804688 941 c 0
 768.400390625 941 826.400390625 856 845.400390625 463 c 0
 847.400390625 410 849.400390625 363 849.400390625 321 c 0
 849.400390625 40 787.400390625 -15 498.799804688 -15 c 0
212.799804688 1138 m 1
 316.799804688 1138 l 1
 316.799804688 1077 331.099609375 1067 413 1067 c 0
 494.900390625 1067 509.200195312 1077 509.200195312 1138 c 1
 614.5 1138 l 1
 614.5 1010 587.200195312 990 413 990 c 0
 238.799804688 990 212.799804688 1010 212.799804688 1138 c 1
EndSplineSet
EndChar

StartChar: obreve
Encoding: 335 335 253
Width: 720
Flags: HW
LayerCount: 2
Fore
SplineSet
78 348 m 0
 78 709 111 711 364.700195312 711 c 0
 650.400390625 711 651.400390625 662 651.400390625 348 c 0
 651.400390625 -13 618.400390625 -15 364.700195312 -15 c 0
 79 -15 78 34 78 348 c 0
364.700195312 71 m 0
 510.299804688 71 532.400390625 72 532.400390625 348 c 0
 532.400390625 589 531.099609375 626 364.700195312 626 c 0
 219.099609375 626 197 626 197 348 c 0
 197 108 198.299804688 71 364.700195312 71 c 0
171 910 m 1
 268.5 910 l 1
 268.5 849 282.799804688 839 364.700195312 839 c 0
 446.599609375 839 460.900390625 849 460.900390625 910 c 1
 558.400390625 910 l 1
 558.400390625 782 537.400390625 762 364.700195312 762 c 0
 192 762 171 782 171 910 c 1
EndSplineSet
EndChar

StartChar: OE
Encoding: 338 338 254
Width: 1178
Flags: HW
LayerCount: 2
Fore
SplineSet
503.599609375 941 m 1
 1108.70019531 939 l 1
 1108.70019531 836 l 1
 946.700195312 836 887.700195312 842 741.700195312 843 c 1
 741.700195312 459 l 1
 1088.70019531 467 l 1
 1085.70019531 417 l 1
 1080.70019531 368 l 1
 738.700195312 375 l 1
 738.700195312 96 l 1
 891.700195312 96 1096.70019531 104 1118.70019531 104 c 2
 1120.70019531 104 l 1
 1120.70019531 48 l 1
 1120.70019531 -10 l 1
 619.700195312 -10 l 2
 588.5 -9 550.799804688 -9 506.599609375 -9 c 0
 134.700195312 -9 76.7001953125 86 76.7001953125 411 c 2
 76.7001953125 465 l 1
 82.7001953125 833 130.700195312 941 485.799804688 941 c 2
 503.599609375 941 l 1
619.700195312 93 m 1
 622.700195312 839 l 1
 589.844726562 839 551.513671875 839 503.599609375 840 c 2
 493.599609375 840 l 2
 250.5 840 210.200195312 754 203.700195312 465 c 1
 203.700195312 414 l 2
 203.700195312 166 254.400390625 93 506.599609375 93 c 2
 619.700195312 93 l 1
EndSplineSet
EndChar

StartChar: oe
Encoding: 339 339 255
Width: 1110
Flags: HW
LayerCount: 2
Fore
SplineSet
952.700195312 394 m 1
 952.700195312 411 955.299804688 427 955.299804688 441 c 0
 955.299804688 591 925.400390625 622 781.099609375 622 c 2
 761.599609375 622 l 2
 653.700195312 619 626.400390625 617 626.400390625 416 c 2
 626.400390625 401 l 1
 952.700195312 394 l 1
516.400390625 170 m 1
 511.400390625 219 508.400390625 280 507.400390625 359 c 0
 507.400390625 384 506.400390625 408 506.400390625 430 c 0
 506.400390625 479 508.400390625 519 511.400390625 552 c 1
 505.099609375 606 471.299804688 617 351.700195312 617 c 2
 323.099609375 617 l 2
 215.200195312 617 197 598 197 355 c 0
 197 85 217.799804688 84 351.700195312 84 c 2
 379 84 l 2
 475.200195312 84 507.400390625 87 516.400390625 170 c 1
955.299804688 176 m 1
 1055.29980469 150 l 1
 1009.29980469 10 977.299804688 -14 791.5 -14 c 2
 778.5 -14 l 2
 665.400390625 -13 601.400390625 -12 566.400390625 20 c 1
 537.400390625 -6 479.099609375 -10 351.700195312 -10 c 0
 110 -10 78 -7 78 355 c 0
 78 677 104 708 284.099609375 708 c 0
 304.900390625 708 327 707 351.700195312 707 c 0
 470 706 531.400390625 701 563.400390625 683 c 1
 599.400390625 710 664.099609375 712 778.5 714 c 0
 801.900390625 714 822.700195312 715 842.200195312 715 c 0
 1006.29980469 715 1032.29980469 689 1032.29980469 525 c 0
 1032.29980469 473 1030.29980469 406 1027.29980469 321 c 1
 946.200195312 317 l 1
 610.400390625 303 l 1
 615.400390625 72 638.099609375 71 778.5 70 c 2
 788.900390625 70 l 2
 892.900390625 70 917.599609375 86 955.299804688 176 c 1
EndSplineSet
EndChar

StartChar: Racute
Encoding: 340 340 256
Width: 751
Flags: HW
LayerCount: 2
Fore
SplineSet
210.299804688 444 m 1
 392.299804688 444 l 2
 554.799804688 444 562.599609375 454 562.599609375 649 c 0
 562.599609375 835 557.400390625 845 453.400390625 845 c 0
 344.200195312 845 290.900390625 837 211.599609375 833 c 1
 210.299804688 444 l 1
705.599609375 5 m 1
 707.599609375 0 l 1
 572.599609375 -5 l 1
 389.700195312 347 l 1
 385.799804688 347 l 1
 210.299804688 347 l 1
 210.299804688 -8 l 1
 92.2998046875 3 l 1
 92.2998046875 927 l 1
 387.099609375 927 l 2
 668.599609375 927 680.599609375 914 680.599609375 649 c 0
 680.599609375 411 672.599609375 360 522.299804688 350 c 1
 705.599609375 5 l 1
322.099609375 1007 m 1
 394.900390625 1157 l 1
 576.599609375 1157 l 1
 452.099609375 1007 l 1
 322.099609375 1007 l 1
EndSplineSet
EndChar

StartChar: racute
Encoding: 341 341 257
Width: 464
Flags: HW
LayerCount: 2
Fore
SplineSet
413.400390625 706 m 1
 413.400390625 608 l 1
 402.400390625 609 389.400390625 610 375.400390625 610 c 0
 303.400390625 610 202.400390625 588 195.400390625 525 c 1
 199.400390625 -2 l 1
 90.400390625 -9 l 1
 88.400390625 725 l 1
 195.400390625 705 l 1
 195.400390625 675 l 1
 218.400390625 695 321.400390625 708 381.400390625 708 c 0
 394.400390625 708 405.400390625 707 413.400390625 706 c 1
197.400390625 777 m 1
 253.400390625 927 l 1
 396.400390625 927 l 1
 298.400390625 777 l 1
 197.400390625 777 l 1
EndSplineSet
EndChar

